<?xml version="1.0" encoding="utf-8"?>
<!-- Generator: Adobe Illustrator 24.2.3, SVG Export Plug-In . SVG Version: 6.00 Build 0)  -->
<svg version="1.1" id="Layer_1" xmlns="http://www.w3.org/2000/svg" xmlns:xlink="http://www.w3.org/1999/xlink" x="0px" y="0px"
	 viewBox="0 0 200.8 200.8" style="enable-background:new 0 0 200.8 200.8;" xml:space="preserve">
<style type="text/css">
	.st0{clip-path:url(#SVGID_2_);}
	.st1{fill:#FFFFFF;}
	.st2{opacity:8.000000e-02;}
	.st3{fill:#F7C100;}
	.st4{fill:none;stroke:#879096;stroke-width:5.1007;stroke-miterlimit:10;stroke-dasharray:5.3084,7.0779;}
	.st5{fill:#879096;}
	.st6{opacity:0.2;fill:#F7C100;}
	.st7{fill:none;stroke:#879096;stroke-width:5.1007;stroke-miterlimit:10;stroke-dasharray:5.2316,6.9754;}
	.st8{opacity:0.15;}
	.st9{fill:none;stroke:#879096;stroke-width:5.1007;stroke-miterlimit:10;}
	.st10{fill:none;stroke:#879096;stroke-width:5.1007;stroke-miterlimit:10;stroke-dasharray:4.7868,6.3825;}
	.st11{enable-background:new    ;}
	.st12{fill:#3E4E57;}
</style>
<g>
	<g>
		<defs>
			<circle id="SVGID_1_" cx="100.4" cy="100.4" r="100.4"/>
		</defs>
		<clipPath id="SVGID_2_">
			<use xlink:href="#SVGID_1_"  style="overflow:visible;"/>
		</clipPath>
		<g class="st0">
			<circle class="st1" cx="100.4" cy="100.4" r="100.4"/>
			<g>
				<circle class="st1" cx="25.4" cy="124.9" r="29.5"/>
				<g class="st2">
					<circle class="st3" cx="25.4" cy="124.9" r="29.5"/>
				</g>
			</g>
			<g>
				<path class="st4" d="M152.2,129.6c-16.1,28.1-51.9,37.8-80.1,21.8C63.9,146.6,57,140,51.9,132"/>
				<path class="st5" d="M43.8,112.2c5,5.9,12.4,12.8,18.9,16.3H49.8l-9.9,8.2C42.5,130,43.8,120,43.8,112.2z"/>
			</g>
			<circle class="st6" cx="154.4" cy="157.9" r="48.5"/>
			<g>
				<path class="st7" d="M86.7,43.6c31.5-8.1,63.4,10.9,71.5,42.3c1.2,4.6,1.8,9.3,1.9,13.9"/>
				<path class="st5" d="M156.3,120.9c-1.1-7.7-3.7-17.3-7.3-23.8l11,6.8l12.8-1.8C166.7,106.5,160.5,114.3,156.3,120.9z"/>
			</g>
			<g>
				<circle class="st1" cx="102.4" cy="27.9" r="42.5"/>
				<g class="st8">
					<circle class="st3" cx="102.4" cy="27.9" r="42.5"/>
				</g>
			</g>
			<g>
				<path class="st9" d="M43.1,93.1c0.1-0.9,0.3-1.7,0.3-2.6"/>
				<path class="st10" d="M44.8,84.3c2.8-9.8,8.1-18.6,15.3-25.8"/>
				<path class="st5" d="M77.7,46.7c-4.7,6.2-9.9,14.9-12,21.9l-2.7-12.7L52.7,48C60.1,49.2,70.1,48.3,77.7,46.7z"/>
			</g>
			<g>
				<g class="st11">
					<path class="st12" d="M91.1,179.1c0.2,0.3,0.2,0.6,0.2,0.9l-3.6,15.7c-0.1,0.3-0.3,0.6-0.6,0.8c-0.3,0.2-0.6,0.2-0.9,0.2
						c-0.3-0.1-0.6-0.3-0.8-0.5s-0.2-0.6-0.2-0.9l2.6-11.5l-8.2,10.1c-0.4,0.3-0.7,0.5-1.2,0.4s-0.8-0.4-0.9-1l-3-12.3L72,192.2
						c-0.1,0.3-0.3,0.6-0.5,0.8c-0.3,0.2-0.6,0.2-0.9,0.2s-0.6-0.3-0.8-0.5s-0.2-0.6-0.2-0.9l3.6-15.7c0.1-0.3,0.3-0.6,0.5-0.8
						c0.3-0.2,0.6-0.2,0.9-0.2c0.5,0.1,0.8,0.4,0.9,0.9l3.8,15.3l9.8-12.3c0.3-0.4,0.7-0.5,1.2-0.4
						C90.6,178.7,90.9,178.9,91.1,179.1z"/>
				</g>
				<g class="st11">
					<path class="st12" d="M114.5,178.6c1.5,0.6,2.8,1.6,3.8,3c1,1.3,1.6,2.9,1.8,4.8c0.2,1.8,0,3.5-0.6,5.1s-1.6,2.8-2.9,3.8
						s-2.9,1.6-4.7,1.8c-1.8,0.2-3.5,0-5-0.6s-2.8-1.6-3.7-3s-1.6-2.9-1.8-4.8c-0.2-1.8,0-3.5,0.6-5s1.6-2.8,2.9-3.8
						s2.9-1.6,4.7-1.8C111.3,177.7,113,177.9,114.5,178.6z M106.3,181.6c-1,0.8-1.7,1.7-2.2,2.9s-0.6,2.4-0.4,3.8
						c0.2,1.4,0.6,2.6,1.4,3.6c0.7,1,1.7,1.8,2.8,2.3c1.2,0.5,2.4,0.7,3.7,0.5s2.5-0.6,3.5-1.4c1-0.8,1.7-1.7,2.2-2.9
						s0.6-2.4,0.4-3.8c-0.2-1.4-0.6-2.6-1.4-3.6c-0.7-1-1.7-1.8-2.8-2.3c-1.1-0.5-2.4-0.7-3.8-0.5
						C108.4,180.3,107.3,180.8,106.3,181.6z"/>
				</g>
				<g class="st11">
					<path class="st12" d="M137.8,169.7c0.3,0.1,0.5,0.3,0.6,0.6s0.1,0.6,0,0.9c-0.1,0.3-0.3,0.5-0.6,0.6l-4.7,2.1l6,13.9
						c0.1,0.3,0.1,0.6,0,1c-0.1,0.3-0.3,0.5-0.7,0.7c-0.3,0.1-0.6,0.1-1,0c-0.3-0.1-0.5-0.3-0.7-0.7l-6-13.9L126,177
						c-0.3,0.1-0.6,0.1-0.9,0s-0.5-0.3-0.6-0.6s-0.1-0.6,0-0.9s0.3-0.5,0.6-0.6l11.7-5.1C137.2,169.6,137.5,169.6,137.8,169.7z"/>
				</g>
				<g class="st11">
					<path class="st12" d="M145.1,164.7c0.1-0.3,0.2-0.6,0.5-0.8s0.6-0.3,0.9-0.2c0.3,0.1,0.6,0.2,0.8,0.5l9.5,13
						c0.2,0.3,0.3,0.6,0.2,0.9c0,0.3-0.2,0.6-0.5,0.8s-0.6,0.3-0.9,0.2s-0.6-0.2-0.8-0.5l-9.5-13C145.1,165.3,145,165,145.1,164.7z"
						/>
				</g>
				<g class="st11">
					<path class="st12" d="M163.8,147.1c1.5-0.6,3.1-0.8,4.8-0.5c1.6,0.3,3.2,1,4.6,2.2c1.4,1.2,2.5,2.5,3.1,4.1
						c0.6,1.5,0.8,3.1,0.5,4.7c-0.3,1.6-1,3.2-2.2,4.6c-1.2,1.4-2.5,2.4-4.1,3.1c-1.5,0.6-3.1,0.8-4.8,0.4s-3.2-1-4.6-2.2
						c-1.4-1.2-2.5-2.5-3.1-4s-0.8-3.1-0.5-4.7c0.3-1.6,1-3.2,2.2-4.6C160.9,148.7,162.3,147.7,163.8,147.1z M159.9,155
						c-0.2,1.2,0,2.4,0.4,3.6c0.5,1.2,1.3,2.2,2.3,3.1c1.1,0.9,2.2,1.4,3.5,1.7c1.2,0.2,2.5,0.1,3.6-0.3c1.2-0.4,2.2-1.2,3.1-2.2
						c0.9-1,1.4-2.2,1.6-3.4c0.2-1.2,0-2.5-0.4-3.6c-0.5-1.2-1.3-2.2-2.3-3.1c-1.1-0.9-2.2-1.4-3.5-1.7c-1.2-0.2-2.5-0.1-3.6,0.3
						c-1.2,0.4-2.2,1.2-3.1,2.2S160.1,153.8,159.9,155z"/>
				</g>
				<g class="st11">
					<path class="st12" d="M174.7,123.3c-0.1-0.3-0.1-0.6,0-1s0.3-0.6,0.6-0.7s0.6-0.1,1,0l15.2,5.7c0.3,0.1,0.6,0.3,0.7,0.6
						c0.1,0.3,0.1,0.6,0,0.9c-0.1,0.2-0.2,0.3-0.3,0.5c-0.1,0.1-0.3,0.2-0.4,0.3l-16.7,4.9l12.3,4.6c0.3,0.1,0.6,0.3,0.7,0.6
						c0.1,0.3,0.2,0.6,0,1c-0.1,0.3-0.3,0.6-0.6,0.7c-0.3,0.1-0.6,0.1-1,0l-15.2-5.7c-0.3-0.1-0.6-0.3-0.7-0.6
						c-0.1-0.3-0.1-0.6,0-0.9c0.1-0.2,0.2-0.3,0.3-0.4c0.1-0.1,0.3-0.2,0.5-0.3l16.7-4.9l-12.3-4.6
						C175.1,123.8,174.8,123.6,174.7,123.3z"/>
				</g>
			</g>
		</g>
	</g>
</g>
</svg>
