<svg xmlns="http://www.w3.org/2000/svg" xmlns:xlink="http://www.w3.org/1999/xlink" viewBox="0 0 200.8 200.8"><defs><style>.a{fill:none;}.b{clip-path:url(#a);}.c{fill:#fff;}.d{isolation:isolate;}.e{fill:#3e4e57;}.f{fill:#cfd0e9;fill-rule:evenodd;}</style><clipPath id="a"><circle class="a" cx="100.4" cy="100.4" r="100.4"/></clipPath></defs><g class="b"><rect class="c" width="200.8" height="200.8"/><g class="d"><path class="e" d="M74.91,173.36a4.92,4.92,0,0,1,.87,5.24,3.76,3.76,0,0,1-1.43,1.78,4.81,4.81,0,0,1-2.27.78A4.74,4.74,0,0,1,74,183.65a4.67,4.67,0,0,1-.24,3.18,5.83,5.83,0,0,1-1.9,2.52,5.47,5.47,0,0,1-2.89,1.09,7.14,7.14,0,0,1-3.35-.54l-6-2.44a1.27,1.27,0,0,1-.72-1.69l6.34-15.66a1.21,1.21,0,0,1,.7-.73,1.26,1.26,0,0,1,1,0l5.53,2.24A6.36,6.36,0,0,1,74.91,173.36Zm-5.47,14.53a3.22,3.22,0,0,0,2-2,2.82,2.82,0,0,0-.09-2.6A4.48,4.48,0,0,0,69,181.48l-4.81-1.95-2.51,6.2,4.81,2A4.28,4.28,0,0,0,69.44,187.89Zm2.42-8.62a2.9,2.9,0,0,0,1.57-3.87,3.64,3.64,0,0,0-1.92-1.55l-4.33-1.75-2.1,5.21,4.32,1.75A3.58,3.58,0,0,0,71.86,179.27Z"/></g><g class="d"><path class="e" d="M97.29,178a9.1,9.1,0,0,1,3.13,3.89,11.24,11.24,0,0,1-1.09,10.29,9,9,0,0,1-3.86,3.17,10.2,10.2,0,0,1-5.24.73,10.34,10.34,0,0,1-5-1.8,9,9,0,0,1-3.11-3.91,10.62,10.62,0,0,1-.7-5.28,10.5,10.5,0,0,1,1.78-5A9,9,0,0,1,87.06,177,11.06,11.06,0,0,1,97.29,178Zm-9.13,1.12a7.08,7.08,0,0,0-2.91,2.46,8.44,8.44,0,0,0-.81,7.74,7,7,0,0,0,2.34,3,7.69,7.69,0,0,0,7.6.8,7.17,7.17,0,0,0,2.92-2.46,8.07,8.07,0,0,0,1.35-3.78,8,8,0,0,0-.54-4,7.07,7.07,0,0,0-2.33-3,7.87,7.87,0,0,0-7.62-.8Z"/></g><g class="d"><path class="e" d="M120.91,175.37a9,9,0,0,1,4.15,2.78,11.23,11.23,0,0,1,2,10.14,9,9,0,0,1-2.73,4.18,11.11,11.11,0,0,1-10.1,2,9,9,0,0,1-4.14-2.79,11.34,11.34,0,0,1-2-10.14,9,9,0,0,1,2.74-4.17,11,11,0,0,1,10.08-2Zm-8.38,3.81a6.88,6.88,0,0,0-2,3.21A8.46,8.46,0,0,0,112,190a7.1,7.1,0,0,0,3.14,2.18,7.28,7.28,0,0,0,3.94.23,7.38,7.38,0,0,0,3.55-1.74,7.15,7.15,0,0,0,2-3.23,8.08,8.08,0,0,0,.16-4,8,8,0,0,0-1.7-3.62,7,7,0,0,0-3.13-2.17,7.84,7.84,0,0,0-7.51,1.52Z"/></g><g class="d"><path class="e" d="M141.12,166a1.17,1.17,0,0,1,.68.63,1.15,1.15,0,0,1-.54,1.6l-4.82,2.38,7,14.16a1.29,1.29,0,0,1,.07,1,1.23,1.23,0,0,1-.66.74,1.25,1.25,0,0,1-1,.08,1.28,1.28,0,0,1-.74-.67l-7-14.16-4.84,2.38a1.21,1.21,0,0,1-1.68-1.46,1.19,1.19,0,0,1,.62-.69l12-5.91A1.19,1.19,0,0,1,141.12,166Z"/></g><g class="d"><path class="e" d="M152.61,157.35a7.52,7.52,0,0,1,3.51.34,1.6,1.6,0,0,1,.8.5,1,1,0,0,1,.19,1,1.22,1.22,0,0,1-.39.55,1.35,1.35,0,0,1-1.37.22,4.73,4.73,0,0,0-2.39-.24,4.88,4.88,0,0,0-2.34,1.17,5.72,5.72,0,0,0-1.9,2.52,2.39,2.39,0,0,0,.45,2.4,2.72,2.72,0,0,0,2.19,1,7.11,7.11,0,0,0,3.62-1.49,7.81,7.81,0,0,1,4.73-1.56,5.16,5.16,0,0,1,3.81,2,5,5,0,0,1,1.21,3,5.88,5.88,0,0,1-.77,3.12,9.3,9.3,0,0,1-2.26,2.69,9,9,0,0,1-4.1,2,5.92,5.92,0,0,1-3.93-.47,1.38,1.38,0,0,1-.42-.31.91.91,0,0,1-.21-.68,1.41,1.41,0,0,1,.33-.78l.18-.18a1.36,1.36,0,0,1,.74-.3,1.45,1.45,0,0,1,.82.15,3.62,3.62,0,0,0,2.41.14,6.23,6.23,0,0,0,2.68-1.34,5.5,5.5,0,0,0,1.9-2.68,2.68,2.68,0,0,0-.5-2.64,3.17,3.17,0,0,0-2.39-1.18,5.74,5.74,0,0,0-3.37,1.17,8.64,8.64,0,0,1-4.91,1.71,4.77,4.77,0,0,1-3.77-1.79,4.29,4.29,0,0,1-1-2.71,5.57,5.57,0,0,1,.8-2.95,9.79,9.79,0,0,1,2.35-2.74A7,7,0,0,1,152.61,157.35Z"/></g><g class="d"><path class="e" d="M166,141.1a1.16,1.16,0,0,1,.88.25,1.18,1.18,0,0,1,.48.79,1.13,1.13,0,0,1-.25.89l-3.27,4.26,12.54,9.61a1.27,1.27,0,0,1,.51.86,1.21,1.21,0,0,1-.27,1,1.25,1.25,0,0,1-1.81.24l-12.55-9.61L159,153.63a1.18,1.18,0,0,1-.8.48,1.16,1.16,0,0,1-.88-.25,1.18,1.18,0,0,1-.48-.8,1.12,1.12,0,0,1,.25-.88l8.12-10.6A1.18,1.18,0,0,1,166,141.1Z"/></g><g class="d"><path class="e" d="M190,132.31a1.1,1.1,0,0,1,.62.65,1.19,1.19,0,0,1-.06,1,1.28,1.28,0,0,1-1,.77l-8,1.09-.18.42L180,139.12l5.67,2.54a1.3,1.3,0,0,1,.69.71,1.23,1.23,0,0,1,0,1,1.28,1.28,0,0,1-.72.69,1.26,1.26,0,0,1-1,0l-15.42-6.91a1.23,1.23,0,0,1-.7-.73,1.27,1.27,0,0,1,0-1l1.84-4.1a7,7,0,0,1,2.06-2.7,5.56,5.56,0,0,1,2.91-1.18,6.27,6.27,0,0,1,3.25.56,5.58,5.58,0,0,1,3.39,5.19l7.17-1A1.51,1.51,0,0,1,190,132.31Zm-10.88,2.91a4.12,4.12,0,0,0,.27-2.94,3.17,3.17,0,0,0-1.82-2,3.57,3.57,0,0,0-2.91-.1,3.86,3.86,0,0,0-2.1,2.12l-1.31,2.92,6.56,2.94Z"/></g><g class="d"><path class="e" d="M195.1,109.31a1.2,1.2,0,0,1,.82.53,1.27,1.27,0,0,1,.2,1,1.31,1.31,0,0,1-.34.66,1.23,1.23,0,0,1-.66.38l-3.69.74-1.62,8.81,3.18,2a1.35,1.35,0,0,1,.49.6,1.22,1.22,0,0,1,.08.73,1.21,1.21,0,0,1-.54.82,1.28,1.28,0,0,1-1,.19,1.66,1.66,0,0,1-.54-.22l-15.21-9.92a1.29,1.29,0,0,1-.64-1.36,1.22,1.22,0,0,1,1.09-1l17.79-3.89A1.55,1.55,0,0,1,195.1,109.31Zm-5.94,3.75L179.77,115l8.09,5.19Z"/></g><g class="d"><path class="e" d="M196.05,98.26a1.31,1.31,0,0,1-.8,2.28l-16.87.9a1.29,1.29,0,0,1-1-.32,1.31,1.31,0,0,1-.41-.91l-.27-5a6.75,6.75,0,0,1,.65-3.35,5.82,5.82,0,0,1,2.17-2.39,6.88,6.88,0,0,1,3.3-1,6.46,6.46,0,0,1,3.28.64,5.64,5.64,0,0,1,2.34,2.15,6.75,6.75,0,0,1,1,3.26l.19,3.69,5.46-.3A1.26,1.26,0,0,1,196.05,98.26Zm-10.22-6.32A3.76,3.76,0,0,0,183,91a4.07,4.07,0,0,0-2.86,1.26,3.71,3.71,0,0,0-1,2.85l.19,3.69,7.93-.43-.2-3.69A3.8,3.8,0,0,0,185.83,91.94Z"/></g><path class="f" d="M93.37,156H34.49V12.72h57.6c26.89,0,43.09,13.71,43.09,35.76,0,15-11,28.38-25.13,30.77V81c19.37,2,32.26,15.77,32.26,34.45C142.31,140.61,123.94,156,93.37,156ZM56.74,31.58V73.39h26.4c19.66,0,29.89-7.26,29.89-20.85,0-13.21-9.64-21-26.11-21ZM88.9,137.14H56.74V91H87.61c21,0,32,7.85,32,22.84C119.59,129,109,137.14,88.9,137.14Z"/></g></svg>