<?xml version="1.0" encoding="utf-8"?>
<!-- Generator: Adobe Illustrator 24.2.3, SVG Export Plug-In . SVG Version: 6.00 Build 0)  -->
<svg version="1.1" id="Layer_1" xmlns="http://www.w3.org/2000/svg" xmlns:xlink="http://www.w3.org/1999/xlink" x="0px" y="0px"
	 viewBox="0 0 200.8 200.8" style="enable-background:new 0 0 200.8 200.8;" xml:space="preserve">
<style type="text/css">
	.st0{clip-path:url(#SVGID_2_);}
	.st1{fill:#B2BDC6;}
	.st2{fill:#FFFFFF;}
	.st3{enable-background:new    ;}
	.st4{fill:#3E4E57;}
	.st5{fill-rule:evenodd;clip-rule:evenodd;fill:#CFD0E9;}
</style>
<g>
	<defs>
		<circle id="SVGID_1_" cx="100.4" cy="100.4" r="100.4"/>
	</defs>
	<clipPath id="SVGID_2_">
		<use xlink:href="#SVGID_1_"  style="overflow:visible;"/>
	</clipPath>
	<g class="st0">
		<circle class="st1" cx="100.4" cy="100.4" r="100.4"/>
		<circle class="st2" cx="100.4" cy="100.4" r="100.4"/>
		<g>
			<g class="st3">
				<path class="st4" d="M73.9,173.6c0.6,0.7,1,1.6,1.2,2.5c0.2,0.9,0.1,1.8-0.3,2.8c-0.3,0.8-0.8,1.4-1.4,1.8
					c-0.7,0.4-1.4,0.7-2.3,0.8c0.9,0.7,1.6,1.5,1.9,2.5c0.3,1,0.2,2-0.2,3.2c-0.4,1-1.1,1.9-1.9,2.5c-0.8,0.6-1.8,1-2.9,1.1
					c-1.1,0.1-2.2-0.1-3.3-0.5l-6-2.4c-0.3-0.1-0.6-0.4-0.7-0.7c-0.1-0.3-0.1-0.7,0-1l6.3-15.7c0.1-0.4,0.4-0.6,0.7-0.7
					c0.3-0.1,0.7-0.1,1,0l5.5,2.2C72.4,172.3,73.3,172.9,73.9,173.6z M68.4,188.1c0.9-0.3,1.5-1,2-2c0.4-1,0.4-1.8-0.1-2.6
					c-0.4-0.8-1.2-1.4-2.3-1.8l-4.8-1.9l-2.5,6.2l4.8,1.9C66.6,188.4,67.5,188.4,68.4,188.1z M70.9,179.5c0.7-0.2,1.3-0.8,1.6-1.6
					c0.3-0.8,0.3-1.6,0-2.3c-0.4-0.7-1-1.2-1.9-1.5l-4.3-1.8l-2.1,5.2l4.3,1.8C69.3,179.7,70.1,179.7,70.9,179.5z"/>
			</g>
			<g class="st3">
				<path class="st4" d="M96.3,178.3c1.4,1,2.5,2.3,3.1,3.9c0.7,1.6,0.9,3.3,0.7,5.3c-0.2,1.9-0.8,3.6-1.8,5c-1,1.4-2.3,2.5-3.9,3.2
					c-1.6,0.7-3.3,0.9-5.2,0.7c-1.9-0.2-3.6-0.8-5-1.8c-1.4-1-2.4-2.3-3.1-3.9c-0.7-1.6-0.9-3.4-0.7-5.3s0.8-3.6,1.8-5
					c1-1.4,2.3-2.5,3.9-3.2c1.6-0.7,3.3-0.9,5.3-0.7C93.2,176.7,94.9,177.3,96.3,178.3z M87.2,179.4c-1.2,0.5-2.2,1.4-2.9,2.5
					c-0.8,1.1-1.2,2.4-1.4,3.8c-0.1,1.4,0,2.7,0.5,4c0.5,1.2,1.3,2.2,2.3,3c1.1,0.8,2.3,1.3,3.7,1.4c1.4,0.1,2.7-0.1,3.9-0.6
					c1.2-0.6,2.2-1.4,2.9-2.5c0.8-1.1,1.2-2.4,1.4-3.8c0.1-1.4,0-2.7-0.5-4c-0.5-1.2-1.3-2.2-2.3-3c-1-0.8-2.3-1.2-3.7-1.4
					C89.6,178.7,88.3,178.9,87.2,179.4z"/>
			</g>
			<g class="st3">
				<path class="st4" d="M119.9,175.6c1.6,0.5,3,1.5,4.2,2.8c1.1,1.3,1.9,2.9,2.3,4.8c0.4,1.9,0.3,3.7-0.2,5.3
					c-0.5,1.7-1.4,3.1-2.7,4.2c-1.3,1.1-2.9,1.9-4.8,2.3c-1.9,0.4-3.7,0.3-5.3-0.2c-1.6-0.5-3-1.5-4.1-2.8s-1.9-2.9-2.2-4.8
					c-0.4-1.9-0.3-3.7,0.2-5.3c0.5-1.6,1.4-3,2.7-4.2c1.3-1.1,2.9-1.9,4.8-2.3C116.5,175,118.3,175.1,119.9,175.6z M111.5,179.4
					c-1,0.9-1.6,1.9-2,3.2c-0.4,1.3-0.4,2.6-0.2,4c0.3,1.4,0.9,2.6,1.7,3.6c0.9,1,1.9,1.7,3.1,2.2c1.2,0.4,2.6,0.5,3.9,0.2
					s2.6-0.9,3.5-1.7c1-0.9,1.7-2,2-3.2c0.4-1.3,0.4-2.6,0.2-4c-0.3-1.4-0.9-2.6-1.7-3.6c-0.9-1-1.9-1.7-3.1-2.2
					c-1.2-0.4-2.6-0.5-4-0.2C113.7,178,112.5,178.5,111.5,179.4z"/>
			</g>
			<g class="st3">
				<path class="st4" d="M140.1,166.3c0.3,0.1,0.5,0.3,0.7,0.6c0.2,0.3,0.2,0.6,0.1,0.9c-0.1,0.3-0.3,0.5-0.6,0.7l-4.8,2.4l7,14.2
					c0.2,0.3,0.2,0.7,0.1,1c-0.1,0.3-0.3,0.6-0.7,0.7s-0.7,0.2-1,0.1c-0.3-0.1-0.6-0.3-0.7-0.7l-7-14.2l-4.8,2.4
					c-0.3,0.2-0.6,0.2-0.9,0.1c-0.3-0.1-0.5-0.3-0.7-0.6c-0.2-0.3-0.2-0.6-0.1-0.9s0.3-0.5,0.6-0.7l12-5.9
					C139.5,166.2,139.8,166.2,140.1,166.3z"/>
			</g>
			<g class="st3">
				<path class="st4" d="M151.6,157.6c1.1-0.2,2.3-0.1,3.5,0.3c0.4,0.1,0.6,0.3,0.8,0.5c0.2,0.3,0.3,0.6,0.2,1
					c-0.1,0.2-0.2,0.4-0.4,0.5c-0.2,0.2-0.4,0.3-0.7,0.3c-0.2,0-0.5,0-0.7-0.1c-0.8-0.3-1.6-0.4-2.4-0.2c-0.8,0.1-1.6,0.5-2.3,1.2
					c-1,0.8-1.6,1.6-1.9,2.5c-0.3,0.9-0.1,1.7,0.5,2.4c0.6,0.7,1.3,1,2.2,1s2.1-0.5,3.6-1.5c1.7-1.1,3.2-1.6,4.7-1.6
					c1.5,0.1,2.8,0.8,3.8,2c0.8,0.9,1.2,1.9,1.2,3c0,1.1-0.2,2.1-0.8,3.1c-0.6,1-1.3,1.9-2.3,2.7c-1.2,1-2.6,1.7-4.1,2
					c-1.5,0.3-2.8,0.1-3.9-0.5c-0.2-0.1-0.3-0.2-0.4-0.3c-0.2-0.2-0.2-0.4-0.2-0.7c0-0.3,0.1-0.5,0.3-0.8c0,0,0.1-0.1,0.2-0.2
					c0.2-0.2,0.5-0.3,0.7-0.3c0.3,0,0.6,0,0.8,0.1c0.6,0.3,1.4,0.4,2.4,0.1c1-0.2,1.9-0.7,2.7-1.3c1-0.8,1.6-1.7,1.9-2.7
					c0.3-1,0.1-1.9-0.5-2.6c-0.6-0.7-1.4-1.1-2.4-1.2c-1-0.1-2.1,0.3-3.4,1.2c-1.7,1.2-3.4,1.7-4.9,1.7c-1.6,0-2.8-0.6-3.8-1.8
					c-0.7-0.8-1-1.7-1.1-2.7c0-1,0.2-2,0.8-3c0.6-1,1.3-1.9,2.4-2.7C149.4,158.3,150.5,157.8,151.6,157.6z"/>
			</g>
			<g class="st3">
				<path class="st4" d="M165,141.3c0.3,0,0.6,0,0.9,0.3s0.4,0.5,0.5,0.8c0,0.3,0,0.6-0.3,0.9l-3.3,4.3l12.5,9.6
					c0.3,0.2,0.5,0.5,0.5,0.9s0,0.7-0.3,1c-0.2,0.3-0.5,0.5-0.9,0.5c-0.3,0-0.7,0-1-0.3l-12.5-9.6l-3.3,4.3
					c-0.2,0.3-0.5,0.4-0.8,0.5c-0.3,0-0.6,0-0.9-0.3s-0.4-0.5-0.5-0.8c0-0.3,0-0.6,0.3-0.9l8.1-10.6
					C164.5,141.5,164.7,141.4,165,141.3z"/>
			</g>
			<g class="st3">
				<path class="st4" d="M189,132.5c0.3,0.1,0.5,0.4,0.6,0.7c0.1,0.3,0.1,0.6-0.1,1c-0.2,0.4-0.5,0.7-1,0.8l-8,1.1l-0.2,0.4
					l-1.3,2.9l5.7,2.5c0.3,0.2,0.6,0.4,0.7,0.7c0.1,0.3,0.1,0.7,0,1c-0.1,0.3-0.4,0.6-0.7,0.7s-0.7,0.1-1,0l-15.4-6.9
					c-0.3-0.2-0.6-0.4-0.7-0.7c-0.1-0.3-0.1-0.7,0-1l1.8-4.1c0.5-1.1,1.2-2,2.1-2.7c0.9-0.7,1.8-1.1,2.9-1.2
					c1.1-0.1,2.2,0.1,3.2,0.6c1.1,0.5,1.9,1.2,2.5,2.1c0.6,0.9,0.9,1.9,0.9,3.1l7.2-1C188.5,132.4,188.8,132.4,189,132.5z
					 M178.2,135.5c0.5-1,0.6-2,0.3-2.9s-0.9-1.6-1.8-2c-1-0.4-2-0.5-2.9-0.1s-1.6,1.1-2.1,2.1l-1.3,2.9l6.6,2.9L178.2,135.5z"/>
			</g>
			<g class="st3">
				<path class="st4" d="M194.1,109.5c0.3,0.1,0.6,0.2,0.8,0.5s0.3,0.6,0.2,1c0,0.2-0.2,0.5-0.3,0.7c-0.2,0.2-0.4,0.3-0.7,0.4
					l-3.7,0.7l-1.6,8.8l3.2,2c0.2,0.2,0.4,0.4,0.5,0.6c0.1,0.2,0.1,0.5,0.1,0.7c-0.1,0.4-0.2,0.6-0.5,0.8c-0.3,0.2-0.6,0.3-1,0.2
					c-0.2,0-0.3-0.1-0.5-0.2l-15.2-9.9c-0.5-0.4-0.7-0.8-0.6-1.4c0.1-0.6,0.5-0.9,1.1-1l17.8-3.9C193.8,109.5,194,109.5,194.1,109.5
					z M188.2,113.3l-9.4,1.9l8.1,5.2L188.2,113.3z"/>
			</g>
			<g class="st3">
				<path class="st4" d="M195.1,98.5c0.3,0.2,0.4,0.5,0.4,0.9c0,0.4-0.1,0.7-0.3,0.9c-0.2,0.3-0.5,0.4-0.9,0.4l-16.9,0.9
					c-0.4,0-0.7-0.1-1-0.3c-0.3-0.2-0.4-0.5-0.4-0.9l-0.3-5c-0.1-1.2,0.2-2.3,0.6-3.3c0.5-1,1.2-1.8,2.2-2.4c1-0.6,2.1-0.9,3.3-1
					c1.2-0.1,2.3,0.1,3.3,0.6c1,0.5,1.8,1.2,2.3,2.1s0.9,2,1,3.3l0.2,3.7l5.5-0.3C194.5,98.2,194.8,98.3,195.1,98.5z M184.8,92.2
					c-0.8-0.7-1.7-1-2.8-0.9c-1.2,0.1-2.1,0.5-2.9,1.3c-0.7,0.8-1.1,1.7-1,2.9l0.2,3.7l7.9-0.4l-0.2-3.7
					C186,93.8,185.6,92.9,184.8,92.2z"/>
			</g>
		</g>
		<path class="st5" d="M77.9,162.1H19V18.8h57.6c26.9,0,43.1,13.7,43.1,35.8c0,15-11,28.4-25.1,30.8v1.8c19.4,2,32.3,15.8,32.3,34.4
			C126.8,146.7,108.4,162.1,77.9,162.1z M41.2,37.7v41.8h26.4c19.7,0,29.9-7.3,29.9-20.8c0-13.2-9.6-21-26.1-21L41.2,37.7z
			 M73.4,143.2H41.2V97.1h30.9c21,0,32,7.8,32,22.8C104.1,135.1,93.5,143.2,73.4,143.2z"/>
	</g>
</g>
</svg>
