<?xml version="1.0" encoding="utf-8"?>
<!-- Generator: Adobe Illustrator 24.2.3, SVG Export Plug-In . SVG Version: 6.00 Build 0)  -->
<svg version="1.1" id="Layer_1" xmlns="http://www.w3.org/2000/svg" xmlns:xlink="http://www.w3.org/1999/xlink" x="0px" y="0px"
	 viewBox="0 0 200.8 200.8" style="enable-background:new 0 0 200.8 200.8;" xml:space="preserve">
<style type="text/css">
	.st0{clip-path:url(#SVGID_2_);}
	.st1{fill:#FFFFFF;}
	.st2{enable-background:new    ;}
	.st3{fill:#3E4E57;}
	.st4{fill-rule:evenodd;clip-rule:evenodd;fill:#CFD0E9;}
</style>
<g>
	<defs>
		<circle id="SVGID_1_" cx="100.4" cy="100.4" r="100.4"/>
	</defs>
	<clipPath id="SVGID_2_">
		<use xlink:href="#SVGID_1_"  style="overflow:visible;"/>
	</clipPath>
	<rect class="st0" width="200.8" height="200.8"/>
	<g class="st1">
		<g class="st2">
			<path class="st3" d="M74.9,173.4c0.6,0.7,1,1.6,1.2,2.5c0.2,0.9,0.1,1.8-0.3,2.8c-0.3,0.8-0.8,1.4-1.4,1.8
				c-0.7,0.4-1.4,0.7-2.3,0.8c0.9,0.7,1.6,1.5,1.9,2.5c0.3,1,0.2,2-0.2,3.2c-0.4,1-1.1,1.9-1.9,2.5c-0.8,0.6-1.8,1-2.9,1.1
				c-1.1,0.1-2.2-0.1-3.3-0.5l-6-2.4c-0.3-0.1-0.6-0.4-0.7-0.7c-0.1-0.3-0.1-0.7,0-1l6.3-15.7c0.1-0.4,0.4-0.6,0.7-0.7
				c0.3-0.1,0.7-0.1,1,0l5.5,2.2C73.4,172,74.3,172.6,74.9,173.4z M69.4,187.9c0.9-0.3,1.5-1,2-2c0.4-1,0.4-1.8-0.1-2.6
				c-0.4-0.8-1.2-1.4-2.3-1.8l-4.8-1.9l-2.5,6.2l4.8,1.9C67.6,188.1,68.5,188.2,69.4,187.9z M71.9,179.3c0.7-0.2,1.3-0.8,1.6-1.6
				c0.3-0.8,0.3-1.6,0-2.3c-0.4-0.7-1-1.2-1.9-1.5l-4.3-1.8l-2.1,5.2l4.3,1.8C70.3,179.4,71.1,179.5,71.9,179.3z"/>
		</g>
		<g class="st2">
			<path class="st3" d="M97.3,178c1.4,1,2.5,2.3,3.1,3.9c0.7,1.6,0.9,3.3,0.7,5.3c-0.2,1.9-0.8,3.6-1.8,5c-1,1.4-2.3,2.5-3.9,3.2
				c-1.6,0.7-3.3,0.9-5.2,0.7c-1.9-0.2-3.6-0.8-5-1.8c-1.4-1-2.4-2.3-3.1-3.9c-0.7-1.6-0.9-3.4-0.7-5.3s0.8-3.6,1.8-5
				c1-1.4,2.3-2.5,3.9-3.2c1.6-0.7,3.3-0.9,5.3-0.7C94.2,176.4,95.9,177,97.3,178z M88.2,179.2c-1.2,0.5-2.2,1.4-2.9,2.5
				c-0.8,1.1-1.2,2.4-1.4,3.8c-0.1,1.4,0,2.7,0.5,4c0.5,1.2,1.3,2.2,2.3,3c1.1,0.8,2.3,1.3,3.7,1.4c1.4,0.1,2.7-0.1,3.9-0.6
				c1.2-0.6,2.2-1.4,2.9-2.5c0.8-1.1,1.2-2.4,1.4-3.8c0.1-1.4,0-2.7-0.5-4c-0.5-1.2-1.3-2.2-2.3-3c-1-0.8-2.3-1.2-3.7-1.4
				C90.6,178.4,89.3,178.6,88.2,179.2z"/>
		</g>
		<g class="st2">
			<path class="st3" d="M120.9,175.4c1.6,0.5,3,1.5,4.2,2.8c1.1,1.3,1.9,2.9,2.3,4.8c0.4,1.9,0.3,3.7-0.2,5.3
				c-0.5,1.7-1.4,3.1-2.7,4.2c-1.3,1.1-2.9,1.9-4.8,2.3c-1.9,0.4-3.7,0.3-5.3-0.2c-1.6-0.5-3-1.5-4.1-2.8s-1.9-2.9-2.2-4.8
				c-0.4-1.9-0.3-3.7,0.2-5.3c0.5-1.6,1.4-3,2.7-4.2c1.3-1.1,2.9-1.9,4.8-2.3C117.5,174.8,119.3,174.8,120.9,175.4z M112.5,179.2
				c-1,0.9-1.6,1.9-2,3.2c-0.4,1.3-0.4,2.6-0.2,4c0.3,1.4,0.9,2.6,1.7,3.6c0.9,1,1.9,1.7,3.1,2.2c1.2,0.4,2.6,0.5,3.9,0.2
				s2.6-0.9,3.5-1.7c1-0.9,1.7-2,2-3.2c0.4-1.3,0.4-2.6,0.2-4c-0.3-1.4-0.9-2.6-1.7-3.6c-0.9-1-1.9-1.7-3.1-2.2
				c-1.2-0.4-2.6-0.5-4-0.2C114.7,177.7,113.5,178.3,112.5,179.2z"/>
		</g>
		<g class="st2">
			<path class="st3" d="M141.1,166c0.3,0.1,0.5,0.3,0.7,0.6c0.2,0.3,0.2,0.6,0.1,0.9c-0.1,0.3-0.3,0.5-0.6,0.7l-4.8,2.4l7,14.2
				c0.2,0.3,0.2,0.7,0.1,1c-0.1,0.3-0.3,0.6-0.7,0.7s-0.7,0.2-1,0.1c-0.3-0.1-0.6-0.3-0.7-0.7l-7-14.2l-4.8,2.4
				c-0.3,0.2-0.6,0.2-0.9,0.1c-0.3-0.1-0.5-0.3-0.7-0.6c-0.2-0.3-0.2-0.6-0.1-0.9s0.3-0.5,0.6-0.7l12-5.9
				C140.5,165.9,140.8,165.9,141.1,166z"/>
		</g>
		<g class="st2">
			<path class="st3" d="M152.6,157.4c1.1-0.2,2.3-0.1,3.5,0.3c0.4,0.1,0.6,0.3,0.8,0.5c0.2,0.3,0.3,0.6,0.2,1
				c-0.1,0.2-0.2,0.4-0.4,0.5c-0.2,0.2-0.4,0.3-0.7,0.3c-0.2,0-0.5,0-0.7-0.1c-0.8-0.3-1.6-0.4-2.4-0.2c-0.8,0.1-1.6,0.5-2.3,1.2
				c-1,0.8-1.6,1.6-1.9,2.5c-0.3,0.9-0.1,1.7,0.5,2.4c0.6,0.7,1.3,1,2.2,1s2.1-0.5,3.6-1.5c1.7-1.1,3.2-1.6,4.7-1.6
				c1.5,0.1,2.8,0.8,3.8,2c0.8,0.9,1.2,1.9,1.2,3c0,1.1-0.2,2.1-0.8,3.1c-0.6,1-1.3,1.9-2.3,2.7c-1.2,1-2.6,1.7-4.1,2
				c-1.5,0.3-2.8,0.1-3.9-0.5c-0.2-0.1-0.3-0.2-0.4-0.3c-0.2-0.2-0.2-0.4-0.2-0.7c0-0.3,0.1-0.5,0.3-0.8c0,0,0.1-0.1,0.2-0.2
				c0.2-0.2,0.5-0.3,0.7-0.3c0.3,0,0.6,0,0.8,0.1c0.6,0.3,1.4,0.4,2.4,0.1c1-0.2,1.9-0.7,2.7-1.3c1-0.8,1.6-1.7,1.9-2.7
				c0.3-1,0.1-1.9-0.5-2.6c-0.6-0.7-1.4-1.1-2.4-1.2c-1-0.1-2.1,0.3-3.4,1.2c-1.7,1.2-3.4,1.7-4.9,1.7c-1.6,0-2.8-0.6-3.8-1.8
				c-0.7-0.8-1-1.7-1.1-2.7c0-1,0.2-2,0.8-3c0.6-1,1.3-1.9,2.4-2.7C150.4,158.1,151.5,157.5,152.6,157.4z"/>
		</g>
		<g class="st2">
			<path class="st3" d="M166,141.1c0.3,0,0.6,0,0.9,0.3s0.4,0.5,0.5,0.8c0,0.3,0,0.6-0.3,0.9l-3.3,4.3l12.5,9.6
				c0.3,0.2,0.5,0.5,0.5,0.9s0,0.7-0.3,1c-0.2,0.3-0.5,0.5-0.9,0.5c-0.3,0-0.7,0-1-0.3l-12.5-9.6l-3.3,4.3c-0.2,0.3-0.5,0.4-0.8,0.5
				c-0.3,0-0.6,0-0.9-0.3s-0.4-0.5-0.5-0.8c0-0.3,0-0.6,0.3-0.9l8.1-10.6C165.5,141.3,165.7,141.1,166,141.1z"/>
		</g>
		<g class="st2">
			<path class="st3" d="M190,132.3c0.3,0.1,0.5,0.4,0.6,0.7c0.1,0.3,0.1,0.6-0.1,1c-0.2,0.4-0.5,0.7-1,0.8l-8,1.1l-0.2,0.4l-1.3,2.9
				l5.7,2.5c0.3,0.2,0.6,0.4,0.7,0.7c0.1,0.3,0.1,0.7,0,1c-0.1,0.3-0.4,0.6-0.7,0.7s-0.7,0.1-1,0l-15.4-6.9
				c-0.3-0.2-0.6-0.4-0.7-0.7c-0.1-0.3-0.1-0.7,0-1l1.8-4.1c0.5-1.1,1.2-2,2.1-2.7c0.9-0.7,1.8-1.1,2.9-1.2c1.1-0.1,2.2,0.1,3.2,0.6
				c1.1,0.5,1.9,1.2,2.5,2.1c0.6,0.9,0.9,1.9,0.9,3.1l7.2-1C189.5,132.2,189.8,132.2,190,132.3z M179.2,135.2c0.5-1,0.6-2,0.3-2.9
				s-0.9-1.6-1.8-2c-1-0.4-2-0.5-2.9-0.1s-1.6,1.1-2.1,2.1l-1.3,2.9l6.6,2.9L179.2,135.2z"/>
		</g>
		<g class="st2">
			<path class="st3" d="M195.1,109.3c0.3,0.1,0.6,0.2,0.8,0.5s0.3,0.6,0.2,1c0,0.2-0.2,0.5-0.3,0.7c-0.2,0.2-0.4,0.3-0.7,0.4
				l-3.7,0.7l-1.6,8.8l3.2,2c0.2,0.2,0.4,0.4,0.5,0.6c0.1,0.2,0.1,0.5,0.1,0.7c-0.1,0.4-0.2,0.6-0.5,0.8c-0.3,0.2-0.6,0.3-1,0.2
				c-0.2,0-0.3-0.1-0.5-0.2l-15.2-9.9c-0.5-0.4-0.7-0.8-0.6-1.4c0.1-0.6,0.5-0.9,1.1-1l17.8-3.9C194.8,109.3,195,109.3,195.1,109.3z
				 M189.2,113.1l-9.4,1.9l8.1,5.2L189.2,113.1z"/>
		</g>
		<g class="st2">
			<path class="st3" d="M196.1,98.3c0.3,0.2,0.4,0.5,0.4,0.9c0,0.4-0.1,0.7-0.3,0.9c-0.2,0.3-0.5,0.4-0.9,0.4l-16.9,0.9
				c-0.4,0-0.7-0.1-1-0.3c-0.3-0.2-0.4-0.5-0.4-0.9l-0.3-5c-0.1-1.2,0.2-2.3,0.6-3.3c0.5-1,1.2-1.8,2.2-2.4c1-0.6,2.1-0.9,3.3-1
				c1.2-0.1,2.3,0.1,3.3,0.6c1,0.5,1.8,1.2,2.3,2.1s0.9,2,1,3.3l0.2,3.7l5.5-0.3C195.5,97.9,195.8,98,196.1,98.3z M185.8,91.9
				c-0.8-0.7-1.7-1-2.8-0.9c-1.2,0.1-2.1,0.5-2.9,1.3c-0.7,0.8-1.1,1.7-1,2.9l0.2,3.7l7.9-0.4l-0.2-3.7
				C187,93.5,186.6,92.6,185.8,91.9z"/>
		</g>
		<path class="st4" d="M93.4,156H34.5V12.7h57.6c26.9,0,43.1,13.7,43.1,35.8c0,15-11,28.4-25.1,30.8V81c19.4,2,32.3,15.8,32.3,34.4
			C142.3,140.6,123.9,156,93.4,156z M56.7,31.6v41.8h26.4c19.7,0,29.9-7.3,29.9-20.8c0-13.2-9.6-21-26.1-21L56.7,31.6z M88.9,137.1
			H56.7V91h30.9c21,0,32,7.8,32,22.8C119.6,129,109,137.1,88.9,137.1z"/>
	</g>
</g>
</svg>
