<?xml version="1.0" encoding="utf-8"?>
<!-- Generator: Adobe Illustrator 24.2.3, SVG Export Plug-In . SVG Version: 6.00 Build 0)  -->
<svg version="1.1" id="Layer_1" xmlns="http://www.w3.org/2000/svg" xmlns:xlink="http://www.w3.org/1999/xlink" x="0px" y="0px"
	 viewBox="0 0 200.8 200.8" style="enable-background:new 0 0 200.8 200.8;" xml:space="preserve">
<style type="text/css">
	.st0{clip-path:url(#SVGID_2_);}
	.st1{fill:#B2BDC6;}
	.st2{fill:#FFFFFF;}
	.st3{enable-background:new    ;}
	.st4{fill:#3E4E57;}
	.st5{fill:#CFD0E9;}
	.st6{fill-rule:evenodd;clip-rule:evenodd;}
</style>
<g>
	<g>
		<g>
			<defs>
				<circle id="SVGID_1_" cx="100.4" cy="100.4" r="100.4"/>
			</defs>
			<clipPath id="SVGID_2_">
				<use xlink:href="#SVGID_1_"  style="overflow:visible;"/>
			</clipPath>
			<g class="st0">
				<circle class="st1" cx="100.4" cy="100.4" r="100.4"/>
				<circle class="st2" cx="100.4" cy="100.4" r="100.4"/>
				<g>
					<g class="st3">
						<path class="st4" d="M71.1,190.8c-0.1,0.3-0.4,0.5-0.7,0.7c-0.3,0.1-0.6,0.1-1,0c-0.2-0.1-0.4-0.2-0.5-0.5
							c-0.1-0.2-0.2-0.4-0.2-0.7l0.1-3.6l-7.9-3.3l-2.6,2.6c-0.2,0.2-0.4,0.3-0.7,0.3c-0.2,0-0.5,0-0.7-0.1
							c-0.3-0.1-0.5-0.4-0.7-0.7c-0.1-0.3-0.1-0.6,0-0.9c0.1-0.1,0.2-0.3,0.3-0.5L69,171.9c0.4-0.4,0.9-0.5,1.4-0.3s0.8,0.6,0.8,1.2
							v17.4C71.1,190.5,71.1,190.7,71.1,190.8z M68.8,184.5l0.2-9.2l-6.5,6.5L68.8,184.5z"/>
					</g>
					<g class="st3">
						<path class="st4" d="M93.3,178.6c1.3,1,2.2,2.2,2.8,3.7c0.6,1.5,0.8,3.1,0.5,4.9c-0.2,1.8-0.8,3.3-1.8,4.6s-2.2,2.3-3.7,2.9
							c-1.5,0.6-3.1,0.8-4.9,0.5l-4.3-0.6c-0.3,0-0.6-0.2-0.8-0.5c-0.2-0.3-0.3-0.6-0.2-0.9l2.1-16c0-0.4,0.2-0.6,0.5-0.8
							s0.6-0.3,0.9-0.2l4.3,0.6C90.4,177,92,177.6,93.3,178.6z M90.1,192.6c1.1-0.5,2-1.2,2.8-2.2c0.7-1,1.2-2.2,1.4-3.5
							c0.2-1.4,0.1-2.6-0.4-3.8c-0.4-1.2-1.1-2.1-2.1-2.8s-2.1-1.2-3.4-1.4l-3.1-0.4l-1.9,14.1l3.1,0.4
							C87.8,193.2,89,193.1,90.1,192.6z"/>
					</g>
					<g class="st3">
						<path class="st4" d="M117.3,176.9c1.5,0.6,2.8,1.5,3.8,2.8s1.7,2.9,1.9,4.7c0.3,1.8,0.1,3.5-0.4,5.1c-0.6,1.6-1.5,2.9-2.8,3.9
							s-2.9,1.7-4.7,2c-1.8,0.3-3.5,0.1-5.1-0.4c-1.5-0.6-2.8-1.5-3.8-2.8s-1.7-2.9-1.9-4.7c-0.3-1.8-0.1-3.5,0.4-5.1
							c0.6-1.6,1.5-2.8,2.8-3.9c1.3-1,2.9-1.7,4.7-2C114.1,176.2,115.8,176.4,117.3,176.9z M109.2,180.2c-1,0.8-1.7,1.8-2.1,3
							s-0.5,2.5-0.3,3.8s0.7,2.5,1.5,3.5s1.7,1.7,2.9,2.2c1.2,0.5,2.4,0.6,3.8,0.4c1.3-0.2,2.5-0.7,3.5-1.5s1.7-1.8,2.1-3
							s0.5-2.5,0.3-3.8s-0.7-2.5-1.5-3.5s-1.7-1.7-2.9-2.2s-2.4-0.6-3.8-0.4C111.3,178.9,110.1,179.4,109.2,180.2z"/>
					</g>
					<g class="st3">
						<path class="st4" d="M136.9,169.3c0.9,0,1.8,0.3,2.5,0.8s1.3,1.2,1.7,2c0.3,0.7,0.4,1.4,0.3,2.2c-0.1,0.7-0.4,1.4-0.9,2.1
							c1.1-0.2,2.1-0.1,3,0.3c0.9,0.4,1.6,1.2,2.1,2.2s0.6,2,0.5,3s-0.5,1.9-1.1,2.7s-1.5,1.5-2.6,2l-5.6,2.7
							c-0.3,0.1-0.6,0.2-1,0.1c-0.3-0.1-0.6-0.3-0.7-0.6l-6.9-14.6c-0.2-0.3-0.2-0.7-0.1-1c0.1-0.3,0.3-0.5,0.7-0.7l5.2-2.4
							C135,169.5,135.9,169.3,136.9,169.3z M139,175.3c0.3-0.7,0.3-1.4-0.1-2.2s-0.9-1.3-1.6-1.4c-0.7-0.2-1.5-0.1-2.3,0.3l-4,1.9
							l2.3,4.9l4-1.9C138.1,176.5,138.7,176,139,175.3z M143.5,182.6c0.4-0.8,0.3-1.7-0.1-2.7c-0.4-0.9-1.1-1.4-1.9-1.6
							s-1.8,0-2.8,0.4l-4.5,2.1l2.7,5.8l4.5-2.1C142.5,184.1,143.2,183.4,143.5,182.6z"/>
					</g>
					<g class="st3">
						<path class="st4" d="M166,168c0.3,0,0.6,0.2,0.8,0.4c0.2,0.3,0.3,0.6,0.3,0.9c0,0.3-0.2,0.6-0.5,0.8l-8.3,6.9
							c-0.3,0.2-0.6,0.3-0.9,0.3c-0.3,0-0.6-0.2-0.8-0.5l-10.3-12.4c-0.2-0.3-0.3-0.6-0.3-0.9c0-0.3,0.2-0.6,0.5-0.8l8.3-6.9
							c0.3-0.2,0.6-0.3,0.9-0.3c0.3,0,0.6,0.2,0.8,0.4c0.2,0.3,0.3,0.5,0.3,0.8s-0.2,0.6-0.5,0.8l-7.4,6.1l3.7,4.5l5.3-4.4
							c0.3-0.2,0.6-0.3,0.9-0.3c0.3,0,0.6,0.2,0.8,0.4c0.2,0.3,0.3,0.5,0.3,0.9c0,0.3-0.2,0.6-0.5,0.8l-5.3,4.4l3.8,4.6l7.4-6.1
							C165.4,168.1,165.7,168,166,168z"/>
					</g>
					<g class="st3">
						<path class="st4" d="M186.9,137.6c0.3,0,0.6,0,0.8,0.1c0.3,0.1,0.5,0.4,0.6,0.7s0.1,0.6-0.1,0.9c-0.2,0.4-0.5,0.6-0.8,0.6
							l-8.8,1.3l3.9,8.2c0.1,0.3,0.1,0.6-0.1,0.9c-0.2,0.3-0.4,0.5-0.7,0.6s-0.6,0-0.9-0.1s-0.5-0.4-0.6-0.7l-4-8.4l-8.9,1.3
							c-0.3,0-0.5,0-0.8-0.1c-0.3-0.2-0.5-0.4-0.6-0.7s-0.1-0.6,0.1-0.9c0.2-0.4,0.4-0.6,0.7-0.6l8.7-1.2l-3.8-8
							c-0.1-0.3-0.1-0.6,0.1-0.9c0.2-0.3,0.4-0.5,0.7-0.6s0.6,0,0.9,0.1c0.2,0.1,0.4,0.3,0.6,0.6l3.9,8.2L186.9,137.6z"/>
					</g>
					<g class="st3">
						<path class="st4" d="M177.7,113.9c1.1-1.2,2.4-2,3.9-2.5s3.2-0.5,5-0.1s3.3,1.1,4.5,2.2s2.1,2.4,2.6,3.9s0.5,3.2,0.2,5
							l-0.9,4.2c-0.1,0.3-0.3,0.6-0.5,0.8c-0.3,0.2-0.6,0.2-0.9,0.2l-15.8-3.4c-0.4-0.1-0.6-0.3-0.8-0.5s-0.2-0.6-0.2-0.9l0.9-4.2
							C175.9,116.6,176.6,115.1,177.7,113.9z M191.5,118.2c-0.4-1.1-1-2.1-2-2.9c-0.9-0.8-2.1-1.3-3.4-1.6c-1.3-0.3-2.6-0.3-3.8,0.1
							c-1.2,0.3-2.2,1-3,1.9s-1.4,2-1.6,3.3l-0.6,3l14,3l0.6-3C191.9,120.5,191.8,119.3,191.5,118.2z"/>
					</g>
				</g>
				<path class="st5" d="M81.3,28.5H61.9L41.1,72.2L19.9,28.5h-20l28.3,56.6l-29.3,58h19.8l21.2-44.4l21.5,44.5h21.4L52.5,84.5
					L81.3,28.5z M135.1,28.5v29.1h-5.6c-19.1,0-42.2,12.3-42.2,43.8c0,24.3,12.3,42.6,38.6,42.6c19.3,0,28.4-6.7,28.4-6.7V28.5
					H135.1z M135.1,127.3c0,0-2.2,1-7.4,1s-21.2-2.3-21.2-27.7s18.4-27.4,22.8-27.4c4.4,0,5.8,1.2,5.8,1.2V127.3L135.1,127.3z"/>
			</g>
		</g>
	</g>
</g>
<path class="st6" d="M-139.7,114.8h-31.4V38.3h30.8c14.4,0,23,7.3,23,19.1c0,8-5.9,15.2-13.4,16.4v0.9c10.3,1.1,17.2,8.4,17.2,18.4
	C-113.6,106.6-123.4,114.8-139.7,114.8z M-159.3,48.4v22.3h14.1c10.5,0,16-3.9,16-11.1c0-7.1-5.1-11.2-13.9-11.2H-159.3z
	 M-142.1,104.8h-17.2V80.1h16.5c11.2,0,17.1,4.2,17.1,12.2C-125.7,100.4-131.4,104.8-142.1,104.8z"/>
</svg>
