<svg id="Layer_1" data-name="Layer 1" xmlns="http://www.w3.org/2000/svg" xmlns:xlink="http://www.w3.org/1999/xlink" width="200.82" height="200.82" viewBox="0 0 200.82 200.82">
  <defs>
    <clipPath id="clip-path">
      <circle cx="100.41" cy="100.41" r="100.41" style="fill: none"/>
    </clipPath>
  </defs>
  <title>workIcons</title>
  <g style="clip-path: url(#clip-path)">
    <circle cx="100.41" cy="100.41" r="100.41" style="fill: #b2bdc6"/>
    <text transform="matrix(0.98, 0.2, -0.2, 0.98, 72.31, 192.57)" style="font-size: 23.870750427246094px;fill: #fff;font-family: Comfortaa-Bold, Comfortaa;font-weight: 700">C</text>
    <text transform="translate(101.18 196.9) rotate(-6.93)" style="font-size: 23.870750427246094px;fill: #fff;font-family: Comfortaa-Bold, Comfortaa;font-weight: 700">O</text>
    <text transform="matrix(0.91, -0.41, 0.41, 0.91, 132.99, 190.92)" style="font-size: 23.870750427246094px;fill: #fff;font-family: Comfortaa-Bold, Comfortaa;font-weight: 700">R</text>
    <text transform="translate(155.44 179.41) rotate(-40.13)" style="font-size: 23.870750427246094px;fill: #fff;font-family: Comfortaa-Bold, Comfortaa;font-weight: 700">V</text>
    <text transform="matrix(0.6, -0.8, 0.8, 0.6, 175.09, 160.65)" style="font-size: 23.870750427246094px;fill: #fff;font-family: Comfortaa-Bold, Comfortaa;font-weight: 700">I</text>
    <text transform="translate(184.88 146.75) rotate(-66.79)" style="font-size: 23.870750427246094px;fill: #fff;font-family: Comfortaa-Bold, Comfortaa;font-weight: 700">D</text>
    <g>
      <polygon points="41.73 126.33 41.73 57.43 71.48 75.57 71.48 108.67 99.72 125.45 99.72 160.16 41.73 126.33" style="fill: #657c8e"/>
      <polygon points="99.72 125.45 129.67 109.33 159.09 125.67 99.72 160.16 99.72 125.45" style="fill: #3e4e57"/>
      <polygon points="129.67 75 158.84 58.33 159.09 125.67 129.67 109.33 129.67 75" style="fill: #f8ca26"/>
      <polygon points="100.57 24.66 158.84 58.33 129.67 75 100.57 58 71.48 75.57 41.73 57.43 100.57 24.66" style="fill: #fff"/>
    </g>
  </g>
</svg>
