<?xml version="1.0" encoding="utf-8"?>
<!-- Generator: Adobe Illustrator 24.2.3, SVG Export Plug-In . SVG Version: 6.00 Build 0)  -->
<svg version="1.1" id="Layer_1" xmlns="http://www.w3.org/2000/svg" xmlns:xlink="http://www.w3.org/1999/xlink" x="0px" y="0px"
	 viewBox="0 0 200.8 200.8" style="enable-background:new 0 0 200.8 200.8;" xml:space="preserve">
<style type="text/css">
	.st0{clip-path:url(#SVGID_2_);}
	.st1{fill:#FFFFFF;}
	.st2{enable-background:new    ;}
	.st3{fill:#3E4E57;}
	.st4{fill:#B2BDC6;}
	.st5{fill:#879096;}
	.st6{opacity:0.5;fill:#F8CA26;}
	.st7{opacity:0.8;fill:#CFD0E9;}
</style>
<g>
	<g>
		<defs>
			<circle id="SVGID_1_" cx="100.4" cy="100.4" r="100.4"/>
		</defs>
		<clipPath id="SVGID_2_">
			<use xlink:href="#SVGID_1_"  style="overflow:visible;"/>
		</clipPath>
		<g class="st0">
			<circle class="st1" cx="100.4" cy="100.4" r="100.4"/>
			<g>
				<g class="st2">
					<path class="st3" d="M89.6,177.3c0.8,0.5,1.6,1.2,2.3,2.1c0.2,0.2,0.3,0.3,0.3,0.5s0,0.3,0,0.5c-0.1,0.3-0.2,0.5-0.5,0.7
						s-0.5,0.2-0.8,0.1c-0.3-0.1-0.5-0.2-0.8-0.5c-0.5-0.7-1.1-1.2-1.6-1.6c-0.6-0.4-1.3-0.6-2.3-0.8c-1.2-0.2-2.4-0.2-3.6,0.3
						c-1.2,0.4-2.1,1.1-3,2.1c-0.8,1-1.4,2.1-1.6,3.4c-0.3,1.3-0.2,2.6,0.2,3.8c0.4,1.2,1,2.2,1.9,3.1c0.9,0.8,1.9,1.4,3.2,1.6
						c1.5,0.3,3,0.1,4.6-0.7c0.3-0.1,0.6-0.2,0.8-0.1c0.3,0.1,0.5,0.2,0.7,0.5c0.2,0.2,0.2,0.5,0.1,0.9c-0.1,0.3-0.3,0.6-0.6,0.8
						c-2,1-4,1.3-6.1,0.9c-1.7-0.3-3.1-1.1-4.3-2.2c-1.2-1.1-2.1-2.5-2.6-4.1s-0.6-3.3-0.2-5s1.1-3.2,2.2-4.5s2.4-2.2,4-2.7
						c1.6-0.6,3.2-0.7,4.8-0.3C87.8,176.5,88.8,176.8,89.6,177.3z"/>
				</g>
				<g class="st2">
					<path class="st3" d="M114.8,177.4c1.5,0.6,2.8,1.6,3.8,3s1.6,2.9,1.8,4.8c0.2,1.8,0,3.5-0.6,5.1c-0.6,1.5-1.6,2.8-2.9,3.8
						s-2.9,1.6-4.7,1.8c-1.8,0.2-3.5,0-5-0.6s-2.8-1.6-3.7-3c-1-1.3-1.6-2.9-1.8-4.8c-0.2-1.8,0-3.5,0.6-5s1.6-2.8,2.9-3.8
						s2.9-1.6,4.7-1.8C111.6,176.6,113.3,176.8,114.8,177.4z M106.6,180.4c-1,0.8-1.7,1.7-2.2,2.9s-0.6,2.4-0.5,3.8
						c0.2,1.4,0.6,2.6,1.3,3.6c0.7,1,1.7,1.8,2.8,2.3c1.2,0.5,2.4,0.7,3.7,0.5s2.5-0.6,3.5-1.4c1-0.8,1.7-1.7,2.2-2.9
						s0.6-2.4,0.5-3.8c-0.2-1.4-0.6-2.6-1.3-3.6c-0.7-1-1.7-1.8-2.8-2.3c-1.1-0.5-2.4-0.7-3.8-0.5
						C108.7,179.2,107.6,179.7,106.6,180.4z"/>
				</g>
				<g class="st2">
					<path class="st3" d="M145.9,183.9c0.1,0.3,0.1,0.6,0,0.9c-0.1,0.3-0.3,0.5-0.7,0.7s-0.8,0.2-1.2-0.1l-6.4-4.3l-0.4,0.2
						l-2.8,1.3l2.4,5.4c0.1,0.3,0.2,0.6,0,0.9c-0.1,0.3-0.3,0.5-0.7,0.7c-0.3,0.1-0.6,0.2-1,0c-0.3-0.1-0.5-0.3-0.7-0.7l-6.6-14.7
						c-0.2-0.3-0.2-0.7,0-1c0.2-0.3,0.3-0.5,0.7-0.7l3.9-1.8c1.1-0.5,2.1-0.7,3.2-0.6c1,0.1,2,0.4,2.8,1s1.5,1.4,2,2.5
						c0.5,1,0.6,2.1,0.5,3.1c-0.2,1-0.6,2-1.3,2.8l5.7,3.8C145.6,183.4,145.8,183.6,145.9,183.9z M136.3,179c1-0.4,1.7-1.1,2.1-1.9
						c0.4-0.8,0.4-1.7,0-2.6c-0.4-1-1.1-1.6-2-1.9s-1.9-0.3-2.8,0.2l-2.8,1.3l2.8,6.3L136.3,179z"/>
				</g>
				<g class="st2">
					<path class="st3" d="M156.5,154.5c0.3,0,0.5,0.1,0.7,0.4c0.1,0.1,0.2,0.3,0.3,0.6l5,16.9c0.2,0.5,0.1,1-0.3,1.3
						c-0.4,0.3-0.8,0.4-1.4,0.1l-15.7-7.7c-0.3-0.2-0.5-0.3-0.7-0.5s-0.3-0.5-0.3-0.8s0.2-0.5,0.5-0.7c0.4-0.4,0.9-0.4,1.4-0.2
						l13.9,7.1l-4.6-15c-0.1-0.3-0.1-0.5,0-0.7s0.2-0.4,0.4-0.6C155.9,154.6,156.2,154.5,156.5,154.5z"/>
				</g>
				<g class="st2">
					<path class="st3" d="M162.1,147.5c0-0.3,0-0.6,0.3-0.9c0.2-0.3,0.5-0.5,0.8-0.5s0.6,0,0.9,0.3L177,156c0.3,0.2,0.4,0.5,0.5,0.8
						s0,0.6-0.2,0.9c-0.2,0.3-0.5,0.4-0.8,0.5c-0.3,0-0.6,0-0.9-0.2l-12.9-9.7C162.3,148.1,162.1,147.8,162.1,147.5z"/>
				</g>
				<g class="st2">
					<path class="st3" d="M173.9,128.2c1.3-1,2.7-1.5,4.3-1.7s3.2,0.1,4.9,0.8c1.7,0.7,3,1.7,4,3s1.6,2.7,1.8,4.3s-0.1,3.2-0.8,4.9
						l-1.7,4c-0.1,0.3-0.4,0.5-0.7,0.7s-0.6,0.1-1,0l-14.9-6.4c-0.3-0.1-0.6-0.4-0.7-0.7c-0.1-0.3-0.1-0.6,0-0.9l1.7-4
						C171.6,130.4,172.6,129.1,173.9,128.2z M186.6,135c-0.1-1.2-0.6-2.3-1.4-3.2s-1.8-1.7-3-2.3c-1.3-0.5-2.5-0.8-3.7-0.6
						c-1.2,0.1-2.3,0.5-3.3,1.2s-1.7,1.7-2.2,2.9l-1.2,2.8l13.1,5.6l1.2-2.8C186.5,137.4,186.7,136.2,186.6,135z"/>
				</g>
			</g>
			<g>
				<polygon class="st4" points="41.7,126.3 41.7,57.4 71.5,75.6 71.5,108.7 99.7,125.4 99.7,160.2 				"/>
				<polygon class="st5" points="99.7,125.4 129.7,109.3 159.1,125.7 99.7,160.2 				"/>
				<polygon class="st6" points="129.7,75 158.8,58.3 159.1,125.7 129.7,109.3 				"/>
				<polygon class="st7" points="100.6,24.7 158.8,58.3 129.7,75 100.6,58 71.5,75.6 41.7,57.4 				"/>
			</g>
		</g>
	</g>
</g>
</svg>
