<?xml version="1.0" encoding="utf-8"?>
<!-- Generator: Adobe Illustrator 24.2.3, SVG Export Plug-In . SVG Version: 6.00 Build 0)  -->
<svg version="1.1" id="Layer_1" xmlns="http://www.w3.org/2000/svg" xmlns:xlink="http://www.w3.org/1999/xlink" x="0px" y="0px"
	 viewBox="0 0 200.8 200.8" style="enable-background:new 0 0 200.8 200.8;" xml:space="preserve">
<style type="text/css">
	.st0{clip-path:url(#SVGID_2_);}
	.st1{fill:#FFFFFF;}
	.st2{enable-background:new    ;}
	.st3{fill:#3E4E57;}
	.st4{fill:#B2BDC6;}
	.st5{fill:#CFD0E9;}
	.st6{fill:#E2E3F2;}
</style>
<g>
	<g>
		<g>
			<defs>
				<circle id="SVGID_1_" cx="100.4" cy="100.4" r="100.4"/>
			</defs>
			<clipPath id="SVGID_2_">
				<use xlink:href="#SVGID_1_"  style="overflow:visible;"/>
			</clipPath>
			<g class="st0">
				<circle class="st1" cx="100.4" cy="100.4" r="100.4"/>
				<g class="st2">
					<path class="st3" d="M122.9,174.8c0.9,0.1,1.9,0.4,3,0.9c0.2,0.1,0.4,0.2,0.5,0.3s0.2,0.3,0.2,0.5c0.1,0.3,0,0.6-0.2,0.8
						c-0.2,0.3-0.4,0.4-0.7,0.5c-0.3,0.1-0.6,0-0.9-0.1c-0.8-0.4-1.5-0.6-2.1-0.7c-0.7-0.1-1.5,0-2.4,0.2c-1.2,0.3-2.2,0.9-3.1,1.7
						c-0.9,0.9-1.5,1.9-1.8,3.2c-0.3,1.2-0.4,2.5,0,3.8c0.3,1.3,0.9,2.4,1.7,3.4c0.8,0.9,1.9,1.6,3,2c1.2,0.4,2.3,0.4,3.5,0.2
						c1.5-0.4,2.8-1.2,3.9-2.5c0.2-0.2,0.5-0.4,0.7-0.5c0.3-0.1,0.6,0,0.8,0.1c0.2,0.2,0.4,0.4,0.5,0.8c0.1,0.3,0,0.6-0.2,0.9
						c-1.3,1.7-3.1,2.9-5.2,3.4c-1.7,0.4-3.3,0.3-4.8-0.2c-1.6-0.5-2.9-1.4-4-2.6c-1.1-1.2-1.9-2.7-2.3-4.4s-0.4-3.3,0.1-4.9
						c0.5-1.6,1.3-3,2.4-4.1c1.2-1.1,2.6-1.9,4.2-2.3C120.9,174.8,122,174.7,122.9,174.8z"/>
				</g>
				<g class="st2">
					<path class="st3" d="M140.9,167c1.1,0,2.2,0.4,3.2,1c0.3,0.2,0.5,0.4,0.7,0.6c0.2,0.3,0.2,0.6,0,1c-0.1,0.2-0.3,0.3-0.5,0.4
						c-0.2,0.1-0.4,0.2-0.7,0.2s-0.5-0.1-0.7-0.2c-0.7-0.4-1.5-0.6-2.2-0.7c-0.7,0-1.6,0.2-2.4,0.7c-1.1,0.6-1.8,1.2-2.2,2
						s-0.4,1.5,0,2.3c0.4,0.7,1,1.2,1.9,1.3c0.9,0.2,2.1-0.1,3.7-0.7c1.8-0.7,3.3-0.9,4.7-0.6c1.4,0.3,2.4,1.2,3.2,2.6
						c0.5,1,0.7,2,0.6,3c-0.2,1-0.6,1.9-1.3,2.8c-0.7,0.8-1.6,1.5-2.6,2.1c-1.4,0.7-2.8,1.1-4.2,1.1s-2.6-0.4-3.6-1.2
						c-0.2-0.1-0.3-0.3-0.3-0.4c-0.1-0.2-0.1-0.4-0.1-0.7c0.1-0.2,0.2-0.5,0.5-0.7c0,0,0.1-0.1,0.2-0.1c0.2-0.1,0.5-0.2,0.7-0.1
						c0.3,0,0.5,0.1,0.7,0.3c0.5,0.4,1.3,0.6,2.2,0.6s1.9-0.3,2.8-0.8c1-0.6,1.8-1.3,2.3-2.2s0.5-1.7,0-2.6c-0.4-0.8-1.1-1.3-2-1.5
						s-2-0.1-3.4,0.5c-1.8,0.8-3.5,1-4.9,0.7c-1.5-0.3-2.5-1.1-3.2-2.4c-0.5-0.9-0.7-1.8-0.5-2.7s0.6-1.8,1.3-2.6s1.6-1.5,2.7-2.1
						C138.7,167.3,139.8,167,140.9,167z"/>
				</g>
				<g class="st2">
					<path class="st3" d="M156,155c1.1-0.2,2.2-0.2,3.4,0.1c0.3,0.1,0.6,0.2,0.8,0.4c0.2,0.3,0.3,0.6,0.2,1
						c-0.1,0.2-0.2,0.4-0.3,0.5c-0.2,0.2-0.4,0.3-0.6,0.3c-0.2,0.1-0.5,0-0.7,0c-0.8-0.2-1.6-0.3-2.3-0.1s-1.5,0.6-2.2,1.2
						c-0.9,0.8-1.4,1.7-1.7,2.5c-0.2,0.9,0,1.6,0.6,2.3c0.6,0.6,1.3,0.9,2.1,0.8c0.9,0,2-0.6,3.4-1.6c1.5-1.2,3-1.7,4.4-1.7
						s2.7,0.6,3.7,1.7c0.8,0.8,1.2,1.8,1.3,2.8s-0.1,2-0.6,3s-1.2,1.9-2,2.7c-1.1,1-2.4,1.7-3.8,2.1c-1.4,0.3-2.7,0.3-3.8-0.2
						c-0.2-0.1-0.3-0.2-0.4-0.3c-0.2-0.2-0.2-0.4-0.2-0.6c0-0.3,0.1-0.5,0.3-0.8c0,0,0.1-0.1,0.2-0.2c0.2-0.2,0.4-0.3,0.7-0.3
						s0.5,0,0.8,0.1c0.6,0.3,1.4,0.3,2.3,0c0.9-0.3,1.7-0.7,2.5-1.4c0.9-0.8,1.4-1.7,1.7-2.7c0.2-1,0-1.8-0.6-2.5s-1.4-1-2.4-1
						s-2,0.4-3.2,1.3c-1.6,1.2-3.1,1.8-4.6,1.9c-1.5,0.1-2.7-0.4-3.7-1.5c-0.7-0.7-1.1-1.6-1.1-2.5c-0.1-0.9,0.1-1.9,0.6-2.9
						s1.2-1.9,2.1-2.7C153.9,155.8,155,155.2,156,155z"/>
				</g>
				<g>
					<path class="st4" d="M105.1,38.5l53.8-0.1c0.8,0,1.4,0.6,1.4,1.4v0.1l-9.1,110.4c0,0.5-0.4,1-0.9,1.2l-44.7,14.3
						c-0.3,0.1-0.5,0.1-0.8,0l-45.5-13.2c-0.5-0.1-0.9-0.6-1-1.2L47.4,39.3c-0.1-0.7,0.5-1.4,1.2-1.5c0.1,0,0.1,0,0.2,0L105.1,38.5z
						"/>
					<path class="st5" d="M104.3,152.5V50.9c0-0.4,0.3-0.7,0.7-0.7l45-0.6c0.9,0,1.7,0.7,1.7,1.7c0,0.1,0,0.1,0,0.2l-6.7,87.9
						c0,0.7-0.5,1.3-1.2,1.5l-38.6,12.4c-0.4,0.1-0.8,0-0.9-0.4C104.4,152.7,104.3,152.6,104.3,152.5z"/>
					<g>
						<path class="st6" d="M70.1,60.9c-0.7,0-1.2,0.5-1.2,1.2c0,0,0,0,0,0.1l0.6,10.7c0,0.7,0.5,1.2,1.2,1.2H96
							c0.7,0,1.2,0.6,1.2,1.2c0,0.5-0.3,0.9-0.7,1.1L72.3,88.1c-0.4,0.2-0.7,0.6-0.7,1.1v11.1c0,0.7,0.5,1.2,1.2,1.2h31.5V61
							L70.1,60.9z"/>
						<path class="st6" d="M89.1,119.6c-0.6-0.1-1-0.6-1-1.2v-6.8c0-0.7-0.5-1.2-1.2-1.2H75c-0.7,0-1.2,0.5-1.2,1.2c0,0,0,0,0,0.1
							l1.2,17.8c0,0.5,0.4,0.9,0.9,1.1l27.8,7.9c0.2,0.1,0.5,0.1,0.7,0l0,0v-15.8L89.1,119.6z"/>
						<path class="st1" d="M132.3,129.6l3.7-40.2c0.1-0.7-0.4-1.3-1.1-1.3h-0.1h-22.2c-0.7,0-1.2-0.5-1.2-1.2c0-0.5,0.3-0.9,0.7-1.1
							l25.8-11.1c0.4-0.2,0.7-0.6,0.7-1.1V62.4c0-0.7-0.5-1.2-1.2-1.2L104.3,61v40.5h16.1c0.7,0,1.2,0.5,1.2,1.2c0,0.1,0,0.1,0,0.2
							l-2.3,16.4c-0.1,0.5-0.5,0.9-1,1l-13.5,2.5c-0.2,0-0.3,0-0.5,0h-0.1v15.8l27.1-7.9C131.9,130.5,132.2,130.1,132.3,129.6z"/>
					</g>
				</g>
			</g>
		</g>
	</g>
</g>
</svg>
