<svg id="Layer_1" data-name="Layer 1" xmlns="http://www.w3.org/2000/svg" width="200.82" height="203.4" viewBox="0 0 200.82 203.4">
  <title>workIcons</title>
  <g>
    <circle cx="100.41" cy="100.41" r="100.41" style="fill: #cfd0e9"/>
    <circle cx="100.41" cy="100.41" r="100.41" style="fill: none"/>
    <text transform="matrix(0.97, -0.23, 0.23, 0.97, 113.69, 195.82)" style="font-size: 23.87075424194336px;fill: #3e4e57;font-family: Comfortaa-Bold, Comfortaa;font-weight: 700">C</text>
    <text transform="translate(138.86 188.65) rotate(-28.49)" style="font-size: 23.87075424194336px;fill: #3e4e57;font-family: Comfortaa-Bold, Comfortaa;font-weight: 700">S</text>
    <text transform="translate(159.37 176.46) rotate(-42.69)" style="font-size: 23.87075424194336px;fill: #3e4e57;font-family: Comfortaa-Bold, Comfortaa;font-weight: 700">S</text>
  </g>
  <g>
    <path d="M105.06,38.49l53.75-.12a1.37,1.37,0,0,1,1.37,1.48L151.1,150.22a1.38,1.38,0,0,1-.94,1.19l-44.7,14.34a1.36,1.36,0,0,1-.8,0L59.19,152.59a1.36,1.36,0,0,1-1-1.18L47.36,39.31a1.36,1.36,0,0,1,1.38-1.49Z" style="fill: #6e7a81"/>
    <path d="M104.34,152.5V50.89a.71.71,0,0,1,.69-.72L150,49.56a1.7,1.7,0,0,1,1.74,1.82l-6.66,87.87a1.7,1.7,0,0,1-1.18,1.5l-38.6,12.43A.71.71,0,0,1,104.34,152.5Z" style="fill: #3e4e57"/>
    <g>
      <path d="M70.11,60.87a1.2,1.2,0,0,0-1.2,1.27l.56,10.67A1.2,1.2,0,0,0,70.67,74H96a1.21,1.21,0,0,1,.53,2.29L72.27,88.08a1.21,1.21,0,0,0-.68,1.08v11.13a1.21,1.21,0,0,0,1.21,1.2h31.54V61Z" style="fill: #d8dee3"/>
      <path d="M89.08,119.6a1.21,1.21,0,0,1-1-1.18v-6.77a1.21,1.21,0,0,0-1.21-1.21H75a1.21,1.21,0,0,0-1.2,1.29L75,129.57a1.2,1.2,0,0,0,.87,1.08l27.77,7.93a1.27,1.27,0,0,0,.67,0h0V122.78Z" style="fill: #d8dee3"/>
      <path d="M132.27,129.6,136,89.43a1.21,1.21,0,0,0-1.2-1.31H112.55a1.2,1.2,0,0,1-.48-2.31L137.9,74.67a1.19,1.19,0,0,0,.73-1.11V62.39a1.2,1.2,0,0,0-1.2-1.2L104.34,61v40.46h16.13a1.2,1.2,0,0,1,1.19,1.38l-2.35,16.4a1.19,1.19,0,0,1-1,1l-13.46,2.52a1.49,1.49,0,0,1-.47,0h-.07v15.79l27.06-7.93A1.2,1.2,0,0,0,132.27,129.6Z" style="fill: #fff"/>
    </g>
  </g>
</svg>
