<svg id="Layer_1" data-name="Layer 1" xmlns="http://www.w3.org/2000/svg" width="107.04" height="110" viewBox="0 0 107.04 110">
  <title>github-icon</title>
  <g>
    <circle cx="53.52" cy="56.48" r="53.52" style="fill: #fff"/>
    <path d="M65,79.16c.44-.1,1.71-.35,3-.67C84.44,74.4,92,55.73,83.38,40.68c-1-1.7-1.1-4-1.36-6-.18-1.48.15-3,.07-4.52-.37-7.16-2.37-8.8-8.49-5.37-5.5,3.1-10.75,4-16.65,2.41a10.44,10.44,0,0,0-3.9-.13c-7.87,1.09-15.59,1.61-22.87-3.16-3.6-2.35-6.21.11-6,4.09.34,6.67-1.9,12.44-3.81,18.63-4.68,15.11,3.47,28.53,18.42,32.08,1.07.25,2.13.56,3.49.93-1.74,3.34-1.63,7.55-6.49,8S27.68,86,25.07,82.16c-2.36-3.56-5.15-6.47-10.28-5.36,3.19,4.81,5.94,9.57,9.27,13.85,3.82,4.92,9.51,4.41,15.08,4.17a15.4,15.4,0,0,1,.55,2.49c.46,10.12-2.34,12.09-11.1,7C9.18,93.16-.89,75.89.06,53.06c1-23,12.52-39.7,33.09-48.74,26.14-11.5,56.26.75,68.59,27.21,12.21,26.19,2.63,57.65-21.94,72a34.61,34.61,0,0,1-4.38,2.22c-6.78,2.78-9.06,1.12-9.25-6.22C66,93,65.44,86.39,65,79.16Z" style="fill: #6f7c8e"/>
  </g>
</svg>
