<svg id="Layer_1" data-name="Layer 1" xmlns="http://www.w3.org/2000/svg" width="109.67" height="109.67" viewBox="0 0 109.67 109.67">
  <title>Github Icon</title>
  <g>
    <circle cx="54.34" cy="56.32" r="53.52" style="fill: #fff"/>
    <path d="M65.83,79c.44-.1,1.71-.35,3-.67,16.43-4.09,24-22.76,15.37-37.81-1-1.7-1.1-4-1.36-6-.18-1.48.15-3,.07-4.52-.37-7.16-2.37-8.8-8.49-5.37-5.5,3.1-10.75,4-16.65,2.41a10.22,10.22,0,0,0-3.9-.13C46,28,38.28,28.52,31,23.75c-3.6-2.35-6.21.11-6,4.09.34,6.67-1.9,12.44-3.81,18.63C16.51,61.58,24.66,75,39.61,78.55c1.07.25,2.13.56,3.49.93-1.74,3.34-1.63,7.55-6.49,8S28.5,85.88,25.89,82c-2.36-3.56-5.15-6.47-10.28-5.36,3.19,4.81,5.94,9.57,9.27,13.85,3.82,4.92,9.51,4.41,15.08,4.17a15.7,15.7,0,0,1,.55,2.49c.46,10.12-2.34,12.09-11.1,7.05C10,93-.07,75.73.88,52.9c1-23,12.52-39.7,33.09-48.74,26.14-11.5,56.26.75,68.59,27.21,12.21,26.19,2.63,57.65-21.94,72a35.29,35.29,0,0,1-4.38,2.22c-6.78,2.78-9.06,1.12-9.25-6.22C66.81,92.8,66.26,86.23,65.83,79Z" style="fill: #6F7C8E"/>
  </g>
</svg>
