<svg id="Layer_1" data-name="Layer 1" xmlns="http://www.w3.org/2000/svg" width="200.82" height="204.19" viewBox="0 0 200.82 204.19">
  <title>workIcons</title>
  <g>
    <circle cx="100.41" cy="100.41" r="100.41" style="fill: #f7c100"/>
    <circle cx="100.41" cy="100.41" r="100.41" style="fill: none"/>
    <text transform="matrix(1, -0.08, 0.08, 1, 97.65, 196.8)" style="font-size: 23.87075424194336px;fill: #3e4e57;font-family: Comfortaa-Bold, Comfortaa;font-weight: 700">H</text>
    <text transform="translate(125.89 193.2) rotate(-20.07)" style="font-size: 23.87075424194336px;fill: #3e4e57;font-family: Comfortaa-Bold, Comfortaa;font-weight: 700">T</text>
    <text transform="matrix(0.8, -0.59, 0.59, 0.8, 147.98, 184.49)" style="font-size: 23.87075424194336px;fill: #3e4e57;font-family: Comfortaa-Bold, Comfortaa;font-weight: 700">M</text>
    <text transform="matrix(0.61, -0.8, 0.8, 0.61, 172.05, 164.58)" style="font-size: 23.87075424194336px;fill: #3e4e57;font-family: Comfortaa-Bold, Comfortaa;font-weight: 700">L</text>
    <g>
      <path d="M100.48,36.53c18.1,0,36.2,0,54.31,0,1.61,0,2,.48,1.81,2q-1.48,15.92-2.87,31.83-1.62,18.09-3.22,36.18-1.59,17.92-3.22,35.85c-.25,2.73-.54,5.46-.72,8.2a1.39,1.39,0,0,1-1.21,1.48q-22,6.06-44,12.18a3.44,3.44,0,0,1-2,0Q77.47,158.09,55.55,152a1.52,1.52,0,0,1-1.3-1.6c-.94-10.95-2-21.89-2.93-32.83q-1.6-17.93-3.19-35.85t-3.2-36c-.22-2.45-.37-4.92-.7-7.36-.2-1.52.28-1.87,1.77-1.87Q73.24,36.57,100.48,36.53Z" style="fill: #6e7a81"/>
      <path d="M100.43,60.08c0-4,0-8.08,0-12.12,0-1.44.47-2,1.94-2q21.09,0,42.19,0c1.58,0,1.95.46,1.77,2.09-.62,5.67-1,11.36-1.5,17s-1.08,11.36-1.59,17-.94,11.26-1.44,16.89-1.07,11.36-1.58,17c-.39,4.35-.72,8.7-1.11,13.05-.4,4.51-.87,9-1.24,13.53a2.2,2.2,0,0,1-1.9,2.17c-9.13,2.5-18.25,5.05-27.37,7.58-2.16.6-4.33,1.15-6.47,1.81-1.29.39-1.71,0-1.7-1.3,0-4.32,0-8.63,0-12.95a1.72,1.72,0,0,1,.65-1c3.69-1.37,7.53-2.2,11.29-3.29,4.36-1.26,8.72-2.52,13.13-3.61a3.71,3.71,0,0,0,3.24-3.67c.33-4.25.78-8.48,1.13-12.73.47-5.69,1-11.38,1.52-17.08.18-2.17.46-4.34.51-6.53,0-2-.41-2.48-2.46-2.5-5.94,0-11.88,0-17.82,0-3.81,0-7.62.07-11.43-.07-5.39.15-10.78.08-16.17,0-.84,0-1.87.15-2.17-1,.48-1.07,1.49-.86,2.33-.88,3.91-.07,7.83,0,11.74,0,3.18,0,3.68-.52,3.7-3.72,0-2.41,0-4.81,0-7.22a4,4,0,0,1,.63-2.55,3.77,3.77,0,0,1,2.29-.31c7.38,0,14.76-.06,22.14,0,2.37,0,4.66-.47,7-.66a2.43,2.43,0,0,0,1.23-.5,3.12,3.12,0,0,0,1-2.39c.18-2,.32-4,.55-6,.3-2.51-.35-3.25-2.91-3.26-9.28,0-18.55,0-27.82,0a5.31,5.31,0,0,1-2.94-.41A.91.91,0,0,1,100.43,60.08Z" style="fill: #3e4e57"/>
      <path d="M134.36,73.94c-.61.61-1.38.33-2.07.33q-15.94,0-31.88,0c-.7.85-1.68.78-2.62.79-4.35,0-8.7,0-13.05,0-2.7,0-3.11.42-3,3.14.1,2.06.33,4.11.55,6.16a6.22,6.22,0,0,1-.48,4.07,3.24,3.24,0,0,0,1.94.25l16.67,0a2.54,2.54,0,0,1,.8,2.27c0,2.52,0,5,0,7.54s.66,3.09,3.09,3.12c3.85,0,7.69-.06,11.54.07.79,0,2.08-.35,2,1.25a3.05,3.05,0,0,1-2.34.67q-6.35.06-12.69,0c-.89,0-1.81,0-2.42-.83-.73,0-1.45-.11-2.17-.11-9.13,0-18.26,0-27.39,0-1.49,0-2-.4-2.11-2q-1.64-19.52-3.47-39c-.13-1.38.19-1.72,1.54-1.71,10.47.05,20.94,0,31.42,0,.73,0,1.45,0,2.18-.06l0,.14c.79.49.79,1.3.81,2.08.07,2.18,0,4.36,0,6.55,0,3.91.36,4.26,4.35,4.26,8.6,0,17.21,0,25.81,0C132.45,73.14,133.58,72.94,134.36,73.94Z" style="fill: #d8dee3"/>
      <path d="M117.85,103c-.58-.63-1.35-.44-2-.45-4.46,0-8.92-.06-13.38,0-1.55,0-2-.51-2-2,.08-3.91,0-7.82,0-11.73l22-.08c3,0,6.05.06,9.08,0,1.3,0,1.62.41,1.5,1.66-.88,9.26-1.69,18.53-2.53,27.79-.37,4.19-.77,8.37-1.11,12.56-.07.84-.3,1.3-1.17,1.54-9,2.45-18,5-27,7.43-1.09.23-1.43-.49-1.47-1.31-.19-3.89-.18-7.77,0-11.66a1.49,1.49,0,0,1,.73-1.24l.31-.34c.56-1.11,1.73-1.15,2.71-1.44,3.1-.9,6.25-1.66,9.36-2.54,2.15-.6,2.73-1.29,2.9-3.51.31-4.17.78-8.33,1-12.51A2.63,2.63,0,0,1,117.85,103Z" style="fill: #fff"/>
      <path d="M100.42,125.45c0,4,0,8.11,0,12.17,0,.75-.16,1.6.74,2l-.77.33c-9-2.51-18-5-27-7.51-1.29-.35-1.91-.82-2-2.31-.47-6.48-1.1-12.95-1.72-19.42-.1-1,.09-1.43,1.19-1.41q5.72.06,11.43,0c1,0,1.38.31,1.45,1.31.23,3,.6,6,.8,9A1.68,1.68,0,0,0,86,121.5C90.83,122.76,95.62,124.12,100.42,125.45Z" style="fill: #d8dee3"/>
      <path d="M117.85,103c-.52,5.57-1.07,11.13-1.54,16.7a1.68,1.68,0,0,1-1.48,1.81c-4.72,1.13-9.32,2.7-14.1,3.62a3.45,3.45,0,0,1-.31-2q0-10.14,0-20.28C106.24,102.86,112,102.67,117.85,103Z" style="fill: #4d4d4d"/>
      <path d="M134.36,73.94H102.65c-2.16,0-2.22-.07-2.23-2.31,0-3.81,0-7.61,0-11.42l23.31-.07h10.56c.76,0,1.44-.1,1.31,1.1C135.13,65.47,134.76,69.71,134.36,73.94Z" style="fill: #fff"/>
      <path d="M81.82,88.5q-.61-6.59-1.24-13.17c-.08-.8.25-1.1,1-1.1q9.39.06,18.79.09c0,4.08,0,8.17,0,12.25,0,1.37-.48,1.88-1.86,1.87C93,88.42,87.4,88.47,81.82,88.5Z" style="fill: #303c42"/>
    </g>
  </g>
</svg>
