<?xml version="1.0" encoding="utf-8"?>
<!-- Generator: Adobe Illustrator 24.2.3, SVG Export Plug-In . SVG Version: 6.00 Build 0)  -->
<svg version="1.1" id="Layer_1" xmlns="http://www.w3.org/2000/svg" xmlns:xlink="http://www.w3.org/1999/xlink" x="0px" y="0px"
	 viewBox="0 0 200.8 200.8" style="enable-background:new 0 0 200.8 200.8;" xml:space="preserve">
<style type="text/css">
	.st0{clip-path:url(#SVGID_2_);}
	.st1{fill:#FFFFFF;}
	.st2{enable-background:new    ;}
	.st3{fill:#3E4E57;}
	.st4{fill:#C5CDD4;}
	.st5{fill:#CFD0E9;}
	.st6{fill:#ECECF6;}
	.st7{fill:#E2E3F2;}
</style>
<g>
	<g>
		<g>
			<g>
				<defs>
					<circle id="SVGID_1_" cx="100.4" cy="100.4" r="100.4"/>
				</defs>
				<clipPath id="SVGID_2_">
					<use xlink:href="#SVGID_1_"  style="overflow:visible;"/>
				</clipPath>
				<g class="st0">
					<circle class="st1" cx="100.4" cy="100.4" r="100.4"/>
					<g>
						<g class="st2">
							<path class="st3" d="M112.5,177.2c0.2-0.2,0.5-0.4,0.9-0.4c0.3,0,0.6,0.1,0.9,0.3c0.2,0.2,0.4,0.5,0.4,0.9l1.3,16.2
								c0,0.4-0.1,0.7-0.3,0.9c-0.2,0.3-0.5,0.4-0.8,0.4c-0.4,0-0.7-0.1-0.9-0.3c-0.3-0.2-0.4-0.5-0.4-0.9l-0.6-7.1l-11.1,0.9
								l0.6,7.1c0,0.3-0.1,0.7-0.3,0.9c-0.2,0.3-0.5,0.4-0.9,0.4s-0.7-0.1-0.9-0.3c-0.3-0.2-0.4-0.5-0.4-0.9l-1.3-16.2
								c0-0.4,0.1-0.7,0.3-0.9c0.2-0.2,0.5-0.4,0.9-0.4s0.7,0.1,0.9,0.3s0.4,0.5,0.4,0.9l0.5,6.8l11.1-0.9l-0.5-6.9
								C112.2,177.8,112.3,177.4,112.5,177.2z"/>
						</g>
						<g class="st2">
							<path class="st3" d="M133.8,170.8c0.3,0.1,0.5,0.3,0.6,0.7c0.1,0.3,0.1,0.6,0,0.9c-0.1,0.3-0.3,0.5-0.7,0.6l-4.8,1.8
								l5.2,14.2c0.1,0.3,0.1,0.6,0,1c-0.1,0.3-0.4,0.5-0.7,0.6s-0.6,0.1-1,0c-0.3-0.1-0.5-0.4-0.6-0.7l-5.2-14.2l-4.8,1.8
								c-0.3,0.1-0.6,0.1-0.9,0s-0.5-0.3-0.6-0.7c-0.1-0.3-0.1-0.6,0-0.9c0.1-0.3,0.3-0.5,0.7-0.6l12-4.4
								C133.2,170.7,133.5,170.7,133.8,170.8z"/>
						</g>
						<g class="st2">
							<path class="st3" d="M153.7,157.7c0.3,0.1,0.6,0.2,0.8,0.5l9.5,12.9c0.2,0.3,0.3,0.6,0.2,0.9c-0.1,0.3-0.2,0.6-0.5,0.8
								s-0.6,0.3-0.9,0.2c-0.3,0-0.6-0.2-0.8-0.5l-7-9.5l2.3,12.8c0,0.5-0.1,0.9-0.5,1.1c-0.4,0.3-0.9,0.3-1.4,0.1l-11.3-5.8
								l6.9,9.3c0.2,0.3,0.3,0.6,0.2,0.9c0,0.3-0.2,0.6-0.5,0.8s-0.6,0.3-0.9,0.2c-0.3,0-0.6-0.2-0.8-0.5l-9.5-12.9
								c-0.2-0.3-0.3-0.6-0.2-0.9c0-0.3,0.2-0.6,0.5-0.8c0.4-0.3,0.8-0.3,1.3-0.1l14.1,7.2l-2.9-15.4c-0.1-0.5,0.1-0.9,0.5-1.2
								C153.1,157.7,153.4,157.6,153.7,157.7z"/>
						</g>
						<g class="st2">
							<path class="st3" d="M179.1,151.8c0.3,0,0.6,0,0.9,0.3s0.4,0.5,0.5,0.8c0,0.3,0,0.6-0.3,0.9l-6,7.9c-0.2,0.3-0.5,0.4-0.8,0.5
								c-0.3,0-0.6,0-0.9-0.3l-12.9-9.9c-0.3-0.2-0.4-0.5-0.5-0.8c0-0.3,0-0.6,0.2-0.9c0.2-0.3,0.5-0.4,0.8-0.5s0.6,0,0.9,0.3
								l11.9,9.1l5.3-6.9C178.5,152,178.8,151.8,179.1,151.8z"/>
						</g>
					</g>
					<g>
						<path class="st4" d="M100.5,36.5c18.1,0,36.2,0,54.3,0c1.6,0,2,0.5,1.8,2c-1,10.6-1.9,21.2-2.9,31.8
							c-1.1,12.1-2.2,24.1-3.2,36.2c-1.1,11.9-2.1,23.9-3.2,35.8c-0.2,2.7-0.5,5.5-0.7,8.2c0.1,0.7-0.5,1.4-1.2,1.5
							c-14.7,4-29.3,8.1-44,12.2c-0.7,0.2-1.3,0.2-2,0c-14.6-4.1-29.2-8.2-43.8-12.2c-0.8-0.1-1.3-0.8-1.3-1.6
							c-0.9-10.9-2-21.9-2.9-32.8c-1.1-12-2.1-23.9-3.2-35.8c-1.1-11.9-2.1-23.9-3.2-36c-0.2-2.5-0.4-4.9-0.7-7.4
							c-0.2-1.5,0.3-1.9,1.8-1.9C64.2,36.5,82.3,36.6,100.5,36.5z"/>
						<path class="st5" d="M100.4,48c0-1.4,0.5-2,1.9-2c14.1,0,28.1,0,42.2,0c1.6,0,1.9,0.5,1.8,2.1c-0.6,5.7-1,11.4-1.5,17
							s-1.1,11.4-1.6,17s-0.9,11.3-1.4,16.9s-1.1,11.4-1.6,17c-0.4,4.3-0.7,8.7-1.1,13.1c-0.4,4.5-0.9,9-1.2,13.5
							c0,1.1-0.8,2-1.9,2.2c-9.1,2.5-18.2,5.1-27.4,7.6c-2.2,0.6-4.3,1.1-6.5,1.8c-1.3,0.4-1.7,0-1.7-1.3c0-4.3,0-8.6,0-12.9
							c0.1-0.4,0.3-0.8,0.7-1c3.7-1.4,7.5-2.2,11.3-3.3c4.4-1.3,8.7-2.5,13.1-3.6c1.8-0.2,3.2-1.8,3.2-3.7c0.3-4.2,0.8-8.5,1.1-12.7
							c0.5-5.7,1-11.4,1.5-17.1c0.2-2.2,0.5-4.3,0.5-6.5c0-2-0.4-2.5-2.5-2.5c-5.9,0-11.9,0-17.8,0c-3.8,0-11.1-0.1-11.1-0.1V74.1
							c0,0,16.7-0.4,24-0.3c2.4,0,4.7-0.5,7-0.7c0.4,0,0.9-0.2,1.2-0.5c0.7-0.6,1-1.5,1-2.4c0.2-2,0.3-4,0.6-6
							c0.3-2.5-0.4-3.2-2.9-3.3c-9.3,0-30.8,0-30.8,0S100.4,52,100.4,48z"/>
						<path class="st6" d="M100.5,59.9H66.3c-0.9,0-1.7,0.8-1.6,1.7l3.3,39.8c0.1,0.8,0.8,1.5,1.6,1.5h30.7V88.7l-18.1-0.2
							c-0.4,0-0.7-0.3-0.7-0.6l-1.2-13.1c0-0.4,0.3-0.8,0.7-0.8l19.3,0.3L100.5,59.9z"/>
						<path class="st1" d="M115.8,103.1c-4.5,0-15.4-0.3-15.4-0.3V88.7l22,0.1h9.1c1.3,0,1.6,0.4,1.5,1.7
							c-0.9,9.3-1.7,18.5-2.5,27.8c-0.4,4.2-0.8,8.4-1.1,12.6c-0.1,0.8-0.3,1.3-1.2,1.5c-9,2.4-27.8,7.6-27.8,7.6s-0.6-0.7-0.7-1.5
							c-0.2-3.9,0.7-13.1,0.7-13.1s2-1.3,3-1.5c3.1-0.9,6.2-1.7,9.4-2.5c2.2-0.6,2.7-1.3,2.9-3.5c0.3-4.2,0.8-8.3,1-12.5
							C116.8,104.3,116.5,103.1,115.8,103.1z"/>
						<path class="st7" d="M100.4,125.4V140c-9-2.5-18.1-5.1-27.1-7.6c-1.3-0.4-1.9-0.8-2-2.3c-0.5-6.5-1.1-12.9-1.7-19.4
							c-0.1-1,0.1-1.4,1.2-1.4c3.8,0,7.6,0,11.4,0c1,0,1.4,0.3,1.4,1.3c0.2,3,0.6,6,0.8,9c-0.1,0.9,0.5,1.8,1.4,1.9l0,0
							C90.8,122.8,100.4,125.4,100.4,125.4z"/>
						<path class="st5" d="M116.9,102.8c0.5,0,0.9,0.4,0.8,0.9l-1.4,16c-0.1,0.9-0.6,1.6-1.5,1.8c-4.7,1.1-14.4,3.9-14.4,3.9v-22.6
							C105.2,102.9,114,102.8,116.9,102.8z"/>
						<path class="st1" d="M133.6,74.3h-33.2l0.1-14.4h34.2c0.6,0,1,0.5,1,1.1l-1.1,12.5C134.5,73.9,134.1,74.3,133.6,74.3z"/>
						<path class="st4" d="M81.8,88.5c-0.4-4.4-0.8-8.8-1.2-13.2c-0.1-0.8,0.2-1.1,1-1.1c6.3,0,12.5,0.1,18.8,0.1
							c0,4.1,0,8.2,0,12.2c0,1.4-0.5,1.9-1.9,1.9C93,88.4,87.4,88.5,81.8,88.5z"/>
					</g>
				</g>
			</g>
		</g>
	</g>
</g>
</svg>
