<svg id="Layer_1" data-name="Layer 1" xmlns="http://www.w3.org/2000/svg" width="109.67" height="109.67" viewBox="0 0 109.67 109.67">
  <title>instagram icon</title>
  <path d="M109.34,54.73A54.5,54.5,0,1,1,55,.34,54.77,54.77,0,0,1,109.34,54.73ZM34.83,50c-3.23,0-6.19.17-9.13-.05-3.39-.26-4.22,1.29-4.15,4.38.16,7.44-.06,14.88.1,22.32S25.7,88,33.07,88q22.32.2,44.64,0c7.44,0,11.58-4.23,11.81-11.71.16-4.95,0-9.92,0-14.88,0-12.31,0-12.31-12.35-11.35a4.46,4.46,0,0,0-1.31.51C74.45,66,67.19,74.44,55.47,74.43S36.65,66.25,34.83,50Zm-13-7.24c3.67,0,6.64-.18,9.58,0a13.21,13.21,0,0,0,11.39-4.14c6.63-6.65,19-6.4,25.78.36,3.22,3.21,6.46,3.85,10.57,3.79,11.27-.15,11.27-.05,10.41-11.53-.48-6.42-4.29-10.86-10.61-11-15.56-.28-31.14-.24-46.7,0-5.69.08-9.87,3.83-10.34,8.9C21.49,33.37,21.8,37.68,21.8,42.72ZM55.47,66.88A12.71,12.71,0,0,0,68.11,54.29,12.4,12.4,0,0,0,55.72,41.57,12.53,12.53,0,0,0,42.79,54.29,12.82,12.82,0,0,0,55.47,66.88Z" style="fill: #F7C100"/>
  <path d="M34.7,49.93c1.84,16.39,9,24.61,20.77,24.62s19.1-8.48,20.57-24a4.63,4.63,0,0,1,1.32-.51c12.42-1,12.42-1,12.42,11.43,0,5,.11,10,0,15C89.5,84,85.34,88.18,77.85,88.24q-22.45.17-44.91,0c-7.42-.06-11.35-4-11.5-11.49s.07-15-.09-22.45c-.07-3.11.76-4.67,4.17-4.41C28.48,50.1,31.46,49.93,34.7,49.93Z" style="fill: #fff"/>
  <path d="M21.6,42.64c0-5.07-.32-9.4.08-13.66.47-5.11,4.68-8.88,10.4-9,15.66-.22,31.33-.25,47,0,6.35.11,10.2,4.59,10.68,11.05.86,11.54.86,11.44-10.48,11.6-4.13,0-7.4-.59-10.64-3.82-6.81-6.8-19.27-7.05-25.93-.36a13.26,13.26,0,0,1-11.47,4.16C28.28,42.46,25.29,42.64,21.6,42.64Z" style="fill: #fff"/>
  <path d="M55.48,67A12.92,12.92,0,0,1,42.71,54.29a12.62,12.62,0,0,1,13-12.8,12.46,12.46,0,0,1,12.46,12.8A12.8,12.8,0,0,1,55.48,67Z" style="fill: #fff"/>
  <circle cx="78.84" cy="29.84" r="4" style="fill: #F7C100"/>
</svg>
