<svg id="Layer_1" data-name="Layer 1" xmlns="http://www.w3.org/2000/svg" xmlns:xlink="http://www.w3.org/1999/xlink" width="200.82" height="200.82" viewBox="0 0 200.82 200.82">
  <defs>
    <clipPath id="clip-path">
      <circle cx="100.41" cy="100.41" r="100.41" style="fill: none"/>
    </clipPath>
  </defs>
  <title>workIcons</title>
  <g style="clip-path: url(#clip-path)">
    <g style="opacity: 0.75">
      <circle cx="99.62" cy="100.41" r="100.41" style="fill: #3e4e57"/>
    </g>
    <text transform="translate(50.07 183.84) rotate(26.75)" style="font-size: 23.870750427246094px;fill: #fff;font-family: Comfortaa-Bold, Comfortaa;font-weight: 700">J</text>
    <text transform="translate(69.62 192.94) rotate(13.24)" style="font-size: 23.870750427246094px;fill: #fff;font-family: Comfortaa-Bold, Comfortaa;font-weight: 700">A</text>
    <text transform="matrix(1, -0.02, 0.02, 1, 91.37, 197.55)" style="font-size: 23.870750427246094px;fill: #fff;font-family: Comfortaa-Bold, Comfortaa;font-weight: 700">V</text>
    <text transform="matrix(0.97, -0.24, 0.24, 0.97, 114.6, 196.65)" style="font-size: 23.870750427246094px;fill: #fff;font-family: Comfortaa-Bold, Comfortaa;font-weight: 700">A</text>
    <text transform="translate(137.95 189.92) rotate(-28.27)" style="font-size: 23.870750427246094px;fill: #fff;font-family: Comfortaa-Bold, Comfortaa;font-weight: 700">S</text>
    <text transform="translate(158.7 177.78) rotate(-43.21)" style="font-size: 23.870750427246094px;fill: #fff;font-family: Comfortaa-Bold, Comfortaa;font-weight: 700">C</text>
    <text transform="matrix(0.54, -0.84, 0.84, 0.54, 176.85, 159.14)" style="font-size: 23.870750427246094px;fill: #fff;font-family: Comfortaa-Bold, Comfortaa;font-weight: 700">R</text>
    <text transform="translate(187.68 140.17) rotate(-68.41)" style="font-size: 23.870750427246094px;fill: #fff;font-family: Comfortaa-Bold, Comfortaa;font-weight: 700">I</text>
    <text transform="translate(192.6 126.99) rotate(-79.15)" style="font-size: 23.870750427246094px;fill: #fff;font-family: Comfortaa-Bold, Comfortaa;font-weight: 700">P</text>
    <text transform="translate(195.98 104.79) rotate(-92.72)" style="font-size: 23.870750427246094px;fill: #fff;font-family: Comfortaa-Bold, Comfortaa;font-weight: 700">T</text>
    <text transform="matrix(-0.23, -0.97, 0.97, -0.23, 193.85, 82.34)" style="font-size: 23.870750427246094px;fill: #fff;font-family: Comfortaa-Bold, Comfortaa;font-weight: 700"> </text>
    <g>
      <path d="M52,115.14H46.72a.64.64,0,0,0-.59.47l-.5,2.2L45.14,120a.37.37,0,0,0,.37.47h5.28a.63.63,0,0,0,.59-.47l.48-2.19.48-2.19h0a.37.37,0,0,0-.38-.47Z" style="fill: #fdefbf"/>
      <g>
        <path d="M103.07,115.2H98.3a.62.62,0,0,0-.58.47L96,123.51l-1.69,7.84a.63.63,0,0,1-.58.47H90.37c-3.34,0-3-2.31-2.27-5.48a.44.44,0,0,1,0-.1l.07-.39s0-.06,0-.08l.15-.81.16-.87c0-.27.13-.65.18-.89l.77-3.76.77-3.77a.38.38,0,0,0-.39-.47H85a.63.63,0,0,0-.58.47l-1.05,5-1,5h0l-.09.47c-1.22,5.54-.9,10.82,5.7,11H98.41a.63.63,0,0,0,.58-.48l2.23-10.49,2.24-10.49a.38.38,0,0,0-.39-.47Z" style="fill: #fdefbf"/>
        <path d="M50.44,122H45.16a.63.63,0,0,0-.59.47l-.74,3.29L43.09,129c-.06.26-.15.69-.21.94l-.71,3.36-.72,3.35a7.51,7.51,0,0,1-.25.93s-1,2.94-2.64,2.9h-.21l-1.44,0h0a.64.64,0,0,0-.59.46l-.55,2.31-.55,2.3a.37.37,0,0,0,.37.47c.94,0,3,0,4.33,0,4.14,0,6.32-2.3,7.72-8.9l1.64-7.59,1.54-7.11a.37.37,0,0,0-.38-.47Z" style="fill: #fdefbf"/>
        <path d="M147.7,120.19l-.22-.9-.21-.93-.11-.47c-.43-1.66-1.69-2.63-4.43-2.63H130.14a.63.63,0,0,0-.58.47h0l-.19.92-.23,1.09-.07.3-2,9.31-1.88,8.83a1.8,1.8,0,0,0,0,.71c0,.13.54.24.8.24h4a2.48,2.48,0,0,0,.75-.11c.14-.06.35-.58.41-.84l.71-3.5.7-3.5h0l.1-.47.86-4,.76-3.55a.61.61,0,0,1,.58-.47h12.52a.36.36,0,0,0,.37-.47Z" style="fill: #fdefbf"/>
        <path d="M163.83,112h-5a1,1,0,0,0-.75.4l-8.87,13c-.15.22-.32.19-.38-.07l-.65-2.86a.63.63,0,0,0-.59-.47h-5.7a.35.35,0,0,0-.35.46l2.56,9a2.08,2.08,0,0,1,0,.93L143,136.67a.35.35,0,0,0,.36.47H149a.64.64,0,0,0,.6-.47l1.12-4.33a2.68,2.68,0,0,1,.41-.85l14.39-19.1c.16-.21.07-.39-.19-.38Z" style="fill: #fdefbf"/>
        <path d="M118.55,123.22h0a.58.58,0,0,1-.56.5h-7.23a.31.31,0,0,1-.34-.38h0a0,0,0,0,0,0,0s0-.05,0-.12c.69-1.83,2.1-3,4.74-3,3,0,3.55,1.46,3.35,3.09Zm-2.12-8.34c-9.27,0-11.47,5.63-12.7,11.31s-1.13,11.2,8.47,11.2h2.69l6.1,0a.62.62,0,0,0,.58-.47L122,135l.07-.37.47-2.26a.39.39,0,0,0-.39-.48h-8.63c-3.43,0-4.45-.91-4.07-3.59h13.8a.55.55,0,0,0,.5-.36.21.21,0,0,0,0-.12h0c2.05-7.73,1.46-12.93-7.31-12.93Z" style="fill: #fdefbf"/>
        <path d="M72.6,123.19l-.13.46h0l-1,3.69-1,3.69a.69.69,0,0,1-.62.47H64.26c-4.18,0-5.2-3.27-4.18-8.1s3-8,7.13-8.31c5.62-.42,6.75,3.53,5.39,8.1Zm3.78,8s2.6-6.31,3.19-10c.8-4.88-1.64-12-11.07-12s-13.46,6.76-15,14.1.48,13.89,9.81,13.83l7.35,0,6.88,0a.66.66,0,0,0,.61-.47l1.19-4.57a.36.36,0,0,0-.36-.47H76.68c-.23,0-.36-.15-.33-.34a.61.61,0,0,1,0-.11Z" style="fill: #fdefbf"/>
      </g>
    </g>
    <g>
      <path d="M128.51,72.25c-3.51,5-3.07,11.59-.4,17,.07.13.14.25.2.38s.08.16.13.24.05.09.07.14l.14.25.26.44.15.24.29.46.13.2.43.62h0l.07.1.39.52.15.19.36.44a2.09,2.09,0,0,1,.14.17c.17.19.33.38.51.57h0v0l.52.54.16.16.41.4.17.16c.18.18.37.35.56.51h0l.09.08.51.43.21.17.43.33.23.18.47.34.18.12,0,0L136,98l.2.13.72.45.2.11.54.3.3.16.39.2.09,0,.16.08.62.29.13.06.72.29.17.07c.23.09.45.18.68.25l.09,0,.75.25.19.06c.26.07.51.17.78.22,16.95,3.09,21.87-10.19,21.87-10.19-4.13,5.39-11.47,6.81-18.43,5.23-.26-.06-.52-.14-.77-.22l-.2-.06-.74-.24-.11,0-.66-.24-.18-.08-.71-.29-.15-.07-.6-.27-.17-.09c-.16-.07-.31-.15-.46-.23l-.31-.17c-.19-.1-.38-.2-.56-.31l-.19-.1-.72-.45-.2-.13-.51-.34-.17-.12-.49-.35-.21-.16-.44-.35-.2-.15-.55-.46-.06,0-.57-.53-.16-.15-.42-.41-.16-.16-.51-.54s0,0,0,0c-.18-.19-.35-.38-.52-.58s-.09-.11-.13-.16-.25-.31-.37-.46a2.09,2.09,0,0,1-.14-.17l-.43-.57c-3.86-5.27-5.25-12.53-2.16-18.5" style="fill: #fbe080"/>
      <path d="M139.39,68c-2.54,3.65-2.4,8.53-.42,12.39a16.22,16.22,0,0,0,1.12,1.87,9.31,9.31,0,0,0,1.3,1.63l.57.59.15.15.58.54,0,0h0l.68.56.15.12c.24.18.47.36.71.52l0,0,.33.21.15.1.53.32.07,0,.47.26.16.08.33.17.05,0,.68.32.15.06.55.23.24.09.51.17.23.08a6.84,6.84,0,0,0,.74.21c13.09,2.17,16.11-7.91,16.11-7.91-2.72,3.93-8,5.8-13.63,4.34l-.74-.22-.22-.07-.52-.18-.23-.09-.56-.22-.15-.06-.68-.32-.35-.18-.19-.1-.44-.24-.1-.06-.53-.32-.15-.11-.34-.22c-.25-.17-.48-.34-.71-.52l-.16-.12a15.87,15.87,0,0,1-5.35-7.62,11.81,11.81,0,0,1,.93-9.48" style="fill: #fbe080"/>
      <path d="M148.54,64.84a7.63,7.63,0,0,0-.61,7.36,10.43,10.43,0,0,0,5.95,5.56l.33.11.14,0a3.64,3.64,0,0,0,.47.14c7.22,1.39,9.18-3.71,9.7-4.46-1.71,2.47-4.6,3.06-8.14,2.2a6,6,0,0,1-.85-.26,9.1,9.1,0,0,1-1-.42A10.57,10.57,0,0,1,152.72,74c-3.16-2.4-5.13-7-3.06-10.72" style="fill: #fbe080"/>
    </g>
    <g id="Layer_1-2" data-name="Layer 1">
      <g>
        <path d="M36.35,11.66H53.64V60.13c0,21.84-10.46,29.46-27.19,29.46a45.27,45.27,0,0,1-12.74-1.82l1.93-14a28.47,28.47,0,0,0,8.88,1.37c7.28,0,11.83-3.3,11.83-15.14Z" style="fill: #f7c100"/>
        <path d="M68.66,70.59a43.8,43.8,0,0,0,19.23,4.78c8,0,12.17-3.3,12.17-8.42,0-4.66-3.64-7.5-12.86-10.69C74.46,51.71,66,44.65,66,33.39c0-13.08,11-23,29-23,8.76,0,15,1.71,19.57,3.87l-3.87,13.88a35.8,35.8,0,0,0-15.92-3.64c-7.51,0-11.15,3.52-11.15,7.39,0,4.89,4.21,7.06,14.22,10.92,13.54,5,19.79,12.06,19.79,23,0,12.85-9.78,23.78-30.83,23.78-8.76,0-17.41-2.39-21.73-4.78Z" style="fill: #f7c100"/>
      </g>
    </g>
  </g>
</svg>
