<?xml version="1.0" encoding="utf-8"?>
<!-- Generator: Adobe Illustrator 24.2.3, SVG Export Plug-In . SVG Version: 6.00 Build 0)  -->
<svg version="1.1" id="Layer_1" xmlns="http://www.w3.org/2000/svg" xmlns:xlink="http://www.w3.org/1999/xlink" x="0px" y="0px"
	 viewBox="0 0 200.8 200.8" style="enable-background:new 0 0 200.8 200.8;" xml:space="preserve">
<style type="text/css">
	.st0{clip-path:url(#SVGID_2_);}
	.st1{opacity:0.75;}
	.st2{fill:#FFFFFF;}
	.st3{enable-background:new    ;}
	.st4{fill:#3E4E57;}
	.st5{fill:#CFD0E9;}
	.st6{fill:#FBE080;}
	.st7{opacity:0.5;}
	.st8{fill:#F7C100;}
</style>
<g>
	<g>
		<defs>
			<circle id="SVGID_1_" cx="100.4" cy="100.4" r="100.4"/>
		</defs>
		<clipPath id="SVGID_2_">
			<use xlink:href="#SVGID_1_"  style="overflow:visible;"/>
		</clipPath>
		<g class="st0">
			<g class="st1">
				<circle class="st2" cx="99.6" cy="100.4" r="100.4"/>
			</g>
			<g>
				<g class="st3">
					<path class="st4" d="M61.8,186.9c-0.8,0.6-1.7,0.9-2.7,0.9s-2-0.2-3-0.7s-1.8-1.2-2.3-2c-0.6-0.8-0.9-1.7-0.9-2.7s0.2-2,0.7-3
						c0.2-0.3,0.4-0.5,0.7-0.6s0.6-0.1,0.9,0.1c0.3,0.2,0.5,0.4,0.6,0.7s0.1,0.6-0.1,1c-0.5,0.9-0.6,1.8-0.3,2.6
						c0.2,0.9,0.8,1.5,1.6,1.9c0.9,0.4,1.7,0.5,2.5,0.2s1.5-0.9,1.9-1.8l5.4-10.6c0.2-0.3,0.4-0.5,0.7-0.6c0.3-0.1,0.6-0.1,0.9,0.1
						c0.3,0.2,0.5,0.4,0.7,0.7c0.1,0.3,0.1,0.6-0.1,1l-5.4,10.6C63.3,185.6,62.6,186.4,61.8,186.9z"/>
				</g>
				<g class="st3">
					<path class="st4" d="M85.9,195.5c-0.1,0.3-0.3,0.6-0.5,0.8s-0.6,0.2-0.9,0.1c-0.2-0.1-0.4-0.2-0.6-0.4s-0.3-0.4-0.3-0.7
						l-0.5-3.6l-8.3-2l-2.1,2.9c-0.2,0.2-0.4,0.4-0.6,0.4c-0.2,0.1-0.5,0.1-0.7,0c-0.3-0.1-0.6-0.3-0.8-0.6
						c-0.2-0.3-0.2-0.6-0.1-0.9c0-0.2,0.1-0.3,0.2-0.5l10.2-14.1c0.4-0.5,0.8-0.7,1.3-0.5c0.6,0.1,0.9,0.5,0.9,1.1l2.9,17.2
						C85.9,195.2,85.9,195.4,85.9,195.5z M82.6,189.7l-1.4-9.1l-5.3,7.5L82.6,189.7z"/>
				</g>
				<g class="st3">
					<path class="st4" d="M107.8,178.9c0.2,0.2,0.3,0.4,0.3,0.7c0,0.2,0,0.4-0.1,0.6l-6.7,16.3c-0.2,0.5-0.6,0.8-1.1,0.8
						s-0.9-0.2-1.1-0.8l-7.3-15.9c-0.1-0.3-0.2-0.6-0.2-0.8c0-0.3,0.1-0.6,0.3-0.8s0.5-0.3,0.8-0.3c0.6,0,0.9,0.2,1.2,0.7l6.3,14.3
						l5.8-14.5c0.1-0.3,0.2-0.5,0.4-0.6c0.2-0.1,0.4-0.2,0.7-0.2C107.3,178.6,107.6,178.7,107.8,178.9z"/>
				</g>
				<g class="st3">
					<path class="st4" d="M130.3,191.5c0.1,0.3,0,0.6-0.1,0.9c-0.2,0.3-0.4,0.5-0.8,0.6c-0.2,0.1-0.5,0-0.7,0
						c-0.2-0.1-0.4-0.2-0.6-0.4l-2.1-2.9l-8.3,2.1l-0.5,3.6c-0.1,0.3-0.2,0.5-0.3,0.7c-0.2,0.2-0.4,0.3-0.6,0.4
						c-0.3,0.1-0.7,0-0.9-0.2c-0.3-0.2-0.5-0.4-0.5-0.8c0-0.2,0-0.3,0-0.6l2.7-17.1c0.1-0.6,0.4-1,0.9-1.1c0.6-0.1,1,0,1.3,0.5
						l10.4,14C130.1,191.2,130.2,191.4,130.3,191.5z M124.7,187.8l-5.4-7.4l-1.3,9.1L124.7,187.8z"/>
				</g>
				<g class="st3">
					<path class="st4" d="M140.1,168.3c1.1,0,2.2,0.4,3.2,1c0.3,0.2,0.5,0.4,0.7,0.6c0.2,0.3,0.2,0.6,0,1c-0.1,0.2-0.3,0.3-0.5,0.4
						c-0.2,0.1-0.4,0.2-0.7,0.2s-0.5-0.1-0.7-0.2c-0.7-0.4-1.4-0.7-2.2-0.7c-0.7,0-1.6,0.2-2.4,0.7c-1.1,0.6-1.8,1.2-2.3,2
						c-0.4,0.8-0.4,1.5,0,2.3c0.4,0.7,1,1.2,1.9,1.4s2.1-0.1,3.7-0.7c1.8-0.7,3.3-0.9,4.7-0.6c1.4,0.4,2.4,1.2,3.2,2.6
						c0.5,1,0.7,2,0.6,3s-0.6,1.9-1.3,2.8c-0.7,0.8-1.6,1.5-2.6,2.1c-1.4,0.7-2.8,1.1-4.2,1.1s-2.6-0.4-3.6-1.2
						c-0.2-0.1-0.3-0.3-0.3-0.4c-0.1-0.2-0.1-0.4-0.1-0.7c0.1-0.2,0.2-0.5,0.5-0.7c0,0,0.1-0.1,0.2-0.1c0.2-0.1,0.5-0.2,0.7-0.1
						s0.5,0.1,0.7,0.3c0.5,0.4,1.3,0.6,2.2,0.6s1.9-0.3,2.8-0.8c1.1-0.6,1.8-1.3,2.3-2.2s0.5-1.7,0-2.6c-0.4-0.8-1.1-1.3-2-1.6
						c-0.9-0.2-2-0.1-3.4,0.5c-1.8,0.8-3.5,1-4.9,0.7c-1.5-0.3-2.5-1.1-3.2-2.4c-0.5-0.9-0.6-1.8-0.5-2.7c0.2-0.9,0.6-1.8,1.3-2.6
						s1.6-1.5,2.7-2.1C137.8,168.6,139,168.3,140.1,168.3z"/>
				</g>
				<g class="st3">
					<path class="st4" d="M156.2,154.9c0.9-0.4,1.9-0.6,3-0.7c0.2,0,0.4,0,0.6,0.1c0.2,0.1,0.3,0.2,0.4,0.3c0.2,0.2,0.3,0.5,0.3,0.8
						s-0.1,0.6-0.4,0.8s-0.5,0.3-0.8,0.3c-0.9,0-1.6,0.2-2.2,0.4c-0.6,0.2-1.3,0.7-2,1.4c-0.9,0.8-1.5,1.9-1.8,3.1s-0.3,2.4,0,3.6
						c0.3,1.2,0.9,2.3,1.8,3.3c0.9,1,2,1.7,3.2,2.1s2.4,0.5,3.6,0.2s2.3-0.8,3.2-1.6c1.1-1,1.8-2.4,2.1-4.2c0.1-0.3,0.2-0.6,0.4-0.7
						c0.2-0.2,0.5-0.3,0.8-0.3s0.6,0.2,0.8,0.4s0.3,0.5,0.3,0.9c-0.3,2.2-1.3,4-2.8,5.5c-1.2,1.2-2.7,1.9-4.3,2.3
						c-1.6,0.4-3.2,0.3-4.8-0.2s-3-1.4-4.2-2.7s-2-2.7-2.4-4.3s-0.4-3.2,0.1-4.8c0.4-1.6,1.3-3,2.5-4.1
						C154.5,155.8,155.4,155.2,156.2,154.9z"/>
				</g>
				<g class="st3">
					<path class="st4" d="M183.9,146.2c0.3,0.2,0.4,0.4,0.5,0.7s0,0.6-0.2,0.9c-0.2,0.4-0.6,0.6-1.1,0.6l-7.8-0.1l-0.2,0.4l-1.6,2.6
						l5,3.2c0.3,0.2,0.5,0.4,0.6,0.8s0,0.6-0.2,0.9c-0.2,0.3-0.4,0.5-0.8,0.5c-0.3,0.1-0.6,0-0.9-0.2l-13.6-8.7
						c-0.3-0.2-0.5-0.5-0.6-0.8s0-0.6,0.2-0.9l2.3-3.6c0.6-1,1.4-1.7,2.3-2.3c0.9-0.5,1.9-0.8,2.9-0.7s2,0.4,3,1
						c0.9,0.6,1.6,1.4,2.1,2.3c0.4,1,0.6,2,0.4,3l6.9,0.1C183.4,145.9,183.6,146,183.9,146.2z M173.2,147.4c0.6-0.9,0.8-1.8,0.7-2.7
						s-0.6-1.6-1.4-2.2c-0.9-0.6-1.8-0.7-2.7-0.5s-1.7,0.8-2.3,1.7l-1.6,2.6l5.8,3.7L173.2,147.4z"/>
				</g>
				<g class="st3">
					<path class="st4" d="M171.7,130.9c-0.1-0.3-0.1-0.6,0-0.9c0.1-0.3,0.4-0.6,0.7-0.7c0.3-0.1,0.6-0.1,1,0l15,5.9
						c0.3,0.1,0.6,0.3,0.7,0.6c0.1,0.3,0.1,0.6,0,1c-0.1,0.3-0.3,0.6-0.7,0.7c-0.3,0.1-0.6,0.1-1,0l-15-5.9
						C172,131.4,171.8,131.2,171.7,130.9z"/>
				</g>
				<g class="st3">
					<path class="st4" d="M193.1,122.5c0.2,0.3,0.3,0.6,0.2,0.9s-0.2,0.6-0.5,0.8c-0.3,0.2-0.6,0.3-0.9,0.2l-15.9-3
						c-0.4-0.1-0.6-0.2-0.8-0.5s-0.2-0.6-0.2-0.9l0.9-4.7c0.2-1.2,0.7-2.1,1.4-3c0.7-0.8,1.5-1.4,2.6-1.7c1-0.3,2.1-0.4,3.3-0.2
						c1.1,0.2,2.1,0.7,2.9,1.3c0.8,0.7,1.4,1.5,1.7,2.5s0.4,2.1,0.2,3.2l-0.7,3.5l5.1,1C192.6,122,192.9,122.2,193.1,122.5z
						 M185.1,114.3c-0.5-0.8-1.4-1.3-2.4-1.5c-1.1-0.2-2.1,0-2.9,0.5c-0.9,0.6-1.4,1.4-1.6,2.4l-0.7,3.5l7.5,1.4l0.7-3.5
						C185.8,116,185.6,115.1,185.1,114.3z"/>
				</g>
				<g class="st3">
					<path class="st4" d="M177,90.6c0.2-0.2,0.5-0.3,0.8-0.4c0.3,0,0.6,0.1,0.8,0.3c0.2,0.2,0.3,0.5,0.4,0.8l0.2,5.1l15.1-0.7
						c0.4,0,0.6,0.1,0.9,0.3c0.3,0.2,0.4,0.5,0.4,0.9s-0.1,0.7-0.3,0.9c-0.2,0.2-0.5,0.4-0.9,0.4l-15.1,0.7l0.2,5.2
						c0,0.3-0.1,0.6-0.3,0.8c-0.2,0.2-0.5,0.3-0.8,0.4c-0.3,0-0.6-0.1-0.8-0.3c-0.2-0.2-0.3-0.5-0.4-0.8l-0.6-12.8
						C176.7,91.1,176.8,90.8,177,90.6z"/>
				</g>
			</g>
			<g>
				<path class="st5" d="M52,115.1h-5.3c-0.3,0-0.5,0.2-0.6,0.5l-0.5,2.2l-0.5,2.2c-0.1,0.2,0.1,0.4,0.3,0.5h0.1h5.3
					c0.3,0,0.5-0.2,0.6-0.5l0.5-2.2l0.5-2.2l0,0C52.4,115.4,52.3,115.2,52,115.1C52,115.2,52,115.1,52,115.1L52,115.1z"/>
				<g>
					<path class="st5" d="M103.1,115.2h-4.8c-0.3,0-0.5,0.2-0.6,0.5l-1.7,7.8l-1.7,7.8c-0.1,0.3-0.3,0.5-0.6,0.5h-3.4
						c-3.3,0-3-2.3-2.3-5.5v-0.1l0.1-0.4v-0.1l0.2-0.8l0.2-0.9c0-0.3,0.1-0.7,0.2-0.9l0.8-3.8l0.8-3.8c0.1-0.2-0.1-0.4-0.3-0.5h-0.1
						H85c-0.3,0-0.5,0.2-0.6,0.5l-1.1,5l-1,5l0,0l-0.1,0.5c-1.2,5.5-0.9,10.8,5.7,11h10.4c0.3,0,0.5-0.2,0.6-0.5l2.2-10.5l2.2-10.5
						c0.1-0.2-0.1-0.4-0.3-0.5C103.1,115.2,103.1,115.2,103.1,115.2L103.1,115.2z"/>
					<path class="st5" d="M50.4,122h-5.3c-0.3,0-0.5,0.2-0.6,0.5l-0.7,3.3l-0.7,3.2c-0.1,0.3-0.2,0.7-0.2,0.9l-0.7,3.4l-0.7,3.4
						c-0.1,0.3-0.1,0.6-0.2,0.9c0,0-1,2.9-2.6,2.9h-0.2h-1.4l0,0c-0.3,0-0.5,0.2-0.6,0.5l-0.5,2.3l-0.5,2.3
						c-0.1,0.2,0.1,0.4,0.3,0.5h0.1c0.9,0,3,0,4.3,0c4.1,0,6.3-2.3,7.7-8.9l1.6-7.6l1.5-7.1c0.1-0.2-0.1-0.4-0.3-0.5
						C50.5,122,50.5,121.9,50.4,122L50.4,122z"/>
					<path class="st5" d="M147.7,120.2l-0.2-0.9l-0.2-0.9l-0.1-0.5c-0.4-1.7-1.7-2.6-4.4-2.6h-12.6c-0.3,0-0.5,0.2-0.6,0.5l0,0
						l-0.2,0.9l-0.2,1.1l-0.1,0.3l-2,9.3l-1.9,8.8c0,0.2,0,0.5,0,0.7c0,0.1,0.5,0.2,0.8,0.2h4c0.3,0,0.5,0,0.8-0.1
						c0.1-0.1,0.4-0.6,0.4-0.8l0.7-3.5l0.7-3.5l0,0l0.1-0.5l0.9-4l0.8-3.6c0.1-0.3,0.3-0.5,0.6-0.5h12.5c0.2,0,0.4-0.1,0.4-0.3
						C147.8,120.3,147.8,120.3,147.7,120.2L147.7,120.2z"/>
					<path class="st5" d="M163.8,112h-5c-0.3,0-0.6,0.2-0.8,0.4l-8.9,13c-0.1,0.2-0.3,0.2-0.4-0.1l-0.6-2.9
						c-0.1-0.3-0.3-0.5-0.6-0.5h-5.7c-0.2,0-0.4,0.1-0.4,0.3v0.1l2.6,9c0.1,0.3,0.1,0.6,0,0.9l-1.1,4.3c-0.1,0.2,0,0.4,0.2,0.4
						c0,0,0.1,0,0.2,0h5.6c0.3,0,0.5-0.2,0.6-0.5l1.1-4.3c0.1-0.3,0.2-0.6,0.4-0.9l14.4-19.1c0.2-0.2,0.1-0.4-0.2-0.4L163.8,112z"/>
					<path class="st5" d="M118.6,123.2L118.6,123.2c0,0.3-0.3,0.5-0.6,0.5h-7.2c-0.2,0-0.3-0.1-0.3-0.3v-0.1l0,0l0,0v-0.1
						c0.7-1.8,2.1-3,4.7-3C118.2,120.2,118.7,121.7,118.6,123.2L118.6,123.2z M116.4,114.9c-9.3,0-11.5,5.6-12.7,11.3
						s-1.1,11.2,8.5,11.2h2.7h6.1c0.3,0,0.5-0.2,0.6-0.5l0.4-1.9l0.1-0.4l0.5-2.3c0-0.2-0.1-0.4-0.3-0.5h-0.1h-8.6
						c-3.4,0-4.4-0.9-4.1-3.6h13.8c0.2,0,0.4-0.1,0.5-0.4v-0.1l0,0C125.8,120.1,125.2,114.9,116.4,114.9L116.4,114.9z"/>
					<path class="st5" d="M72.6,123.2l-0.1,0.5l0,0l-1,3.7l-1,3.7c-0.1,0.3-0.3,0.5-0.6,0.5h-5.6c-4.2,0-5.2-3.3-4.2-8.1
						s3-8,7.1-8.3C72.8,114.7,74,118.6,72.6,123.2z M76.4,131.2c0,0,2.6-6.3,3.2-10c0.8-4.9-1.6-12-11.1-12s-13.5,6.8-15,14.1
						s0.5,13.9,9.8,13.8h7.4h6.9c0.3,0,0.5-0.2,0.6-0.5l1.2-4.6c0.1-0.2,0-0.4-0.2-0.5h-0.1h-2.3C76.4,131.6,76.3,131.5,76.4,131.2
						C76.3,131.2,76.3,131.2,76.4,131.2L76.4,131.2z"/>
				</g>
			</g>
			<g>
				<path class="st6" d="M128.5,72.2c-3.5,5-3.1,11.6-0.4,17c0.1,0.1,0.1,0.2,0.2,0.4s0.1,0.2,0.1,0.2l0.1,0.1l0.1,0.2l0.3,0.4
					l0.1,0.2l0.3,0.5l0.1,0.2l0.4,0.6l0,0l0.1,0.1l0.4,0.5l0.1,0.2l0.4,0.4c0,0.1,0.1,0.1,0.1,0.2c0.2,0.2,0.3,0.4,0.5,0.6l0,0l0,0
					l0.5,0.5l0.2,0.2l0.4,0.4l0.2,0.2c0.2,0.2,0.4,0.3,0.6,0.5l0,0l0.1,0.1l0.5,0.4l0.2,0.2l0.4,0.3l0.2,0.2l0.5,0.3l0.2,0.1l0,0
					L136,98l0.2,0.1l0.7,0.4l0.2,0.1l0.5,0.3l0.3,0.2l0.4,0.2h0.1l0.2,0.1l0.6,0.3l0.1,0.1l0.7,0.3l0.2,0.1c0.2,0.1,0.4,0.2,0.7,0.2
					h0.1l0.8,0.2l0.2,0.1c0.3,0.1,0.5,0.2,0.8,0.2c16.9,3.1,21.9-10.2,21.9-10.2c-4.1,5.4-11.5,6.8-18.4,5.2
					c-0.3-0.1-0.5-0.1-0.8-0.2l-0.2-0.1l-0.7-0.2h-0.1l-0.7-0.2l-0.2-0.1l-0.7-0.3l-0.1-0.1l-0.6-0.3l-0.2-0.1
					c-0.2-0.1-0.3-0.2-0.5-0.2l-0.3-0.2c-0.2-0.1-0.4-0.2-0.6-0.3l-0.2-0.1l-0.7-0.4l-0.2-0.1l-0.5-0.3l-0.2-0.1l-0.5-0.3l-0.2-0.2
					l-0.4-0.3l-0.2-0.2l-0.6-0.5h-0.1l-0.6-0.5l-0.2-0.2l-0.4-0.4l-0.2-0.2l-0.5-0.5l0,0c-0.2-0.2-0.4-0.4-0.5-0.6s-0.1-0.1-0.1-0.2
					s-0.2-0.3-0.4-0.5c0-0.1-0.1-0.1-0.1-0.2l-0.4-0.6c-3.9-5.3-5.2-12.5-2.2-18.5"/>
				<path class="st6" d="M139.4,68c-2.5,3.7-2.4,8.5-0.4,12.4c0.3,0.6,0.7,1.3,1.1,1.9c0.4,0.6,0.8,1.1,1.3,1.6l0.6,0.6l0.1,0.2
					l0.6,0.5l0,0l0,0l0.7,0.6l0.1,0.1c0.2,0.2,0.5,0.4,0.7,0.5l0,0l0.3,0.2l0.1,0.1l0.5,0.3h0.1l0.5,0.3l0.2,0.1l0.3,0.2h0.1
					l0.7,0.3l0.1,0.1l0.6,0.2l0.2,0.1l0.5,0.2l0.2,0.1c0.2,0.1,0.5,0.2,0.7,0.2c13.1,2.2,16.1-7.9,16.1-7.9c-2.7,3.9-8,5.8-13.6,4.3
					l-0.7-0.2l-0.2-0.1l-0.5-0.2l-0.2-0.1l-0.6-0.2l-0.1-0.1l-0.7-0.3l-0.4-0.2l-0.2-0.1l-0.4-0.2l-0.1-0.1l-0.5-0.3l-0.1-0.1
					l-0.3-0.2c-0.2-0.2-0.5-0.3-0.7-0.5l-0.2-0.1c-2.5-1.9-4.4-4.6-5.4-7.6c-1-3.2-0.7-6.6,0.9-9.5"/>
				<path class="st6" d="M148.5,64.8c-1.5,2.2-1.7,5-0.6,7.4c1.1,2.6,3.3,4.6,5.9,5.6l0.3,0.1h0.1c0.2,0.1,0.3,0.1,0.5,0.1
					c7.2,1.4,9.2-3.7,9.7-4.5c-1.7,2.5-4.6,3.1-8.1,2.2c-0.3-0.1-0.6-0.2-0.9-0.3c-0.3-0.1-0.7-0.3-1-0.4c-0.6-0.3-1.2-0.7-1.8-1.1
					c-3.2-2.4-5.1-7-3.1-10.7"/>
			</g>
			<g id="Layer_1-2" class="st7">
				<g>
					<path class="st8" d="M36.3,11.7h17.3v48.5c0,21.8-10.5,29.5-27.2,29.5c-4.3,0-8.6-0.6-12.7-1.8l1.9-14c2.9,0.9,5.9,1.4,8.9,1.4
						c7.3,0,11.8-3.3,11.8-15.1C36.3,60.2,36.3,11.7,36.3,11.7z"/>
					<path class="st8" d="M68.7,70.6c6,3,12.5,4.7,19.2,4.8c8,0,12.2-3.3,12.2-8.4c0-4.7-3.6-7.5-12.9-10.7
						C74.5,51.7,66,44.7,66,33.4c0-13.1,11-23,29-23c8.8,0,15,1.7,19.6,3.9l-3.9,13.9c-5-2.4-10.4-3.7-15.9-3.6
						c-7.5,0-11.2,3.5-11.2,7.4c0,4.9,4.2,7.1,14.2,10.9c13.5,5,19.8,12.1,19.8,23c0,12.8-9.8,23.8-30.8,23.8
						c-8.8,0-17.4-2.4-21.7-4.8L68.7,70.6z"/>
				</g>
			</g>
		</g>
	</g>
</g>
</svg>
