<?xml version="1.0" encoding="utf-8"?>
<!-- Generator: Adobe Illustrator 24.0.3, SVG Export Plug-In . SVG Version: 6.00 Build 0)  -->
<svg version="1.1" id="Layer_1" xmlns="http://www.w3.org/2000/svg" xmlns:xlink="http://www.w3.org/1999/xlink" x="0px" y="0px"
	 viewBox="0 0 109.7 109.7" style="enable-background:new 0 0 109.7 109.7;" xml:space="preserve">
<style type="text/css">
	.st0{fill:#3E4E57;}
	.st1{fill:#FFFFFF;}
	.st2{fill:#657179;}
</style>
<title>Linkedin Icon</title>
<g>
	<path class="st0" d="M54.8,0.3c30.1,0.1,54.5,24.5,54.6,54.7c-0.1,30.1-24.6,54.4-54.7,54.3S0.3,84.8,0.3,54.7
		C0.4,24.7,24.7,0.4,54.8,0.3z M91,88.8c0-9.3,0-18,0-26.7c0.1-2.6-0.1-5.3-0.5-7.9c-1.7-10.4-9.9-16.8-19.8-14.8
		c-4.4,0.9-8.4,3.6-12.6,5.4l-0.9-4.8c-2.9,0-5.7,0.2-8.4,0c-3.7-0.3-4.9,0.9-4.8,4.7c0.3,12.9,0.3,25.8,0.4,38.7
		c0,1.8,0.2,3.5,0.2,5.2h15.2c0-8.7,0-17.1,0-25.5c0-2,0.2-3.9,0.7-5.8c1.2-3.7,3.8-5.6,7.9-5.4s5.9,2.8,6.5,6.3
		c0.4,3,0.5,5.9,0.4,8.9c0,7.2,0,14.4,0,21.8L91,88.8z M20.5,88.6h15.2V40.1c-4,0-7.8,0.1-11.5,0c-2.8-0.1-3.8,1.1-3.7,3.8
		c0.1,7.8,0,15.5,0,23.3L20.5,88.6z M27.9,34.5c4.7,0.1,8.2-2.9,8.4-7.2c0.3-4.3-3-7.9-7.3-8.2c-0.2,0-0.5,0-0.7,0
		c-4.4-0.2-8.1,3.2-8.3,7.5c0,0,0,0,0,0c0,4.3,3.4,7.9,7.8,7.9C27.8,34.5,27.8,34.5,27.9,34.5z"/>
	<path class="st1" d="M91,88.8H75.6c0-7.3,0-14.6,0-21.8c0.1-3,0-5.9-0.4-8.9c-0.6-3.5-2.4-6.1-6.5-6.3s-6.7,1.7-7.9,5.4
		c-0.5,1.9-0.8,3.9-0.7,5.8c-0.1,8.4,0,16.8,0,25.5H44.8c-0.1-1.7-0.2-3.5-0.2-5.2c-0.1-12.9-0.1-25.8-0.4-38.7
		C44.1,41,45.3,39.7,49,40c2.8,0.2,5.5,0,8.4,0l0.9,4.8c4.1-1.8,8.2-4.5,12.6-5.4c9.9-2,18,4.4,19.8,14.8c0.3,2.6,0.5,5.3,0.4,8
		C91.1,70.8,91,79.6,91,88.8z"/>
	<path class="st1" d="M20.5,88.6V67.2c0-7.8,0.1-15.5,0-23.3c0-2.7,0.9-3.9,3.7-3.8c3.8,0.1,7.5,0,11.5,0v48.6H20.5z"/>
	<path class="st1" d="M27.9,34.5c-4.3,0-7.9-3.5-7.9-7.8c0,0,0-0.1,0-0.1c0.2-4.4,3.9-7.7,8.2-7.5c4.3-0.2,7.9,3.2,8,7.5
		c0,0.2,0,0.5,0,0.7C36.1,31.6,32.6,34.6,27.9,34.5z"/>
</g>
<g>
	<path class="st2" d="M54.8,0.3c30.1,0.1,54.5,24.5,54.6,54.7c-0.1,30.1-24.6,54.4-54.7,54.3S0.3,84.8,0.3,54.7
		C0.4,24.7,24.7,0.4,54.8,0.3z M91,88.8c0-9.3,0-18,0-26.7c0.1-2.6-0.1-5.3-0.5-7.9c-1.7-10.4-9.9-16.8-19.8-14.8
		c-4.4,0.9-8.4,3.6-12.6,5.4l-0.9-4.8c-2.9,0-5.7,0.2-8.4,0c-3.7-0.3-4.9,0.9-4.8,4.7c0.3,12.9,0.3,25.8,0.4,38.7
		c0,1.8,0.2,3.5,0.2,5.2h15.2c0-8.7,0-17.1,0-25.5c0-2,0.2-3.9,0.7-5.8c1.2-3.7,3.8-5.6,7.9-5.4s5.9,2.8,6.5,6.3
		c0.4,3,0.5,5.9,0.4,8.9c0,7.2,0,14.4,0,21.8L91,88.8z M20.5,88.6h15.2V40.1c-4,0-7.8,0.1-11.5,0c-2.8-0.1-3.8,1.1-3.7,3.8
		c0.1,7.8,0,15.5,0,23.3L20.5,88.6z M27.9,34.5c4.7,0.1,8.2-2.9,8.4-7.2c0.3-4.3-3-7.9-7.3-8.2c-0.2,0-0.5,0-0.7,0
		c-4.4-0.2-8.1,3.2-8.3,7.5c0,0,0,0,0,0c0,4.3,3.4,7.9,7.8,7.9C27.8,34.5,27.8,34.5,27.9,34.5z"/>
	<path class="st1" d="M91,88.8H75.6c0-7.3,0-14.6,0-21.8c0.1-3,0-5.9-0.4-8.9c-0.6-3.5-2.4-6.1-6.5-6.3s-6.7,1.7-7.9,5.4
		c-0.5,1.9-0.8,3.9-0.7,5.8c-0.1,8.4,0,16.8,0,25.5H44.8c-0.1-1.7-0.2-3.5-0.2-5.2c-0.1-12.9-0.1-25.8-0.4-38.7
		C44.1,41,45.3,39.7,49,40c2.8,0.2,5.5,0,8.4,0l0.9,4.8c4.1-1.8,8.2-4.5,12.6-5.4c9.9-2,18,4.4,19.8,14.8c0.3,2.6,0.5,5.3,0.4,8
		C91.1,70.8,91,79.6,91,88.8z"/>
	<path class="st1" d="M20.5,88.6V67.2c0-7.8,0.1-15.5,0-23.3c0-2.7,0.9-3.9,3.7-3.8c3.8,0.1,7.5,0,11.5,0v48.6H20.5z"/>
	<path class="st1" d="M27.9,34.5c-4.3,0-7.9-3.5-7.9-7.8c0,0,0-0.1,0-0.1c0.2-4.4,3.9-7.7,8.2-7.5c4.3-0.2,7.9,3.2,8,7.5
		c0,0.2,0,0.5,0,0.7C36.1,31.6,32.6,34.6,27.9,34.5z"/>
</g>
</svg>
