<svg id="Layer_1" data-name="Layer 1" xmlns="http://www.w3.org/2000/svg" width="200" height="200" viewBox="0 0 200 200">
  <title>positive</title>
  <g>
    <g>
      <rect x="-21.67" y="-23.8" width="243.19" height="245.5" style="fill: #cfd0e9"/>
      <path d="M220.94-23.22V221.12h-242V-23.22h242m1.16-1.16H-22.25V222.28H222.1V-24.38Z"/>
    </g>
    <g>
      <path d="M162.3,37.44a10.38,10.38,0,0,0,9.61,10.35V63.38a10.38,10.38,0,0,0,0,20.71V99.66a10.38,10.38,0,0,0,0,20.71v15.56a10.38,10.38,0,0,0,0,20.76v16.89H155.68a10.39,10.39,0,0,0-20.77,0H119.38c0-.15,0-.3,0-.45a10.39,10.39,0,0,0-20.78,0,3.39,3.39,0,0,0,0,.45H83.09c0-.15,0-.3,0-.45a10.39,10.39,0,1,0-20.77,0c0,.15,0,.3,0,.45H46.79c0-.15,0-.3,0-.45a10.38,10.38,0,1,0-20.76,0c0,.15,0,.3,0,.45H10V156.65A10.39,10.39,0,0,0,10,136V120.4a10.39,10.39,0,0,0,0-20.76V84.11a10.39,10.39,0,0,0,0-20.76V47.81a10.38,10.38,0,0,0,0-20.74V11.66H26.17a10.38,10.38,0,0,0,20.51,0H62.45a10.39,10.39,0,0,0,20.53,0H98.74a10.39,10.39,0,0,0,20.52,0H135a10.38,10.38,0,0,0,20.65,0h16.29V27.09A10.38,10.38,0,0,0,162.3,37.44Z" style="fill: #fff"/>
      <rect x="31.06" y="32.73" width="119.78" height="119.78" style="fill: #cfd0e9"/>
    </g>
    <g>
      <path d="M86.12,105.67a108.14,108.14,0,0,1-21.36-38.9,12.14,12.14,0,0,1-.31-5.65h0a4.55,4.55,0,0,1,8.32-1.64c3.87,6.1,11.53,24.83,13.87,31.67A2.26,2.26,0,0,1,82.57,93c-3-5-9.21-18.81-11.19-24.57" style="fill: none;stroke: #fff;stroke-linecap: round;stroke-linejoin: round;stroke-width: 3.4740768671035767px"/>
      <g>
        <path d="M91.53,128.49a23.05,23.05,0,0,1-25.17-6.91l-.41-.49" style="fill: none;stroke: #fff;stroke-linecap: round;stroke-linejoin: round;stroke-width: 3.489131200194359px"/>
        <path d="M62.83,117.25A134.21,134.21,0,0,1,40.27,73.91a36,36,0,0,1-1-16.48,27.64,27.64,0,0,1,50.7-10c3.28,5.19,7.53,14.64,11,22.93" style="fill: none;stroke: #fff;stroke-linecap: round;stroke-linejoin: round;stroke-width: 3.489131200194359px;stroke-dasharray: 48.52349090576172,4.951376914978027"/>
        <path d="M101.87,72.64c2,5,3.63,9.29,4.45,11.69a23.46,23.46,0,0,1-.18,15.56" style="fill: none;stroke: #fff;stroke-linecap: round;stroke-linejoin: round;stroke-width: 3.489131200194359px"/>
      </g>
      <path d="M90.34,122.5c-5.49,1.91-14.5-1.57-18.82-5-5.67-4.53-12.46-16-16.28-24" style="fill: none;stroke: #fff;stroke-linecap: round;stroke-linejoin: round;stroke-width: 3.4740768671035767px"/>
      <g>
        <path d="M51.35,86a93.24,93.24,0,0,1-3.8-12.15" style="fill: none;stroke: #fff;stroke-linecap: round;stroke-linejoin: round;stroke-width: 3.4740768671035767px"/>
        <path d="M46.3,67.51a31,31,0,0,1-.38-8.91,21.88,21.88,0,0,1,14.4-16.9,22.61,22.61,0,0,1,2.9-.79,21.85,21.85,0,0,1,20.1,6.42" style="fill: none;stroke: #fff;stroke-linecap: round;stroke-linejoin: round;stroke-width: 3.4740768671035767px;stroke-dasharray: 23.755268096923828,6.4787092208862305"/>
        <path d="M85.4,49.8l.6.86a57,57,0,0,1,5.19,10.46" style="fill: none;stroke: #fff;stroke-linecap: round;stroke-linejoin: round;stroke-width: 3.4740768671035767px"/>
      </g>
      <g>
        <path d="M89.18,116.86c-4.62,1.59-8.51,0-11.75-2.86" style="fill: none;stroke: #fff;stroke-linecap: round;stroke-linejoin: round;stroke-width: 3.4740768671035767px"/>
        <path d="M73.23,109.32a120.91,120.91,0,0,1-14.13-23c-3.82-8.15-8.39-17.75-6.77-27A16.14,16.14,0,0,1,62.92,46.92a15.82,15.82,0,0,1,2.15-.57,16,16,0,0,1,16.76,7.17C86.6,61,94.65,81.1,96.88,87.65a8.88,8.88,0,0,1,.38,1.63" style="fill: none;stroke: #fff;stroke-linecap: round;stroke-linejoin: round;stroke-width: 3.4740768671035767px;stroke-dasharray: 27.738216400146484,6.304140090942383"/>
        <path d="M97.3,92.43c-.4,4-2.58,8.31-7.78,8.63" style="fill: none;stroke: #fff;stroke-linecap: round;stroke-linejoin: round;stroke-width: 3.4740768671035767px"/>
      </g>
      <g>
        <g>
          <path d="M89.89,110.06a5.78,5.78,0,0,1-8.16-.62c-.79-.92-1.57-1.86-2.33-2.81" style="fill: none;stroke: #fff;stroke-linecap: round;stroke-linejoin: round;stroke-width: 3.4740768671035767px"/>
          <path d="M75.57,101.58A114.69,114.69,0,0,1,59.21,68.45a18,18,0,0,1-.46-8.33,10.33,10.33,0,0,1,18.9-3.74C81,61.62,86.38,74.25,89.74,82.87" style="fill: none;stroke: #fff;stroke-linecap: round;stroke-linejoin: round;stroke-width: 3.4740768671035767px;stroke-dasharray: 27.880464553833008,6.3364691734313965"/>
          <path d="M90.87,85.83c.51,1.35.93,2.52,1.25,3.45a5.8,5.8,0,0,1-3.61,7.35" style="fill: none;stroke: #fff;stroke-linecap: round;stroke-linejoin: round;stroke-width: 3.4740768671035767px"/>
        </g>
        <path d="M73,72.94q1.18,3,2.55,5.88C74.75,76.83,73.89,74.84,73,72.94Z" style="fill: none;stroke: #fff;stroke-linecap: round;stroke-linejoin: round;stroke-width: 3.4740768671035767px"/>
      </g>
    </g>
    <g>
      <polygon points="210.37 213.13 200.75 222.76 78.45 222.76 78.45 100.47 88.08 90.84 210.37 213.13" style="fill: #fff;stroke: #cfd0e9;stroke-linejoin: bevel;stroke-width: 2.624997693917784px"/>
      <rect x="88.08" y="90.84" width="122.29" height="122.29" style="fill: #fff;stroke: #cfd0e9;stroke-linejoin: bevel;stroke-width: 2.624997693917784px"/>
      <circle cx="149.71" cy="152.41" r="36.54" style="fill: #fff;stroke: #cfd0e9;stroke-miterlimit: 10;stroke-width: 3.398631799627341px"/>
      <g>
        <circle cx="176.16" cy="145.57" r="28.22" style="fill: #fff;stroke: #cfd0e9;stroke-miterlimit: 10;stroke-width: 2.624997693917784px"/>
        <path d="M133.67,130.61c9.83,2.5,17.76,0,24.56-6.78" style="fill: none;stroke: #cfd0e9;stroke-miterlimit: 10;stroke-width: 2.624997693917784px"/>
        <path d="M147.11,179.47c7.41-6.92,15.55-8.57,24.78-5.87" style="fill: none;stroke: #cfd0e9;stroke-miterlimit: 10;stroke-width: 2.624997693917784px"/>
      </g>
    </g>
  </g>
</svg>
