<?xml version="1.0" encoding="utf-8"?>
<!-- Generator: Adobe Illustrator 24.0.3, SVG Export Plug-In . SVG Version: 6.00 Build 0)  -->
<svg version="1.1" id="Layer_1" xmlns="http://www.w3.org/2000/svg" xmlns:xlink="http://www.w3.org/1999/xlink" x="0px" y="0px"
	 viewBox="0 0 200.8 200.8" style="enable-background:new 0 0 200.8 200.8;" xml:space="preserve">
<style type="text/css">
	.st0{clip-path:url(#SVGID_2_);}
	.st1{opacity:0.75;}
	.st2{fill:#3E4E57;}
	.st3{fill:#9595A8;}
	.st4{fill:#E3E3F2;}
	.st5{fill:none;stroke:#A7A8D4;stroke-width:0.9724;stroke-miterlimit:10;}
	.st6{fill:none;stroke:#A7A8D4;stroke-width:0.9836;stroke-miterlimit:10;}
	.st7{fill:none;stroke:#A7A8D4;stroke-miterlimit:10;}
	.st8{fill:none;stroke:#A7A8D4;stroke-width:3;stroke-miterlimit:10;}
	.st9{fill:#A7A8D4;}
	.st10{fill:none;stroke:#FFFFFF;stroke-width:0.7543;stroke-miterlimit:10;}
	.st11{fill:none;stroke:#FFFFFF;stroke-width:2.263;stroke-miterlimit:10;}
	.st12{fill:none;stroke:#FFFFFF;stroke-width:0.5937;stroke-miterlimit:10;}
	.st13{fill:none;stroke:#FFFFFF;stroke-width:0.6005;stroke-miterlimit:10;}
	.st14{fill:none;stroke:#9595A8;stroke-width:1.8605;stroke-linecap:round;stroke-miterlimit:10;}
	.st15{enable-background:new    ;}
	.st16{fill:#FFFFFF;}
	.st17{fill:none;stroke:#3E4E57;stroke-width:5.5814;stroke-miterlimit:10;stroke-dasharray:5.5814,7.4419;}
</style>
<title>workIcons</title>
<g>
	<g id="Layer_1_1_">
		<g>
			<defs>
				<circle id="SVGID_1_" cx="100.4" cy="100.4" r="100.4"/>
			</defs>
			<clipPath id="SVGID_2_">
				<use xlink:href="#SVGID_1_"  style="overflow:visible;"/>
			</clipPath>
			<g class="st0">
				<g class="st1">
					<circle class="st2" cx="100.4" cy="100.4" r="100.4"/>
				</g>
				<g>
					<path class="st3" d="M121.3,32.4c3.3,0,6,2.7,6,6v68c0,3.3-2.7,6-6,6H4.9c-3.3,0-6-2.7-6-6v-68c0-3.3,2.7-6,6-6L121.3,32.4
						 M121.3,31.5H4.9c-3.8,0-6.9,3.1-6.9,6.9v68c0,3.8,3.1,6.9,6.9,6.9h116.3c3.8,0,6.9-3.1,6.9-6.9v-68
						C128.2,34.6,125.1,31.5,121.3,31.5C121.3,31.5,121.3,31.5,121.3,31.5z"/>
				</g>
				<path class="st4" d="M4.9,32.4h116.3c3.3,0,6,2.7,6,6v68c0,3.3-2.7,6-6,6H4.9c-3.3,0-6-2.7-6-6v-68C-1.1,35.1,1.6,32.4,4.9,32.4
					z"/>
				<g>
					<rect x="-7.1" y="53.9" class="st5" width="52" height="43.5"/>
					<polyline class="st6" points="45.4,97.9 -6.6,53.4 -6.6,97.9 45.4,53.4 					"/>
				</g>
				<g>
					<line class="st7" x1="70.4" y1="94.9" x2="111.4" y2="94.9"/>
					<line class="st7" x1="70.9" y1="84.9" x2="111.9" y2="84.9"/>
					<line class="st7" x1="71.4" y1="74.9" x2="112.4" y2="74.9"/>
					<line class="st7" x1="71.9" y1="64.9" x2="112.9" y2="64.9"/>
					<line class="st8" x1="72.4" y1="54.9" x2="113.4" y2="54.9"/>
				</g>
				<g>
					<path class="st3" d="M121.3,34.3c2.3,0,4.2,1.9,4.2,4.1v0v68c0,2.3-1.9,4.2-4.2,4.2l0,0H4.9c-2.3,0-4.2-1.9-4.2-4.1
						c0,0,0,0,0,0v-68c0-2.3,1.9-4.2,4.1-4.2c0,0,0,0,0,0L121.3,34.3 M121.3,32.4H4.9c-3.3,0-6,2.7-6,6v68c0,3.3,2.7,6,6,6h116.3
						c3.3,0,6-2.7,6-6v-68C127.3,35.1,124.6,32.4,121.3,32.4z"/>
				</g>
				<path class="st9" d="M110.7,83.6h44.4c2.1,0,3.8,1.7,3.8,3.8v72.3c0,2.1-1.7,3.8-3.8,3.8h-44.4c-2.1,0-3.8-1.7-3.8-3.8V87.4
					C106.8,85.3,108.5,83.6,110.7,83.6z"/>
				<g>
					<line class="st10" x1="113.2" y1="153.4" x2="149.2" y2="153.4"/>
					<line class="st10" x1="113.7" y1="146.9" x2="149.6" y2="146.9"/>
					<line class="st10" x1="114.1" y1="140.4" x2="150" y2="140.4"/>
					<line class="st10" x1="114.5" y1="133.9" x2="150.5" y2="133.9"/>
					<line class="st11" x1="115" y1="127.4" x2="150.9" y2="127.4"/>
				</g>
				<g>
					<rect x="115.7" y="91.2" class="st12" width="33.9" height="24.9"/>
					<polyline class="st13" points="149.9,116.4 116,90.9 116,116.4 149.9,90.9 					"/>
				</g>
				<path class="st14" d="M119.1,163.6h-8.5c-2.1,0-3.8-1.7-3.8-3.8c0,0,0,0,0,0V87.4c0-2.1,1.7-3.8,3.8-3.8l0,0h44.4
					c2.1,0,3.8,1.7,3.8,3.8v10.5"/>
				<g class="st15">
					<path class="st16" d="M45.2,179.2c-0.2,0.2-0.5,0.4-0.8,0.4c-0.3,0-0.6-0.1-0.9-0.3c-0.4-0.3-0.5-0.7-0.4-1.1l1-7.7l-0.3-0.3
						l-2.4-1.9l-3.8,4.6c-0.2,0.3-0.5,0.4-0.8,0.5c-0.3,0-0.6-0.1-0.9-0.3c-0.3-0.2-0.4-0.5-0.5-0.8s0.1-0.6,0.3-0.9l10.3-12.5
						c0.2-0.3,0.5-0.4,0.8-0.5c0.3,0,0.6,0.1,0.9,0.3l3.3,2.7c0.9,0.8,1.6,1.6,2,2.6c0.4,1,0.5,2,0.3,3c-0.2,1-0.6,2-1.3,2.8
						c-0.7,0.9-1.6,1.5-2.6,1.8c-1,0.3-2,0.3-3.1,0l-0.9,6.9C45.5,178.7,45.4,179,45.2,179.2z M45.3,168.4c0.8,0.7,1.7,1,2.6,1
						s1.7-0.4,2.3-1.2c0.7-0.8,0.9-1.7,0.8-2.7c-0.1-1-0.6-1.8-1.4-2.5l-2.4-1.9l-4.4,5.3L45.3,168.4z"/>
				</g>
				<g class="st15">
					<path class="st16" d="M65.6,189.2c0.1,0.3,0.1,0.6-0.1,0.9c-0.2,0.3-0.4,0.5-0.7,0.6s-0.6,0.1-0.9-0.1l-9.7-4.7
						c-0.3-0.2-0.5-0.4-0.6-0.7s-0.1-0.6,0.1-1l7-14.6c0.2-0.3,0.4-0.5,0.7-0.7c0.3-0.1,0.6-0.1,0.9,0.1l9.7,4.7
						c0.3,0.2,0.5,0.4,0.7,0.7c0.1,0.3,0.1,0.6-0.1,0.9c-0.1,0.3-0.4,0.5-0.7,0.6c-0.3,0.1-0.6,0.1-0.9-0.1l-8.6-4.1L60,177l6.2,3
						c0.3,0.2,0.5,0.4,0.6,0.7c0.1,0.3,0.1,0.6,0,0.9c-0.1,0.3-0.4,0.5-0.7,0.6c-0.3,0.1-0.6,0.1-0.9-0.1l-6.2-3l-2.6,5.4l8.6,4.1
						C65.3,188.7,65.5,188.9,65.6,189.2z"/>
				</g>
				<g class="st15">
					<path class="st16" d="M88.6,178.6c0.8,0.7,1.4,1.7,1.9,2.8c0.1,0.3,0.2,0.6,0.1,0.9c-0.1,0.3-0.3,0.6-0.6,0.8
						c-0.2,0.1-0.4,0.1-0.6,0s-0.4-0.1-0.6-0.3c-0.2-0.2-0.3-0.3-0.4-0.6c-0.3-0.8-0.7-1.4-1.3-1.9c-0.6-0.5-1.3-0.8-2.3-1
						c-1.2-0.2-2.2-0.2-3,0.1c-0.8,0.3-1.3,0.9-1.5,1.8c-0.2,0.8,0,1.6,0.6,2.2c0.5,0.7,1.6,1.3,3.3,1.8c1.8,0.6,3.2,1.4,4,2.6
						c0.8,1.1,1.1,2.5,0.8,4c-0.2,1.1-0.7,2-1.5,2.7c-0.8,0.7-1.7,1.1-2.8,1.3c-1.1,0.2-2.2,0.2-3.4,0c-1.5-0.3-2.8-0.9-3.9-1.9
						c-1.1-0.9-1.8-2-2-3.2c0-0.2,0-0.4,0-0.5c0-0.2,0.2-0.4,0.4-0.6c0.2-0.1,0.5-0.2,0.8-0.2c0.1,0,0.1,0,0.2,0
						c0.2,0,0.5,0.2,0.7,0.4c0.2,0.2,0.3,0.4,0.4,0.7c0.2,0.7,0.6,1.3,1.4,1.9c0.7,0.6,1.6,1,2.6,1.2c1.2,0.2,2.2,0.2,3.1-0.2
						c0.9-0.4,1.5-1,1.7-2c0.2-0.9,0-1.7-0.6-2.5c-0.6-0.8-1.5-1.4-2.9-1.8c-1.9-0.6-3.3-1.4-4.2-2.6c-0.9-1.2-1.2-2.5-1-3.9
						c0.2-1,0.7-1.8,1.4-2.4c0.7-0.6,1.6-1,2.7-1.2c1.1-0.2,2.2-0.2,3.5,0.1C86.7,177.4,87.8,177.9,88.6,178.6z"/>
				</g>
				<g class="st15">
					<path class="st16" d="M101.2,197.1c-0.2,0.2-0.5,0.4-0.9,0.4c-0.3,0-0.6-0.1-0.9-0.3c-0.2-0.2-0.4-0.5-0.4-0.9l-0.7-16.1
						c0-0.4,0.1-0.7,0.3-0.9s0.5-0.4,0.9-0.4l4.8-0.2c1.2,0,2.2,0.2,3.2,0.7c1,0.5,1.7,1.2,2.3,2.1s0.9,2,0.9,3.2
						c0,1.2-0.2,2.2-0.6,3.1c-0.5,0.9-1.2,1.7-2.1,2.2c-0.9,0.5-2,0.8-3.1,0.9l-3.5,0.1l0.2,5.2
						C101.5,196.5,101.4,196.8,101.2,197.1z M107.3,187.4c0.7-0.7,1-1.6,0.9-2.7c0-1.1-0.4-2-1.2-2.7s-1.6-1-2.7-1l-3.5,0.1l0.3,7.6
						l3.5-0.1C105.8,188.5,106.7,188.1,107.3,187.4z"/>
				</g>
				<g class="st15">
					<path class="st16" d="M128.9,174.4c1.6,0.3,3,1.1,4.2,2.2c1.2,1.1,2.1,2.6,2.7,4.3c0.6,1.8,0.7,3.4,0.4,5.1
						c-0.3,1.6-1,3.1-2.1,4.3c-1.1,1.2-2.5,2.1-4.3,2.7s-3.4,0.7-5.1,0.4c-1.6-0.3-3-1.1-4.2-2.2c-1.2-1.1-2.1-2.6-2.7-4.3
						c-0.6-1.8-0.7-3.4-0.4-5.1c0.3-1.6,1-3,2.1-4.3c1.1-1.2,2.6-2.1,4.3-2.7C125.6,174.2,127.3,174.1,128.9,174.4z M121.4,178.9
						c-0.8,0.9-1.3,2-1.6,3.3c-0.2,1.2-0.1,2.5,0.3,3.8c0.4,1.3,1.1,2.4,2,3.3c0.9,0.9,2,1.4,3.2,1.7c1.2,0.3,2.5,0.2,3.8-0.2
						s2.3-1.1,3.2-2s1.4-2,1.6-3.3c0.2-1.2,0.1-2.5-0.3-3.8c-0.4-1.3-1.1-2.4-2-3.3s-2-1.4-3.2-1.7c-1.2-0.3-2.5-0.2-3.8,0.2
						C123.3,177.3,122.2,178,121.4,178.9z"/>
				</g>
				<g class="st15">
					<path class="st16" d="M149.4,161.6c0.1-0.3,0.2-0.6,0.5-0.8s0.6-0.3,0.9-0.2c0.3,0.1,0.6,0.2,0.8,0.5l9.4,13.3
						c0.2,0.3,0.3,0.6,0.2,0.9c-0.1,0.3-0.2,0.6-0.5,0.8c-0.1,0.1-0.3,0.2-0.5,0.2c-0.2,0-0.4,0-0.5,0l-16.6-5.3l7.6,10.7
						c0.2,0.3,0.3,0.6,0.2,0.9c-0.1,0.3-0.2,0.6-0.5,0.8c-0.3,0.2-0.6,0.3-0.9,0.2c-0.3-0.1-0.6-0.2-0.8-0.5l-9.4-13.3
						c-0.2-0.3-0.3-0.6-0.2-0.9c0.1-0.3,0.2-0.6,0.5-0.8c0.1-0.1,0.3-0.2,0.5-0.2s0.4,0,0.5,0l16.6,5.3l-7.6-10.7
						C149.4,162.3,149.3,161.9,149.4,161.6z"/>
				</g>
				<g class="st15">
					<path class="st16" d="M162.8,147.8c1-0.4,2.1-0.5,3.4-0.3c0.4,0,0.6,0.2,0.8,0.3c0.3,0.2,0.4,0.5,0.4,0.9
						c0,0.2-0.1,0.4-0.3,0.6c-0.2,0.2-0.3,0.3-0.6,0.4c-0.2,0.1-0.5,0.1-0.7,0.1c-0.8-0.1-1.6-0.1-2.3,0.2c-0.7,0.3-1.4,0.8-2,1.5
						c-0.8,0.9-1.2,1.8-1.3,2.7c-0.1,0.9,0.2,1.6,0.9,2.2c0.6,0.5,1.4,0.7,2.2,0.5s1.9-0.9,3.1-2.1c1.4-1.4,2.7-2.1,4.2-2.3
						c1.4-0.2,2.7,0.2,3.9,1.2c0.9,0.7,1.5,1.6,1.7,2.6c0.2,1,0.2,2-0.1,3.1c-0.3,1.1-0.9,2-1.6,2.9c-1,1.2-2.1,2.1-3.5,2.6
						c-1.3,0.5-2.6,0.6-3.8,0.3c-0.2-0.1-0.3-0.1-0.4-0.2c-0.2-0.2-0.3-0.4-0.3-0.6c0-0.3,0-0.5,0.2-0.8c0,0,0.1-0.1,0.1-0.2
						c0.2-0.2,0.4-0.3,0.6-0.4c0.3-0.1,0.5-0.1,0.8,0c0.7,0.2,1.4,0.1,2.3-0.3s1.6-1,2.3-1.8c0.8-0.9,1.2-1.9,1.3-2.9
						c0.1-1-0.2-1.8-1-2.4c-0.7-0.6-1.5-0.8-2.5-0.7c-0.9,0.1-1.9,0.7-2.9,1.7c-1.4,1.4-2.8,2.2-4.3,2.5c-1.5,0.3-2.8-0.1-3.9-1
						c-0.8-0.6-1.3-1.4-1.5-2.3c-0.2-0.9-0.1-1.9,0.2-2.9c0.3-1,0.9-2,1.7-3C160.8,148.9,161.8,148.2,162.8,147.8z"/>
				</g>
				<g class="st15">
					<path class="st16" d="M168.1,138.9c-0.1-0.3-0.1-0.6,0.1-0.9c0.2-0.3,0.4-0.5,0.7-0.6c0.3-0.1,0.6-0.1,1,0.1l14.2,7.6
						c0.3,0.2,0.5,0.4,0.6,0.7c0.1,0.3,0.1,0.6-0.1,1c-0.2,0.3-0.4,0.5-0.7,0.6c-0.3,0.1-0.6,0.1-0.9-0.1l-14.2-7.6
						C168.4,139.5,168.2,139.2,168.1,138.9z"/>
				</g>
				<g class="st15">
					<path class="st16" d="M176.7,115.9c0.2-0.1,0.5-0.2,0.8-0.1c0.2,0.1,0.4,0.2,0.6,0.3l13.5,11.4c0.4,0.3,0.6,0.8,0.4,1.3
						c-0.1,0.5-0.5,0.8-1.1,0.9l-17.3,2.2c-0.4,0-0.6,0-0.9-0.1c-0.3-0.1-0.5-0.3-0.6-0.5s-0.1-0.5,0-0.9c0.2-0.5,0.5-0.8,1-0.9
						l15.5-1.7l-12.1-10c-0.2-0.2-0.4-0.4-0.4-0.6c0-0.2,0-0.4,0-0.7C176.3,116.3,176.4,116.1,176.7,115.9z"/>
				</g>
				<g class="st15">
					<path class="st16" d="M194.1,97.5c0.2-0.2,0.5-0.3,0.8-0.3c0.3,0,0.6,0.1,0.8,0.4c0.2,0.2,0.3,0.5,0.3,0.9l-0.3,10.8
						c0,0.3-0.1,0.6-0.4,0.9s-0.5,0.3-0.9,0.3l-16.2-0.5c-0.4,0-0.7-0.1-0.9-0.4c-0.2-0.2-0.3-0.5-0.3-0.9l0.3-10.8
						c0-0.4,0.1-0.7,0.3-0.9c0.2-0.2,0.5-0.3,0.9-0.3c0.3,0,0.6,0.1,0.8,0.4c0.2,0.2,0.3,0.5,0.3,0.9l-0.3,9.5l5.8,0.2l0.2-6.9
						c0-0.4,0.1-0.6,0.3-0.9c0.2-0.2,0.5-0.3,0.8-0.3c0.3,0,0.6,0.1,0.8,0.4c0.2,0.2,0.3,0.5,0.3,0.9l-0.2,6.9l6,0.2l0.3-9.5
						C193.8,98,193.9,97.8,194.1,97.5z"/>
				</g>
				<g>
					<polyline class="st17" points="56.1,67.3 56.1,136.1 103.5,136.1 					"/>
					<path class="st2" d="M120.3,136.1c-7.9,2.9-17.8,8-23.8,13.3l4.8-13.3l-4.8-13.3C102.6,128.2,112.4,133.2,120.3,136.1z"/>
				</g>
			</g>
		</g>
	</g>
</g>
</svg>
