<svg xmlns="http://www.w3.org/2000/svg" xmlns:xlink="http://www.w3.org/1999/xlink" width="200.82" height="200.82" viewBox="0 0 200.82 200.82">
  <defs>
    <clipPath id="clip-path">
      <circle cx="100.41" cy="100.41" r="100.41" style="fill: none"/>
    </clipPath>
  </defs>
  <title>workIcons</title>
  <g style="isolation: isolate">
    <g id="Layer_1" data-name="Layer 1">
      <g style="clip-path: url(#clip-path)">
        <g style="opacity: 0.75">
          <circle cx="100.41" cy="100.41" r="100.41" style="fill: #3e4e57"/>
        </g>
        <g style="mix-blend-mode: color-burn">
          <path d="M121.27,32.41a6,6,0,0,1,6,6v68a6,6,0,0,1-6,6H4.92a6,6,0,0,1-6-6v-68a6,6,0,0,1,6-6H121.27m0-.93H4.92A6.94,6.94,0,0,0-2,38.42v68a7,7,0,0,0,6.94,6.94H121.27a7,7,0,0,0,6.94-6.94v-68a6.94,6.94,0,0,0-6.94-6.94Z" style="fill: #9595a8"/>
        </g>
        <rect x="-1.09" y="32.41" width="128.37" height="80" rx="6.01" style="fill: #e3e3f2"/>
        <g>
          <rect x="-7.09" y="53.91" width="52" height="43.5" style="fill: none;stroke: #a7a8d4;stroke-miterlimit: 10;stroke-width: 0.9724464889715337px"/>
          <polyline points="45.41 97.91 -6.59 53.41 -6.59 97.91 45.41 53.41" style="fill: none;stroke: #a7a8d4;stroke-miterlimit: 10;stroke-width: 0.9835605025291443px"/>
        </g>
        <g>
          <line x1="70.41" y1="94.91" x2="111.41" y2="94.91" style="fill: none;stroke: #a7a8d4;stroke-miterlimit: 10"/>
          <line x1="70.91" y1="84.91" x2="111.91" y2="84.91" style="fill: none;stroke: #a7a8d4;stroke-miterlimit: 10"/>
          <line x1="71.41" y1="74.91" x2="112.41" y2="74.91" style="fill: none;stroke: #a7a8d4;stroke-miterlimit: 10"/>
          <line x1="71.91" y1="64.91" x2="112.91" y2="64.91" style="fill: none;stroke: #a7a8d4;stroke-miterlimit: 10"/>
          <line x1="72.41" y1="54.91" x2="113.41" y2="54.91" style="fill: none;stroke: #a7a8d4;stroke-miterlimit: 10;stroke-width: 3px"/>
        </g>
        <g style="mix-blend-mode: color-burn">
          <path d="M121.27,34.27a4.15,4.15,0,0,1,4.15,4.15v68a4.15,4.15,0,0,1-4.15,4.15H4.92A4.15,4.15,0,0,1,.77,106.4v-68a4.15,4.15,0,0,1,4.15-4.15H121.27m0-1.86H4.92a6,6,0,0,0-6,6v68a6,6,0,0,0,6,6H121.27a6,6,0,0,0,6-6v-68a6,6,0,0,0-6-6Z" style="fill: #9595a8"/>
        </g>
        <rect x="106.82" y="83.57" width="52.09" height="80" rx="3.83" style="fill: #a7a8d4"/>
        <g>
          <line x1="113.21" y1="153.41" x2="149.16" y2="153.41" style="fill: none;stroke: #fff;stroke-miterlimit: 10;stroke-width: 0.7543395344119119px"/>
          <line x1="113.65" y1="146.92" x2="149.59" y2="146.92" style="fill: none;stroke: #fff;stroke-miterlimit: 10;stroke-width: 0.7543395344119119px"/>
          <line x1="114.09" y1="140.43" x2="150.03" y2="140.43" style="fill: none;stroke: #fff;stroke-miterlimit: 10;stroke-width: 0.7543395344119119px"/>
          <line x1="114.52" y1="133.94" x2="150.47" y2="133.94" style="fill: none;stroke: #fff;stroke-miterlimit: 10;stroke-width: 0.7543395344119119px"/>
          <line x1="114.96" y1="127.45" x2="150.91" y2="127.45" style="fill: none;stroke: #fff;stroke-miterlimit: 10;stroke-width: 2.263018603235736px"/>
        </g>
        <g>
          <rect x="115.71" y="91.23" width="33.87" height="24.89" style="fill: none;stroke: #fff;stroke-miterlimit: 10;stroke-width: 0.5936857258716527px"/>
          <polyline points="149.91 116.41 116.03 90.95 116.03 116.41 149.91 90.95" style="fill: none;stroke: #fff;stroke-miterlimit: 10;stroke-width: 0.6004709128008334px"/>
        </g>
        <path d="M119.13,163.57h-8.48a3.82,3.82,0,0,1-3.83-3.83V87.4a3.83,3.83,0,0,1,3.83-3.83h44.43a3.84,3.84,0,0,1,3.83,3.83V97.86" style="fill: none;stroke: #9595a8;stroke-linecap: round;stroke-miterlimit: 10;stroke-width: 1.860465168952942px;mix-blend-mode: color-burn"/>
        <text transform="translate(33.17 170.64) rotate(39.6)" style="font-size: 23.87075424194336px;fill: #fff;font-family: Comfortaa-Bold, Comfortaa;font-weight: 700">R</text>
        <text transform="translate(50.99 184.35) rotate(25.71)" style="font-size: 23.87075424194336px;fill: #fff;font-family: Comfortaa-Bold, Comfortaa;font-weight: 700">E</text>
        <text transform="translate(73.22 193.97) rotate(11.23)" style="font-size: 23.87075424194336px;fill: #fff;font-family: Comfortaa-Bold, Comfortaa;font-weight: 700">S</text>
        <text transform="translate(96.69 197.64) rotate(-2.39)" style="font-size: 23.87075424194336px;fill: #fff;font-family: Comfortaa-Bold, Comfortaa;font-weight: 700">P</text>
        <text transform="matrix(0.95, -0.31, 0.31, 0.95, 119.3, 196.12)" style="font-size: 23.87075424194336px;fill: #fff;font-family: Comfortaa-Bold, Comfortaa;font-weight: 700">O</text>
        <text transform="matrix(0.82, -0.58, 0.58, 0.82, 147.4, 185.51)" style="font-size: 23.87075424194336px;fill: #fff;font-family: Comfortaa-Bold, Comfortaa;font-weight: 700">N</text>
        <text transform="translate(169.06 168.59) rotate(-50.68)" style="font-size: 23.87075424194336px;fill: #fff;font-family: Comfortaa-Bold, Comfortaa;font-weight: 700">S</text>
        <text transform="matrix(0.47, -0.88, 0.88, 0.47, 182.92, 149.92)" style="font-size: 23.87075424194336px;fill: #fff;font-family: Comfortaa-Bold, Comfortaa;font-weight: 700">I</text>
        <text transform="translate(189.48 137.28) rotate(-73.48)" style="font-size: 23.87075424194336px;fill: #fff;font-family: Comfortaa-Bold, Comfortaa;font-weight: 700">V</text>
        <text transform="matrix(0.03, -1, 1, 0.03, 195.62, 112.9)" style="font-size: 23.87075424194336px;fill: #fff;font-family: Comfortaa-Bold, Comfortaa;font-weight: 700">E</text>
        <g>
          <polyline points="56.12 67.29 56.12 136.13 103.46 136.13" style="fill: none;stroke: #3e4e57;stroke-miterlimit: 10;stroke-width: 5.581395506858826px;stroke-dasharray: 5.581395626068115,7.441860675811768"/>
          <path d="M120.3,136.13c-7.92,2.94-17.75,8-23.85,13.27l4.8-13.27-4.8-13.27C102.55,128.17,112.38,133.19,120.3,136.13Z" style="fill: #3e4e57"/>
        </g>
      </g>
    </g>
  </g>
</svg>
