<?xml version="1.0" encoding="utf-8"?>
<!-- Generator: Adobe Illustrator 24.2.3, SVG Export Plug-In . SVG Version: 6.00 Build 0)  -->
<svg version="1.1" id="Layer_1" xmlns="http://www.w3.org/2000/svg" xmlns:xlink="http://www.w3.org/1999/xlink" x="0px" y="0px"
	 viewBox="0 0 109.7 109.7" style="enable-background:new 0 0 109.7 109.7;" xml:space="preserve">
<style type="text/css">
	.st0{fill:#FFFFFF;}
	.st1{fill:#B5BCED;}
</style>
<circle class="st0" cx="54.8" cy="54.8" r="45"/>
<path class="st1" d="M95.1,37.5C96.4,64.6,76.1,95,39.6,95C29,94.9,18.8,91.9,9.9,86.2c10.4,1.3,20.8-1.6,29-8.1
	c-8.8,0-15.6-6.1-18.3-13.5c2.8,0.7,5.9,0.7,8.8,0c-9.3-1.3-16-9.5-15.6-19c2.8,1.3,5.8,2.2,8.8,2.7c-8.5-5.6-11.1-16.8-6.1-25.6
	c9.9,12.1,24.4,19.5,40,20.3c-2.5-10.3,3.9-20.7,14.2-23.1c1.5-0.4,3.1-0.5,4.7-0.5c5.4-0.2,10.6,2,14.2,6.1
	c4.4-0.7,8.5-2.3,12.2-4.7c-1,3.4-4.1,7.2-6.9,9.7c-0.4,0.4-0.4,1-0.1,1.4c0.3,0.4,0.7,0.4,1.1,0.3c2.8-1.1,5.4-2.4,7.9-3.9
	C101.5,31.6,98.6,34.8,95.1,37.5z"/>
</svg>
