<svg id="Layer_1" data-name="Layer 1" xmlns="http://www.w3.org/2000/svg" width="109.67" height="109.67" viewBox="0 0 109.67 109.67">
  <title>socialMediaIcons</title>
  <circle cx="54.84" cy="54.84" r="45" style="fill: #fff"/>
  <path d="M82.54,43.94c.91,18.16-12.72,38.6-37.24,38.6a38.11,38.11,0,0,1-20-5.9,26,26,0,0,0,19.52-5.45c-5.9,0-10.44-4.09-12.26-9.09a12.79,12.79,0,0,0,5.91,0A12.28,12.28,0,0,1,28,49.39a22.66,22.66,0,0,0,5.9,1.81,13.06,13.06,0,0,1-4.08-17.26A36.83,36.83,0,0,0,56.65,47.57a12.91,12.91,0,0,1,12.72-15.9,12.4,12.4,0,0,1,9.54,4.09,21.93,21.93,0,0,0,8.17-3.18c-.64,2.26-2.75,4.83-4.63,6.52a.66.66,0,0,0,.66,1.12,30.08,30.08,0,0,0,5.33-2.64A25.94,25.94,0,0,1,82.54,43.94Z" style="fill: #b5bced;stroke: none;stroke-miterlimit: 10;stroke-width: 5px"/>
</svg>
