<svg id="Layer_1" data-name="Layer 1" xmlns="http://www.w3.org/2000/svg" width="109.67" height="109.67" viewBox="0 0 109.67 109.67">
  <title>socialMediaIcons</title>
  <g>
    <path d="M91,88.83c0-9.26,0-18,0-26.72a51,51,0,0,0-.46-7.92c-1.72-10.42-9.89-16.84-19.75-14.82-4.41.9-8.44,3.59-12.57,5.44l-.87-4.75c-2.86,0-5.65.19-8.4,0-3.66-.32-4.87.93-4.77,4.74.35,12.9.31,25.8.44,38.7,0,1.75.15,3.49.23,5.22H60.08c0-8.72,0-17.12,0-25.52a20.38,20.38,0,0,1,.72-5.84c1.19-3.71,3.84-5.6,7.87-5.44s5.93,2.79,6.51,6.28a56,56,0,0,1,.38,8.9c0,7.21,0,14.42,0,21.77Z" style="fill: none;stroke: #6F7C8E;stroke-miterlimit: 10;stroke-width: 5px"/>
    <path d="M20.55,88.6h15.2V40.07c-4,0-7.76.11-11.51,0-2.83-.11-3.75,1.09-3.72,3.81.11,7.78,0,15.55,0,23.33Z" style="fill: none;stroke: #6F7C8E;stroke-miterlimit: 10;stroke-width: 5px"/>
    <path d="M27.88,34.52c4.72.12,8.22-2.89,8.4-7.24a7.74,7.74,0,0,0-8-8.19A7.91,7.91,0,0,0,20,26.63,7.83,7.83,0,0,0,27.88,34.52Z" style="fill: none;stroke: #6F7C8E;stroke-miterlimit: 10;stroke-width: 5px"/>
  </g>
</svg>
