<svg id="Layer_1" data-name="Layer 1" xmlns="http://www.w3.org/2000/svg" width="109.67" height="109.67" viewBox="0 0 109.67 109.67">
  <title>socialMediaIcons</title>
  <g>
    <path d="M34.7,49.93c1.84,16.39,9,24.61,20.77,24.62s19.1-8.48,20.57-24a4.63,4.63,0,0,1,1.32-.51c12.42-1,12.42-1,12.42,11.43,0,5,.11,10,0,15C89.5,84,85.34,88.18,77.85,88.24q-22.45.17-44.91,0c-7.42-.06-11.35-4-11.5-11.49s.07-15-.09-22.45c-.07-3.11.76-4.67,4.17-4.41C28.48,50.1,31.46,49.93,34.7,49.93Z" 
    style="fill: #F7C100; stroke: none;stroke-miterlimit: 10;stroke-width: 5px"/>
    <path d="M21.6,42.64c0-5.07-.32-9.4.08-13.66.47-5.11,4.68-8.88,10.4-9,15.66-.22,31.33-.25,47,0,6.35.11,10.2,4.59,10.68,11.05.86,11.54.86,11.44-10.48,11.6-4.13,0-7.4-.59-10.64-3.82-6.81-6.8-19.27-7.05-25.93-.36a13.26,13.26,0,0,1-11.47,4.16C28.28,42.46,25.29,42.64,21.6,42.64Z" style="fill: #F7C100;stroke: none;stroke-miterlimit: 10;stroke-width: 5px"/>
    <path d="M55.48,67A12.92,12.92,0,0,1,42.71,54.29a12.62,12.62,0,0,1,13-12.8,12.46,12.46,0,0,1,12.46,12.8A12.8,12.8,0,0,1,55.48,67Z" style="fill: #F7C100;stroke: none;stroke-miterlimit: 10;stroke-width: 5px"/>
    <circle cx="78.84" cy="29.84" r="4" style="fill: #fff;stroke: none;stroke-miterlimit: 10;stroke-width: 3px"/>
  </g>
</svg>
