<svg id="Layer_1" data-name="Layer 1" xmlns="http://www.w3.org/2000/svg" width="109.67" height="109.67" viewBox="0 0 109.67 109.67">
  <title>socialMediaIcons</title>
  <path d="M70.63,94c-1.58-.92-2.25-3.2-2.35-7-.18-6.58-.73-13.16-1.16-20.42.44-.09,1.71-.35,3-.66,16.43-4.09,24-22.76,15.37-37.82-1-1.69-1.09-4-1.35-6-.19-1.48.14-3,.06-4.52-.37-7.16-2.37-8.81-8.48-5.37-5.51,3.09-10.76,4-16.66,2.41a10,10,0,0,0-3.9-.13c-7.89,1.07-15.56,1.64-22.85-3.13-3.6-2.36-6.21.11-6,4.09.34,6.67-1.9,12.44-3.81,18.62C17.8,49.21,26,62.61,40.9,66.18c1.07.25,2.13.56,3.49.92-1.74,3.34-1.63,7.55-6.49,8s-8.11-1.57-10.72-5.5c-2.27-3.42-4.94-6.25-9.69-5.48a.4.4,0,0,0-.26.61c3.05,4.64,5.73,9.22,8.94,13.36C30,83,35.68,82.47,41.25,82.24a15.6,15.6,0,0,1,.55,2.48c.23,5.07-.35,8.09-2.09,9.22l-1,1a3,3,0,0,0,1.28,5,53.73,53.73,0,0,0,29.83-.33,3,3,0,0,0,1.43-4.78Z" style="fill: #3E4E57;stroke: none;stroke-miterlimit: 10;stroke-width: 5px"/>
</svg>
