<?xml version="1.0" encoding="utf-8"?>
<!-- Generator: Adobe Illustrator 24.2.3, SVG Export Plug-In . SVG Version: 6.00 Build 0)  -->
<svg version="1.1" id="Layer_1" xmlns="http://www.w3.org/2000/svg" xmlns:xlink="http://www.w3.org/1999/xlink" x="0px" y="0px"
	 viewBox="0 0 109.7 109.7" style="enable-background:new 0 0 109.7 109.7;" xml:space="preserve">
<style type="text/css">
	.st0{fill:#FFFFFF;}
	.st1{fill:#B5BCED;}
</style>
<circle class="st0" cx="54.8" cy="54.8" r="45"/>
<path class="st1" d="M99.8,35.1c1.5,30.4-21.3,64.6-62.3,64.6c-11.9-0.1-23.4-3.5-33.4-9.9c11.7,1.5,23.4-1.8,32.6-9.1
	c-9.9,0-17.5-6.8-20.5-15.2c3.2,0.8,6.6,0.8,9.9,0c-10.4-1.5-18-10.7-17.5-21.3c3.1,1.5,6.5,2.5,9.9,3C9,40.9,6,28.3,11.6,18.4
	C22.7,32,39,40.3,56.5,41.2c-2.8-11.6,4.4-23.2,16-26c1.7-0.4,3.5-0.6,5.3-0.6c6.1-0.2,11.9,2.3,16,6.8c4.9-0.8,9.5-2.6,13.7-5.3
	c-1.1,3.8-4.6,8.1-7.7,10.9c-0.5,0.4-0.5,1.1-0.1,1.6c0.3,0.4,0.8,0.5,1.2,0.3c3.1-1.2,6.1-2.7,8.9-4.4
	C107,28.5,103.7,32.1,99.8,35.1z"/>
</svg>
