<svg id="Layer_1" data-name="Layer 1" xmlns="http://www.w3.org/2000/svg" width="200" height="200" viewBox="0 0 200 200">
  <title>topic-icon</title>
  <g>
    <rect x="-21.59" y="-22.75" width="243.19" height="245.5" style="fill: #cfd0e9"/>
    <path d="M221-22.17V222.17H-21V-22.17H221m1.16-1.16H-22.17V223.33H222.17V-23.33Z"/>
  </g>
  <g>
    <path d="M175.5,41.61a11,11,0,0,0,10.16,11V69.05a11,11,0,0,0,0,21.92v16.48a11,11,0,0,0,0,21.92v16.46a11,11,0,0,0,0,22v17.87H168.49a11,11,0,0,0-22,0H130.08c0-.16,0-.31,0-.48a11,11,0,0,0-22,0c0,.17,0,.32,0,.48H91.68c0-.16,0-.31,0-.48a11,11,0,1,0-22,0c0,.17,0,.32,0,.48H53.27c0-.16,0-.31,0-.48a11,11,0,1,0-22,0c0,.17,0,.32,0,.48h-17V167.76a11,11,0,0,0,0-21.89V129.39a11,11,0,0,0,0-22V91a11,11,0,0,0,0-22V52.58a11,11,0,0,0,0-21.95V14.33h17.1a11,11,0,0,0,21.71,0H69.84a11,11,0,0,0,21.72,0h16.68a11,11,0,0,0,21.72,0h16.61a11,11,0,0,0,21.86,0h17.23V30.66A11,11,0,0,0,175.5,41.61Z" style="fill: #fff"/>
    <rect x="36.62" y="36.62" width="126.75" height="126.75" style="fill: #cfd0e9"/>
  </g>
  <g>
    <path d="M113.42,125.81c-14.17-12.44-21.77-27-24.9-42.57A13.66,13.66,0,0,1,88.81,77h0c1.25-4.52,6.69-5.79,8.84-1.93,3.44,6.73,12.19,27.2,15.84,34.68,1.27,2.8-3.36,4.66-5.2,2.13-4.15-5.47-11-20.55-12.62-26.87" style="fill: none;stroke: #fff;stroke-linecap: round;stroke-linejoin: round;stroke-width: 4.08369984807998px"/>
    <g>
      <path d="M123.32,151.32c-14,3.94-30.54,1.21-39.25-7.08l-.1-.09" style="fill: none;stroke: #fff;stroke-linecap: round;stroke-linejoin: round;stroke-width: 4.101395880754993px"/>
      <path d="M79.62,139.79c-13.51-14.56-19.77-30.47-21-47.62-.41-5.74,1-12.12,3.73-18.36C67.4,62.5,76.21,53.13,84.75,49a25,25,0,0,1,3.31-1.27C98,44.69,107.34,50,114.32,60.94c3.38,5.47,8.41,15,13.48,23.66" style="fill: none;stroke: #fff;stroke-linecap: round;stroke-linejoin: round;stroke-width: 4.101395880754993px;stroke-dasharray: 55.385196685791016,5.65155029296875"/>
      <path d="M129.3,87.17c3.53,6,6.85,11.31,8.54,14.16,3.25,5.47,4.49,11.73,2.93,17.43" style="fill: none;stroke: #fff;stroke-linecap: round;stroke-linejoin: round;stroke-width: 4.101395880754993px"/>
    </g>
    <path d="M120.83,144.57c-8.36,2.33-22.5-1.39-28.63-5.23-8.36-5.05-16.22-17.8-19.46-26.47" style="fill: none;stroke: #fff;stroke-linecap: round;stroke-linejoin: round;stroke-width: 4.08369984807998px"/>
    <g>
      <path d="M69.3,104.82a64.61,64.61,0,0,1-1.83-14.07" style="fill: none;stroke: #fff;stroke-linecap: round;stroke-linejoin: round;stroke-width: 4.08369984807998px"/>
      <path d="M67.67,83.48a34.28,34.28,0,0,1,1.68-8.73C72.86,66,79.65,58.62,86.74,55.47a19.42,19.42,0,0,1,2.73-1c6.71-1.87,12.89.54,18,6" style="fill: none;stroke: #fff;stroke-linecap: round;stroke-linejoin: round;stroke-width: 4.08369984807998px;stroke-dasharray: 27.439682006835938,7.48354959487915"/>
      <path d="M109.7,63.23c.38.51.74,1,1.09,1.59a96.78,96.78,0,0,1,6,11.57" style="fill: none;stroke: #fff;stroke-linecap: round;stroke-linejoin: round;stroke-width: 4.08369984807998px"/>
    </g>
    <g>
      <path d="M118.56,138.25a20.52,20.52,0,0,1-17.15-2.78" style="fill: none;stroke: #fff;stroke-linecap: round;stroke-linejoin: round;stroke-width: 4.08369984807998px"/>
      <path d="M95.39,130.27a76,76,0,0,1-16.34-25.45c-3.5-8.86-6.56-19.24-2.91-29.47,2.26-6.41,7.14-11.8,12.55-14.07a14.78,14.78,0,0,1,2.1-.7c6.31-1.65,12.27,1.36,16.07,7.63,4.56,8.38,15.36,30.3,19.46,37.43a10.12,10.12,0,0,1,.77,2.08" style="fill: none;stroke: #fff;stroke-linecap: round;stroke-linejoin: round;stroke-width: 4.08369984807998px;stroke-dasharray: 31.655017852783203,7.194322109222412"/>
      <path d="M127.47,111.26c-.11,4.33-2.63,9-9.6,9.41" style="fill: none;stroke: #fff;stroke-linecap: round;stroke-linejoin: round;stroke-width: 4.08369984807998px"/>
    </g>
    <g>
      <g>
        <path d="M119.06,130.64a8.74,8.74,0,0,1-2.64,1.23,10,10,0,0,1-9.11-1.8q-1.65-1.48-3.21-3" style="fill: none;stroke: #fff;stroke-linecap: round;stroke-linejoin: round;stroke-width: 4.08369984807998px"/>
        <path d="M98.9,121.45A74.49,74.49,0,0,1,82.13,85.18,20.29,20.29,0,0,1,82.88,76c1.45-4.68,5.09-8.37,9.29-9.4s8.21.91,10.56,4.92C106,77.3,112,91,116.79,100.34" style="fill: none;stroke: #fff;stroke-linecap: round;stroke-linejoin: round;stroke-width: 4.08369984807998px;stroke-dasharray: 31.526735305786133,7.165166854858398"/>
        <path d="M118.44,103.64c.78,1.56,1.45,2.91,2,4,1.6,3.31-.18,7-4.18,8.18" style="fill: none;stroke: #fff;stroke-linecap: round;stroke-linejoin: round;stroke-width: 4.08369984807998px"/>
      </g>
      <path d="M97.26,89.93c.78,2.17,1.66,4.32,2.65,6.43C99,94.19,98.11,92,97.26,89.93Z" style="fill: none;stroke: #fff;stroke-linecap: round;stroke-linejoin: round;stroke-width: 4.08369984807998px"/>
    </g>
  </g>
</svg>
