<svg id="Layer_1" data-name="Layer 1" xmlns="http://www.w3.org/2000/svg" width="200" height="200" viewBox="0 0 200 200">
  <title>topic-icon</title>
  <g>
    <rect x="-6.5" y="-7.5" width="210" height="212" style="fill: #657c8e"/>
    <path d="M203-7V204H-6V-7H203m1-1H-7V205H204V-8Z"/>
  </g>
  <path d="M177.58,159.94,172,151.38a2.54,2.54,0,0,0-2.32-1c-2.08.16-3.82,1.11-4.31,2.43l-4,9.86-7.39-11.33a2.55,2.55,0,0,0-2.32-1c-2.08.16-3.82,1.11-4.31,2.43l-4,9.86-8-12.24c-2.78-.37-5.41.71-6,2.38l-4,9.85-7.4-11.32a2.52,2.52,0,0,0-2.31-1c-2.08.16-3.83,1.11-4.32,2.43l-4,9.86L99.7,151.37a2.4,2.4,0,0,0-2.13-1c-2.16.12-4,1.08-4.5,2.44l-4,9.85-7.4-11.33a2.43,2.43,0,0,0-2.13-1h-.12a3.69,3.69,0,0,0-2.21-.74H62a3.73,3.73,0,0,0-3.73,3.73v10.78A3.73,3.73,0,0,0,62,167.92h7.53A2.6,2.6,0,0,0,70,168c.31,0,.63,0,.93-.07h6.21a3.73,3.73,0,0,0,3.73-3.73v-5.45l5.54,8.49a2,2,0,0,0,1.65.76c2.34,0,4.43-1,5-2.42L97,155.72l7.53,11.51a2,2,0,0,0,1.65.76c2.34,0,4.43-1,5-2.42l3.94-9.84,7.52,11.5a2,2,0,0,0,1.65.76c2.33,0,4.42-1,4.95-2.42l4-9.84,7.59,11.61a1.66,1.66,0,0,0,1.31.65c2.44,0,4.68-.94,5.23-2.42l3.94-9.83,8,12.17c2.78.37,5.54-.68,6.16-2.34l3.94-9.84,4.15,6.36a20.26,20.26,0,0,0,5.94,5.78l.71.46A14.75,14.75,0,0,0,177.58,159.94Z" style="fill: #fff"/>
  <g>
    <path d="M138.5,32.5H15.5c0,7,18,21,35,21h87Z" style="fill: #fff"/>
    <path d="M62.81,35.5c-3.46,3-9.91,5-17.31,5s-13.85-2-17.31-5Z" style="fill: #657c8e"/>
  </g>
  <g>
    <path d="M54.48,167.86a17.15,17.15,0,0,1-12.21-5.05l-4.58-4.58a17.27,17.27,0,0,1,0-24.41l98.63-98.63a17.27,17.27,0,0,1,24.41,0l4.58,4.58a17.27,17.27,0,0,1,0,24.41L66.68,162.81A17.13,17.13,0,0,1,54.48,167.86Z" style="fill: #fff"/>
    <path d="M148.52,31.64a15.7,15.7,0,0,1,11.15,4.61l4.58,4.58a15.79,15.79,0,0,1,0,22.29L65.62,161.75a15.78,15.78,0,0,1-22.29,0l-4.58-4.58a15.79,15.79,0,0,1,0-22.29l98.63-98.63a15.66,15.66,0,0,1,11.14-4.61m0-3a18.69,18.69,0,0,0-13.26,5.49L36.63,132.76a18.75,18.75,0,0,0,0,26.53l4.58,4.58a18.77,18.77,0,0,0,26.53,0l98.63-98.63a18.75,18.75,0,0,0,0-26.53l-4.58-4.58a18.72,18.72,0,0,0-13.27-5.49Z" style="fill: #657c8e"/>
  </g>
  <path d="M80.86,128.27h0a13.14,13.14,0,0,0-1.65-3.07A6,6,0,0,1,72.42,124a5.81,5.81,0,0,1-1.75-4.09,13.63,13.63,0,0,0-2-.15,8.37,8.37,0,0,0-1,0,6,6,0,0,1-6,6,5.89,5.89,0,0,1-3.26-1,12.75,12.75,0,0,0-1.68,2.82,6,6,0,0,1,0,10.3,14.17,14.17,0,0,0,1.39,2.43,6,6,0,0,1,6.79,1.18,5.81,5.81,0,0,1,1.75,4.09,13.6,13.6,0,0,0,2,.15,8.17,8.17,0,0,0,1-.05,6,6,0,0,1,6-5.95,5.9,5.9,0,0,1,3.27,1,13.08,13.08,0,0,0,1.62-2.69,6,6,0,0,1,.32-9.78Zm-12.07,10.5a6,6,0,1,1,6-6A6,6,0,0,1,68.79,138.77Z" style="fill: #657c8e"/>
</svg>
