<svg id="Layer_1" data-name="Layer 1" xmlns="http://www.w3.org/2000/svg" width="200" height="200" viewBox="0 0 200 200">
  <title>topic-icon</title>
  <path d="M-9-7V140.1c19.66,6,38.45,23.56,59,26.68,24,3.13,42-25.05,64-34.44,7-3.14,14-4.7,20,0,19.95,14.28,44.78,32.62,68,35V-7Z" style="fill: #fbe48f"/>
  <path d="M54.77,89.52c13,2.85,24.91,9.64,37.67,13.81,37.69,12.34,81.1,1.44,119.58-9.49-4.23,1.1.21,62.94.21,70.48v43.52H-58.09c0-32-1.08-64.16.26-96.15A327.53,327.53,0,0,0,10.66,96C20.77,92.49,31,88.4,42.17,88.2A54.55,54.55,0,0,1,54.77,89.52Z" style="fill: #f7c100"/>
  <path d="M150.66,41.28,87.79,95.1l26-1.33c-7,7-14.34,13.64-21.91,19.86A272.86,272.86,0,0,1,59.72,136.4,204.29,204.29,0,0,1,25.7,153a134.42,134.42,0,0,1-34.24,8.18L4.91,214.55a185.49,185.49,0,0,0,42-22.2A244.23,244.23,0,0,0,81.2,163.24a301.82,301.82,0,0,0,28.18-33.14,318.58,318.58,0,0,0,19.28-29.48l14.81,23.11Z" style="fill: #fff"/>
</svg>
