<svg id="Layer_1" data-name="Layer 1" xmlns="http://www.w3.org/2000/svg" width="109" height="109" viewBox="0 0 109 109">
  <title>twitter-icon</title>
  <circle cx="54.5" cy="54.5" r="45" style="fill: #fff"/>
  <path d="M54.5,0A54.5,54.5,0,1,0,109,54.5,54.67,54.67,0,0,0,54.5,0ZM82.2,43.6C83.11,61.77,69.49,82.2,45,82.2a38.14,38.14,0,0,1-20-5.9,26,26,0,0,0,19.53-5.45c-5.91,0-10.45-4.09-12.26-9.08a13,13,0,0,0,5.9,0A12.29,12.29,0,0,1,27.7,49.05a22.74,22.74,0,0,0,5.91,1.82,13.06,13.06,0,0,1-4.09-17.26,36.87,36.87,0,0,0,26.8,13.62A12.89,12.89,0,0,1,69,31.34a12.37,12.37,0,0,1,9.54,4.08,22,22,0,0,0,8.18-3.17c-.91,3.17-3.18,5.45-5.91,7.26a19.41,19.41,0,0,0,7.27-2.27A25.8,25.8,0,0,1,82.2,43.6Z" style="fill: #b5bced"/>
</svg>
