<?xml version="1.0" encoding="utf-8"?>
<!-- Generator: Adobe Illustrator 24.2.3, SVG Export Plug-In . SVG Version: 6.00 Build 0)  -->
<svg version="1.1" id="Layer_1" xmlns="http://www.w3.org/2000/svg" xmlns:xlink="http://www.w3.org/1999/xlink" x="0px" y="0px"
	 viewBox="0 0 109 109" style="enable-background:new 0 0 109 109;" xml:space="preserve">
<style type="text/css">
	.st0{fill:#FFFFFF;}
	.st1{fill:#B5BCED;}
</style>
<circle class="st0" cx="54.5" cy="54.5" r="45"/>
<path class="st1" d="M54.5,0C24.4,0,0,24.4,0,54.5S24.4,109,54.5,109S109,84.6,109,54.5C108.9,24.4,84.6,0.1,54.5,0z M90.3,39.4
	c1.2,23.9-16.7,50.8-48.9,50.8c-9.3-0.1-18.4-2.8-26.3-7.8c9.2,1.2,18.4-1.4,25.7-7.2c-7.8,0-13.7-5.4-16.1-11.9
	c2.6,0.6,5.2,0.6,7.8,0c-8.2-1.2-14.2-8.4-13.8-16.7c2.5,1.1,5.1,2,7.8,2.4c-7.4-5-9.8-14.9-5.4-22.7C29.7,37,42.5,43.5,56.3,44.2
	c-2.2-9.1,3.4-18.3,12.5-20.4c1.4-0.3,2.7-0.5,4.1-0.5c4.8-0.1,9.4,1.8,12.5,5.4c3.8-0.7,7.5-2.1,10.8-4.2c-1.2,4.2-4.2,7.2-7.8,9.5
	c3.4-0.4,6.6-1.4,9.6-3C95.9,34.3,93.3,37.1,90.3,39.4z"/>
</svg>
