<svg id="Layer_1" data-name="Layer 1" xmlns="http://www.w3.org/2000/svg" xmlns:xlink="http://www.w3.org/1999/xlink" width="200.82" height="200.82" viewBox="0 0 200.82 200.82">
  <defs>
    <clipPath id="clip-path">
      <circle cx="100.41" cy="100.41" r="100.41" style="fill: none"/>
    </clipPath>
  </defs>
  <title>workIcons</title>
  <g style="clip-path: url(#clip-path)">
    <g>
      <circle cx="100.41" cy="100.41" r="100.41" style="fill: #f8ca26"/>
      <text transform="translate(116.58 195.59) rotate(-16.28)" style="font-size: 23.870750427246094px;fill: #3e4e57;font-family: Comfortaa-Bold, Comfortaa;font-weight: 700">W</text>
      <text transform="translate(144.47 185.66) rotate(-29.55)" style="font-size: 23.870750427246094px;fill: #3e4e57;font-family: Comfortaa-Bold, Comfortaa;font-weight: 700">I</text>
      <text transform="matrix(0.76, -0.66, 0.66, 0.76, 156.72, 178.48)" style="font-size: 23.870750427246094px;fill: #3e4e57;font-family: Comfortaa-Bold, Comfortaa;font-weight: 700">X</text>
    </g>
    <g id="_380-wix" data-name="380-wix">
      <g>
        <path d="M87,77.23,78.81,109,72,83c-1.84-7.66-5-11.62-11.6-11.62S50.65,75.26,48.79,83L42,109l-8.2-31.78c-1.33-6.39-7.53-9.16-13.24-8.44l15.7,59.38s5.18.37,7.78-.95c3.4-1.74,5-3.08,7.08-11.15,1.84-7.21,7-28.36,7.46-29.87,1.14-3.58,2.65-3.31,3.68,0,.48,1.51,5.62,22.66,7.46,29.87,2.06,8.07,3.68,9.41,7.08,11.15,2.6,1.32,7.78.95,7.78.95l15.7-59.38C94.4,68.05,88.32,70.93,87,77.23Zm27.73,1.25a9.55,9.55,0,0,1-3.22,2.77c-1.44.81-2.83,1.35-4.31,2.07-3.63,1.73-3.16,3.34-3.16,8.43v36.42s4,.5,6.56-.82c3.34-1.7,4.1-3.34,4.13-10.73v-36h0V78.48Zm39.14,20.14L173.81,69s-8.41-1.43-12.57,2.36c-3.19,2.9-5.85,7.08-13,17.36-.11.17-1.5,2.52-3.13,0-7-10.11-9.77-14.44-13-17.36C128,67.55,119.58,69,119.58,69l19.93,29.64-19.88,29.55s8.76,1.1,12.93-2.69c2.75-2.5,4.21-4.88,12.57-16.94,1.63-2.52,3-.18,3.13,0,7,10.15,9.4,13.91,12.73,16.94,4.16,3.79,12.77,2.69,12.77,2.69L153.88,98.62Z" style="fill: #fff"/>
        <path d="M114.74,68.72c0,3.12.5,7.83-6.87,10.5a12,12,0,0,0-3.82,2.31c0-7.42,1.13-10.11,4.17-11.7C110.56,68.61,114.74,68.72,114.74,68.72Z" style="fill: #dfe0f0"/>
      </g>
    </g>
  </g>
</svg>
