<?xml version="1.0" encoding="utf-8"?>
<!-- Generator: Adobe Illustrator 24.2.3, SVG Export Plug-In . SVG Version: 6.00 Build 0)  -->
<svg version="1.1" id="Layer_1" xmlns="http://www.w3.org/2000/svg" xmlns:xlink="http://www.w3.org/1999/xlink" x="0px" y="0px"
	 viewBox="0 0 200.8 200.8" style="enable-background:new 0 0 200.8 200.8;" xml:space="preserve">
<style type="text/css">
	.st0{clip-path:url(#SVGID_2_);}
	.st1{fill:#FFFFFF;}
	.st2{enable-background:new    ;}
	.st3{fill:#3E4E57;}
	.st4{fill:#FCE699;}
	.st5{fill:#DFE0F0;}
</style>
<g>
	<g>
		<defs>
			<circle id="SVGID_1_" cx="100.4" cy="100.4" r="100.4"/>
		</defs>
		<clipPath id="SVGID_2_">
			<use xlink:href="#SVGID_1_"  style="overflow:visible;"/>
		</clipPath>
		<g class="st0">
			<g>
				<circle class="st1" cx="100.4" cy="100.4" r="100.4"/>
				<g>
					<g class="st2">
						<path class="st3" d="M132.4,171.8c0.2,0.1,0.4,0.4,0.4,0.7c0.1,0.2,0.1,0.5,0.1,0.7l-0.1,16.6c0,0.3-0.1,0.6-0.3,0.8
							s-0.4,0.4-0.6,0.5c-0.3,0.1-0.5,0.1-0.8,0s-0.5-0.3-0.7-0.5l-7.3-12.2l0.4,14.2c0,0.3-0.1,0.6-0.3,0.8
							c-0.2,0.2-0.4,0.4-0.6,0.5c-0.3,0.1-0.5,0.1-0.8,0s-0.5-0.3-0.7-0.6l-9.1-14c-0.1-0.2-0.2-0.4-0.3-0.6c-0.1-0.3-0.1-0.6,0-0.8
							s0.3-0.4,0.6-0.5c0.3-0.1,0.5-0.1,0.8,0c0.2,0.1,0.5,0.3,0.6,0.5l7.6,12L121,176c0-0.2,0.1-0.5,0.2-0.7
							c0.2-0.2,0.4-0.4,0.7-0.4c0.3-0.1,0.5-0.1,0.8,0s0.4,0.2,0.6,0.5l7.3,12l-0.1-14.4c0-0.3,0.1-0.5,0.2-0.7
							c0.2-0.2,0.4-0.3,0.7-0.4C132,171.7,132.2,171.7,132.4,171.8z"/>
					</g>
					<g class="st2">
						<path class="st3" d="M137.8,168.4c0.1-0.3,0.3-0.6,0.6-0.7c0.3-0.2,0.6-0.2,0.9-0.1c0.3,0.1,0.6,0.3,0.7,0.6l8,14.1
							c0.2,0.3,0.2,0.6,0.1,0.9c-0.1,0.3-0.3,0.6-0.6,0.8s-0.6,0.2-0.9,0.1c-0.3-0.1-0.6-0.3-0.7-0.6l-8-14.1
							C137.8,169,137.7,168.7,137.8,168.4z"/>
					</g>
					<g class="st2">
						<path class="st3" d="M167.3,166.6c0.3,0.1,0.5,0.2,0.7,0.4s0.3,0.5,0.3,0.8s-0.1,0.6-0.4,0.8c-0.3,0.3-0.6,0.4-1,0.3l-8.7-2
							l0.6,9.2c0,0.3-0.2,0.6-0.4,0.8c-0.3,0.2-0.5,0.3-0.8,0.3s-0.6-0.2-0.8-0.4s-0.3-0.5-0.3-0.8l-0.7-9.3l-8.8-2.1
							c-0.3-0.1-0.5-0.2-0.7-0.4c-0.2-0.3-0.3-0.5-0.3-0.9c0-0.3,0.1-0.6,0.4-0.8c0.3-0.3,0.6-0.4,0.9-0.3l8.6,2l-0.6-8.9
							c0-0.3,0.2-0.6,0.4-0.9c0.3-0.2,0.5-0.3,0.8-0.3s0.6,0.2,0.8,0.4s0.3,0.5,0.3,0.8l0.7,9.1L167.3,166.6z"/>
					</g>
				</g>
			</g>
			<g id="_380-wix">
				<g>
					<path class="st4" d="M87,77.2L78.8,109L72,83c-1.8-7.7-5-11.6-11.6-11.6S50.7,75.3,48.8,83L42,109l-8.2-31.8
						c-1.3-6.4-7.5-9.2-13.2-8.4l15.7,59.4c0,0,5.2,0.4,7.8-0.9c3.4-1.7,5-3.1,7.1-11.2c1.8-7.2,7-28.4,7.5-29.9
						c1.1-3.6,2.7-3.3,3.7,0c0.5,1.5,5.6,22.7,7.5,29.9c2.1,8.1,3.7,9.4,7.1,11.2c2.6,1.3,7.8,0.9,7.8,0.9l15.7-59.4
						C94.4,68.1,88.3,70.9,87,77.2z M114.7,78.5c-0.9,1.2-2,2.1-3.2,2.8c-1.4,0.8-2.8,1.3-4.3,2.1c-3.6,1.7-3.2,3.3-3.2,8.4v36.4
						c0,0,4,0.5,6.6-0.8c3.3-1.7,4.1-3.3,4.1-10.7v-36l0,0C114.7,80.6,114.7,78.5,114.7,78.5z M153.9,98.6L173.8,69
						c0,0-8.4-1.4-12.6,2.4c-3.2,2.9-5.9,7.1-13,17.4c-0.1,0.2-1.5,2.5-3.1,0c-7-10.1-9.8-14.4-13-17.4c-4.1-3.8-12.5-2.4-12.5-2.4
						l19.9,29.6l-19.9,29.6c0,0,8.8,1.1,12.9-2.7c2.8-2.5,4.2-4.9,12.6-16.9c1.6-2.5,3-0.2,3.1,0c7,10.2,9.4,13.9,12.7,16.9
						c4.2,3.8,12.8,2.7,12.8,2.7L153.9,98.6L153.9,98.6z"/>
					<path class="st5" d="M114.7,68.7c0,3.1,0.5,7.8-6.9,10.5c-1.4,0.5-2.7,1.3-3.8,2.3c0-7.4,1.1-10.1,4.2-11.7
						C110.6,68.6,114.7,68.7,114.7,68.7z"/>
				</g>
			</g>
		</g>
	</g>
</g>
</svg>
