<svg id="Layer_1" data-name="Layer 1" xmlns="http://www.w3.org/2000/svg" xmlns:xlink="http://www.w3.org/1999/xlink" width="200.82" height="200.82" viewBox="0 0 200.82 200.82">
  <defs>
    <clipPath id="clip-path">
      <circle cx="100.41" cy="100.41" r="100.41" style="fill: none"/>
    </clipPath>
  </defs>
  <title>workIcons</title>
  <g style="clip-path: url(#clip-path)">
    <circle cx="100.41" cy="100.41" r="100.41" style="fill: #b2bdc6"/>
    <circle cx="100.41" cy="100.41" r="100.41" style="fill: #3e4e57"/>
    <text transform="translate(55.43 185.51) rotate(22.88)" style="font-size: 23.870750427246094px;fill: #fff;font-family: Comfortaa-Bold, Comfortaa;font-weight: 700">A</text>
    <text transform="translate(78.3 194.19) rotate(7.63)" style="font-size: 23.870750427246094px;fill: #fff;font-family: Comfortaa-Bold, Comfortaa;font-weight: 700">D</text>
    <text transform="translate(104.29 196.83) rotate(-8.78)" style="font-size: 23.870750427246094px;fill: #fff;font-family: Comfortaa-Bold, Comfortaa;font-weight: 700">O</text>
    <text transform="translate(133.55 190.82) rotate(-25.31)" style="font-size: 23.870750427246094px;fill: #fff;font-family: Comfortaa-Bold, Comfortaa;font-weight: 700">B</text>
    <text transform="matrix(0.77, -0.64, 0.64, 0.77, 155.51, 179.32)" style="font-size: 23.870750427246094px;fill: #fff;font-family: Comfortaa-Bold, Comfortaa;font-weight: 700">E</text>
    <text transform="matrix(0.63, -0.78, 0.78, 0.63, 172.81, 163.36)" style="font-size: 23.870750427246094px;fill: #fff;font-family: Comfortaa-Bold, Comfortaa;font-weight: 700"> </text>
    <text transform="translate(181.41 152.43) rotate(-62.33)" style="font-size: 23.870750427246094px;fill: #fff;font-family: Comfortaa-Bold, Comfortaa;font-weight: 700">X</text>
    <text transform="matrix(0.21, -0.98, 0.98, 0.21, 192.09, 130.07)" style="font-size: 23.870750427246094px;fill: #fff;font-family: Comfortaa-Bold, Comfortaa;font-weight: 700">D</text>
    <path d="M81.35,28.54H61.92L41.06,72.16,19.92,28.54h-20L28.24,85.18l-29.34,58H18.68L39.91,98.73l21.47,44.45H82.79L52.55,84.5Zm53.71,0V57.69h-5.6c-19.11,0-42.2,12.32-42.2,43.79,0,24.33,12.32,42.61,38.58,42.61,19.33,0,28.44-6.68,28.44-6.68V28.54Zm0,98.81s-2.21,1-7.44,1-21.24-2.3-21.24-27.7,18.41-27.43,22.84-27.43S135,74.43,135,74.43v52.92Z" style="fill: #cfd0e9"/>
  </g>
</svg>
