<?xml version="1.0" encoding="utf-8"?>
<!-- Generator: Adobe Illustrator 24.0.3, SVG Export Plug-In . SVG Version: 6.00 Build 0)  -->
<svg version="1.1" xmlns="http://www.w3.org/2000/svg" xmlns:xlink="http://www.w3.org/1999/xlink" x="0px" y="0px"
	 viewBox="0 0 194.3 90.5" style="enable-background:new 0 0 194.3 90.5;" xml:space="preserve">
<style type="text/css">
	.st0{fill:#F5BF25;}
	.st1{fill:#3E4E57;}
	.st2{fill:#6F7C8E;}
</style>
<g id="Layer_1">
	<title>hoeke-wdd-logo</title>
	<g>
		<g>
			<polygon class="st0" points="188.2,64.5 170.4,64.5 170.4,60.2 183.3,60.2 183.3,9.2 170.4,9.2 170.4,5 188.2,5 			"/>
			<polygon class="st0" points="6.2,64.2 22.8,64.2 22.8,60 11.4,60 11.4,8.9 24.3,8.9 24.3,4.7 6.2,4.7 			"/>
		</g>
		<g>
			<path class="st1" d="M84.5,47c-0.6-1.5-1.5-2.8-2.7-3.9c-3.7-3.6-9.2-4.6-14-2.6c-1.5,0.6-2.8,1.5-4,2.7
				c-3.6,3.5-4.6,8.9-2.7,13.5c0.4,0.9,0.9,1.8,1.5,2.6H55V47.1c0-1.9-0.8-3.8-2.2-5.1c-1.6-1.4-3.7-2.1-5.8-2
				c-2.2,0.1-4.3,0.7-6.2,1.9c-1.8,1.1-3.2,2.8-4,4.7l0.2-2.8v-18h8.2V21h-13v38.2h-4v5H37V52.7c0-1,0.2-2.1,0.7-3s1.1-1.7,1.8-2.4
				c0.8-0.7,1.6-1.2,2.6-1.6c1-0.4,2.1-0.6,3.1-0.6c2.4-0.2,4.6,1.6,4.8,4.1c0,0,0,0,0,0.1v0.1l-0.1,9.8v5h23c1.7,0,3.4-0.3,5-1
				c1.5-0.6,2.9-1.5,4-2.7c1.1-1.1,2-2.5,2.7-3.9C85.9,53.6,85.9,50.1,84.5,47L84.5,47z M79.5,54.7c-0.3,0.9-0.9,1.7-1.5,2.3
				c-0.7,0.7-1.5,1.2-2.3,1.5c-2.7,1.2-5.9,0.6-8-1.5c-0.7-0.7-1.2-1.5-1.6-2.3c-0.7-1.8-0.7-3.9,0-5.7c0.4-0.9,0.9-1.6,1.5-2.3
				c0.7-0.7,1.5-1.2,2.3-1.5c2.7-1.2,5.9-0.6,8,1.6C80.1,48.8,80.7,52,79.5,54.7L79.5,54.7z"/>
			<path class="st1" d="M151.6,58.6c-1-0.5-1.8-1.2-2.5-2.1l8.5-3.2l8.5-3.1c-0.4-1.5-0.9-2.9-1.6-4.2c-0.7-1.2-1.5-2.3-2.5-3.3
				c-0.9-0.9-2-1.7-3.2-2.2s-2.5-0.8-3.7-0.8c-3.3,0-6.5,1.3-8.9,3.6c-3.6,3.5-4.7,8.9-2.7,13.5c0.4,0.9,0.9,1.8,1.5,2.6h-9.6
				c-1-1.4-2.1-2.8-3.1-4.2s-2-2.8-3-4.2c0.9-0.8,1.8-1.7,2.7-2.6s1.8-1.7,2.7-2.6h2.3v-5h-3.5l-11,10.3V21h-13.2v4.8h8v33.7H112
				c0,0-10-0.1-12-0.1c-1.2,0-2.4-0.3-3.5-0.8c-1-0.5-1.9-1.2-2.5-2.1l8.5-3.2l8.5-3.1c-0.4-1.5-0.9-2.9-1.6-4.2
				c-0.7-1.2-1.5-2.3-2.5-3.3c-0.9-0.9-2-1.7-3.2-2.2s-2.5-0.8-3.7-0.8c-1.7,0-3.4,0.3-4.9,1c-1.5,0.6-2.8,1.5-4,2.6
				c-3.6,3.5-4.7,8.9-2.7,13.5c1.3,3,3.7,5.3,6.7,6.6c1.6,0.7,3.2,1,4.9,1h22.6v-7.2l3.1-2.9c0.6,0.8,1.2,1.7,1.8,2.5
				c0.6,0.8,1.2,1.7,1.9,2.5l3.2,5h32.8v-5c-4.2-0.1-9.1-0.1-10.2-0.1C153.8,59.4,152.7,59.2,151.6,58.6z M94.7,46.8
				c1.4-1.3,3.3-2,5.3-1.9c0.9,0,1.7,0.2,2.4,0.7c0.8,0.5,1.4,1,2,1.7c-2,0.7-4,1.4-5.9,2.2c-1.9,0.7-3.9,1.4-5.9,2.2
				C92.7,49.8,93.4,48.1,94.7,46.8z M149.9,46.8c1.4-1.3,3.3-2,5.2-1.9c0.9,0,1.7,0.2,2.4,0.7c0.8,0.5,1.4,1,2,1.7
				c-2,0.7-4,1.4-5.9,2.2s-3.9,1.5-5.9,2.2C147.8,49.8,148.5,48.1,149.9,46.8z"/>
		</g>
	</g>
</g>
<g id="Layer_2">
	<g>
		<path class="st2" d="M21.8,73.4c0.1,0.1,0.1,0.2,0.1,0.3c0,0.1,0,0.1,0,0.2l-3.5,11c0,0.1-0.1,0.2-0.2,0.3
			c-0.1,0.1-0.2,0.1-0.3,0.1c-0.2,0-0.5-0.2-0.5-0.4l-3-9.3l-2.9,9.3c-0.1,0.2-0.3,0.4-0.5,0.4c-0.1,0-0.2,0-0.3-0.1
			c-0.1-0.1-0.2-0.2-0.2-0.3L6.8,74c0-0.1,0-0.1,0-0.2c0-0.1,0-0.3,0.1-0.4c0.1-0.1,0.2-0.1,0.4-0.1c0.2,0,0.4,0.1,0.5,0.4l3.1,9.7
			l3-9.3c0-0.1,0.1-0.2,0.2-0.2c0.1,0,0.2-0.1,0.3-0.1c0.1,0,0.2,0,0.3,0.1c0.1,0.1,0.2,0.1,0.2,0.2l3,9.2l3.1-9.7
			c0-0.1,0.1-0.2,0.2-0.2c0.1-0.1,0.2-0.1,0.3-0.1C21.6,73.3,21.7,73.3,21.8,73.4z"/>
		<path class="st2" d="M32.2,84.6c0.1,0.1,0.2,0.2,0.2,0.3c0,0.1-0.1,0.3-0.2,0.3c-0.1,0.1-0.2,0.1-0.4,0.1h-8.3
			c-0.1,0-0.3,0-0.4-0.1c-0.1-0.1-0.2-0.2-0.1-0.3V73.8c0-0.1,0.1-0.2,0.1-0.3c0.1-0.1,0.2-0.1,0.4-0.1h8.3c0.1,0,0.3,0,0.4,0.1
			c0.1,0.1,0.2,0.2,0.2,0.3c0,0.1-0.1,0.2-0.2,0.3c-0.1,0.1-0.2,0.1-0.4,0.1h-7.7v4.6h5.7c0.1,0,0.3,0,0.4,0.1
			c0.1,0.1,0.2,0.2,0.1,0.3c0,0.1-0.1,0.3-0.1,0.3c-0.1,0.1-0.2,0.1-0.4,0.1h-5.7v4.6h7.7C32,84.4,32.1,84.5,32.2,84.6z"/>
		<path class="st2" d="M40.3,73.7c0.5,0.2,0.9,0.6,1.3,1c0.3,0.4,0.5,1,0.5,1.5c0,0.6-0.2,1.1-0.5,1.6c-0.4,0.5-0.8,0.8-1.4,1
			c0.7,0.2,1.4,0.5,1.9,1.1c0.5,0.6,0.7,1.3,0.7,2c0,1.3-0.7,2.5-1.9,3.1c-0.6,0.3-1.3,0.5-2,0.4h-4.3c-0.2,0-0.3,0-0.5-0.1
			c-0.1-0.1-0.2-0.2-0.2-0.3V73.8c0-0.1,0-0.3,0.1-0.3c0.1-0.1,0.2-0.1,0.4-0.1h4.2C39.2,73.3,39.8,73.4,40.3,73.7z M40.3,77.8
			c0.5-0.4,0.7-1,0.7-1.6c0-0.6-0.2-1.1-0.7-1.5c-0.5-0.4-1.2-0.6-1.8-0.5h-3.7v4.2h3.7C39.2,78.4,39.9,78.2,40.3,77.8L40.3,77.8z
			 M40.3,84.1c0.4-0.2,0.8-0.5,1-0.9c0.3-0.4,0.4-0.9,0.4-1.3c0-0.5-0.1-0.9-0.4-1.3c-0.2-0.4-0.6-0.7-1-0.9c-0.5-0.2-1-0.3-1.5-0.3
			h-4v5.1h4C39.4,84.5,39.9,84.3,40.3,84.1L40.3,84.1z"/>
		<path class="st2" d="M58.1,84.6c0,0.1-0.1,0.2-0.2,0.3C57.8,85,57.7,85,57.6,85c-0.1,0-0.3-0.1-0.4-0.1l-1.9-1.7l-0.5,0.5
			c-0.5,0.5-1.2,1-1.8,1.3c-0.6,0.3-1.2,0.4-1.9,0.4c-0.7,0-1.3-0.1-1.9-0.3c-0.5-0.2-0.9-0.6-1.3-1c-0.3-0.4-0.4-0.9-0.4-1.4
			c0-0.6,0.2-1.3,0.6-1.8c0.6-0.7,1.3-1.3,2.1-1.9l0.3-0.2l-0.9-0.8c-0.4-0.3-0.7-0.7-0.9-1.1c-0.2-0.4-0.3-0.8-0.3-1.2
			c0-0.4,0.1-0.9,0.4-1.2c0.2-0.4,0.6-0.7,1-0.9c0.5-0.2,1-0.3,1.5-0.3c0.5,0,1,0.1,1.5,0.3c0.4,0.2,0.8,0.5,1.1,0.9
			c0.3,0.4,0.4,0.8,0.4,1.3c0,0.6-0.2,1.1-0.5,1.5c-0.4,0.5-0.9,1-1.5,1.4l-0.3,0.2l3.5,3.1l1.5-1.4c0.1-0.1,0.2-0.2,0.4-0.2
			c0.1,0,0.2,0.1,0.3,0.1c0.1,0.1,0.2,0.2,0.2,0.3c0,0.1-0.1,0.2-0.2,0.3l-1.5,1.5l1.9,1.7C58,84.4,58.1,84.5,58.1,84.6z M54.6,82.5
			l-3.6-3.2l-0.4,0.3c-0.7,0.4-1.2,1-1.7,1.6c-0.3,0.4-0.5,0.9-0.5,1.5c0,0.5,0.3,1,0.7,1.3c0.6,0.4,1.2,0.6,1.9,0.5
			c0.5,0,1-0.1,1.5-0.4c0.5-0.3,1.1-0.7,1.5-1.1L54.6,82.5z M51.2,78.3l0.4-0.3c0.4-0.3,0.8-0.6,1.1-1.1c0.3-0.3,0.4-0.8,0.4-1.2
			c0-0.5-0.2-0.9-0.5-1.2c-0.4-0.3-0.9-0.5-1.4-0.5c-0.5,0-0.9,0.2-1.3,0.5c-0.3,0.3-0.5,0.7-0.5,1.1c0,0.3,0.1,0.7,0.2,0.9
			c0.2,0.3,0.4,0.6,0.7,0.8L51.2,78.3z"/>
		<path class="st2" d="M70.7,74.1c1,0.5,1.8,1.2,2.4,2.1c1.1,1.9,1.1,4.3,0,6.2c-0.6,0.9-1.4,1.7-2.4,2.1c-1.1,0.5-2.6,0.7-3.5,0.8
			c-0.8,0-3.1,0-3.1,0c-0.1,0-0.3,0-0.4-0.1c-0.1-0.1-0.1-0.2-0.1-0.3V73.8c0-0.1,0-0.3,0.1-0.3c0.1-0.1,0.2-0.1,0.4-0.1
			c0,0,2.3,0,3.1,0C68.1,73.3,69.6,73.5,70.7,74.1z M70.1,83.8c1.7-0.9,2.8-2.6,2.7-4.5c0-0.9-0.2-1.9-0.7-2.7
			c-0.5-0.8-1.2-1.4-2-1.9c-0.9-0.5-2.2-0.6-2.9-0.7c-0.6,0-2.6,0-2.6,0v10.4c0,0,1.9,0,2.6,0C68,84.5,69.2,84.3,70.1,83.8z"/>
		<path class="st2" d="M75.8,73.4c0.2-0.2,0.5-0.2,0.7,0c0.1,0.1,0.1,0.2,0.1,0.3v11.1c0,0.1,0,0.2-0.1,0.3c-0.2,0.2-0.5,0.2-0.7,0
			c-0.1-0.1-0.2-0.2-0.1-0.3V73.8C75.6,73.6,75.7,73.5,75.8,73.4z"/>
		<path class="st2" d="M89.3,79.6c0.1,0.1,0.2,0.2,0.1,0.3v3.9c0,0.1,0,0.1,0,0.2c0,0.1,0,0.1-0.1,0.1c-1.2,1-2.7,1.4-4.2,1.3
			c-1.2,0-2.3-0.3-3.4-0.8c-1-0.5-1.8-1.3-2.4-2.3c-1.2-1.9-1.2-4.3,0-6.2c0.6-1,1.4-1.7,2.4-2.3c2.4-1.3,5.4-1.1,7.6,0.5
			c0.1,0.1,0.2,0.2,0.1,0.3c0,0.1,0,0.2-0.1,0.3c-0.1,0.1-0.2,0.2-0.4,0.1c-0.2,0-0.3-0.1-0.4-0.2c-1-0.7-2.2-1.1-3.5-1
			c-2,0-3.8,1-4.9,2.7c-0.5,0.8-0.8,1.7-0.8,2.6c0,0.9,0.3,1.8,0.8,2.6c0.5,0.8,1.2,1.4,2.1,1.9c0.9,0.5,1.9,0.7,2.8,0.7
			c1.2,0,2.3-0.3,3.3-1v-3.3h-2.9c-0.1,0-0.3,0-0.4-0.1C85.1,80.1,85,80,85,79.8c0-0.1,0.1-0.2,0.1-0.3c0.1-0.1,0.2-0.1,0.4-0.1H89
			C89.1,79.5,89.2,79.5,89.3,79.6z"/>
		<path class="st2" d="M91.3,73.4c0.2-0.2,0.5-0.2,0.7,0c0.1,0.1,0.1,0.2,0.1,0.3v11.1c0,0.1,0,0.2-0.1,0.3c-0.2,0.2-0.5,0.2-0.7,0
			c-0.1-0.1-0.2-0.2-0.1-0.3V73.8C91.2,73.6,91.2,73.5,91.3,73.4z"/>
		<path class="st2" d="M103.7,73.4c0.1,0.1,0.1,0.2,0.1,0.3c0,0.1,0,0.2-0.1,0.3c-0.1,0.1-0.2,0.1-0.3,0.1H99v10.8
			c0,0.1-0.1,0.2-0.1,0.3c-0.2,0.2-0.5,0.2-0.7,0C98,85.1,98,85,98,84.9V74.1h-4.3c-0.1,0-0.2,0-0.3-0.1c-0.1-0.1-0.1-0.2-0.1-0.3
			c0-0.1,0-0.2,0.1-0.3c0.1-0.1,0.2-0.1,0.3-0.1h9.7C103.5,73.3,103.6,73.3,103.7,73.4z"/>
		<path class="st2" d="M113.5,84.9c0,0.1-0.1,0.2-0.1,0.3c-0.1,0.1-0.2,0.1-0.4,0.1c-0.2,0-0.4-0.1-0.5-0.3l-1.3-2.7h-7l-1.3,2.7
			c-0.1,0.2-0.3,0.3-0.5,0.3c-0.1,0-0.3,0-0.4-0.1c-0.1-0.1-0.1-0.2-0.1-0.3c0-0.1,0-0.1,0-0.2l5.2-11.1c0.1-0.2,0.3-0.3,0.5-0.3
			c0.2,0,0.4,0.1,0.5,0.3l5.2,11.1C113.5,84.7,113.5,84.8,113.5,84.9z M110.8,81.5l-3.1-6.7l-3.1,6.7H110.8z"/>
		<path class="st2" d="M122.9,84.7c0.1,0.1,0.2,0.2,0.1,0.3c0,0.1-0.1,0.2-0.1,0.3c-0.1,0.1-0.2,0.1-0.4,0.1h-7.6
			c-0.1,0-0.3,0-0.4-0.1c-0.1-0.1-0.2-0.2-0.2-0.3V73.8c0-0.1,0.1-0.3,0.2-0.3c0.1-0.1,0.2-0.1,0.4-0.1c0.1,0,0.3,0,0.4,0.1
			c0.1,0.1,0.1,0.2,0.1,0.3v10.8h7.1C122.6,84.5,122.8,84.6,122.9,84.7z"/>
		<path class="st2" d="M135.2,74.1c2.9,1.4,4.1,4.9,2.7,7.8c-0.6,1.2-1.5,2.1-2.7,2.7c-1.1,0.5-2.6,0.7-3.5,0.8c-0.8,0-3.1,0-3.1,0
			c-0.1,0-0.3,0-0.4-0.1c-0.1-0.1-0.2-0.2-0.1-0.3V73.8c0-0.1,0-0.3,0.1-0.3c0.1-0.1,0.2-0.1,0.4-0.1c0,0,2.3,0,3.1,0
			C132.6,73.3,134.1,73.5,135.2,74.1z M134.6,83.8c1.7-0.9,2.8-2.6,2.7-4.5c0-0.9-0.2-1.9-0.7-2.7c-0.5-0.8-1.2-1.4-2-1.9
			c-0.9-0.5-2.2-0.6-2.9-0.7c-0.6,0-2.5,0-2.5,0v10.4c0,0,1.9,0,2.6,0C132.5,84.5,133.8,84.3,134.6,83.8L134.6,83.8z"/>
		<path class="st2" d="M149.3,84.6c0.1,0.1,0.2,0.2,0.2,0.3c0,0.1-0.1,0.2-0.2,0.3c-0.1,0.1-0.2,0.1-0.4,0.1h-8.3
			c-0.1,0-0.3,0-0.4-0.1c-0.1-0.1-0.2-0.2-0.1-0.3V73.8c0-0.1,0.1-0.2,0.1-0.3c0.1-0.1,0.2-0.1,0.4-0.1h8.3c0.1,0,0.3,0,0.4,0.1
			c0.1,0.1,0.2,0.2,0.2,0.3c0,0.1-0.1,0.2-0.2,0.3c-0.1,0.1-0.2,0.1-0.4,0.1h-7.8v4.6h5.7c0.1,0,0.3,0,0.4,0.1
			c0.1,0.1,0.1,0.2,0.1,0.3c0,0.1,0,0.3-0.1,0.3c-0.1,0.1-0.2,0.1-0.4,0.1h-5.7v4.6h7.7C149,84.4,149.2,84.5,149.3,84.6z"/>
		<path class="st2" d="M157,73.7c0.6,0.3,1.2,0.7,1.5,1.3c0,0.1,0.1,0.2,0.1,0.2c0,0.1,0,0.2-0.1,0.2c-0.1,0.1-0.1,0.1-0.2,0.2
			c-0.1,0-0.1,0-0.2,0c-0.2,0-0.4-0.1-0.5-0.2c-0.7-0.9-1.8-1.4-2.9-1.3c-0.8,0-1.6,0.2-2.2,0.6c-0.5,0.4-0.8,1-0.8,1.6
			c0,0.6,0.3,1.1,0.8,1.4c0.7,0.5,1.6,0.8,2.4,0.8c1.1,0.1,2.2,0.5,3.2,1.2c0.7,0.6,1,1.4,1,2.3c0,0.7-0.2,1.3-0.5,1.8
			c-0.4,0.5-0.9,1-1.5,1.2c-0.7,0.3-1.4,0.4-2.2,0.4c-1,0-1.9-0.2-2.8-0.6c-0.7-0.3-1.4-0.9-1.8-1.6c0-0.1-0.1-0.1,0-0.2
			c0-0.1,0-0.2,0.1-0.3c0.1-0.1,0.2-0.1,0.4-0.1c0.2,0,0.4,0.1,0.5,0.3c0.3,0.5,0.8,1,1.4,1.2c0.7,0.3,1.4,0.5,2.2,0.4
			c0.8,0,1.6-0.2,2.3-0.7c0.6-0.5,0.9-1.1,0.8-1.9c0-0.7-0.3-1.3-0.8-1.7c-0.7-0.5-1.6-0.8-2.5-0.9c-1.1-0.1-2.1-0.5-3-1.1
			c-0.7-0.5-1.1-1.3-1.1-2.1c0-0.6,0.2-1.1,0.5-1.6c0.4-0.5,0.9-0.9,1.4-1.1c0.7-0.3,1.4-0.4,2.1-0.4
			C155.5,73.1,156.3,73.3,157,73.7z"/>
		<path class="st2" d="M161.1,73.4c0.2-0.2,0.5-0.2,0.7,0c0.1,0.1,0.1,0.2,0.1,0.3v11.1c0,0.1,0,0.2-0.1,0.3c-0.2,0.2-0.5,0.2-0.7,0
			c-0.1-0.1-0.2-0.2-0.1-0.3V73.8C160.9,73.6,161,73.5,161.1,73.4z"/>
		<path class="st2" d="M174.6,79.6c0.1,0.1,0.2,0.2,0.1,0.3v3.9c0,0.1,0,0.1,0,0.2c0,0.1,0,0.1-0.1,0.1c-1.2,1-2.7,1.4-4.2,1.3
			c-1.2,0-2.3-0.3-3.4-0.8c-1-0.5-1.8-1.3-2.4-2.3c-1.2-1.9-1.2-4.3,0-6.2c0.6-1,1.4-1.7,2.4-2.3c2.4-1.3,5.4-1.1,7.6,0.5
			c0.1,0.1,0.2,0.2,0.1,0.3c0,0.1,0,0.2-0.1,0.3c-0.1,0.1-0.2,0.2-0.4,0.1c-0.2,0-0.3-0.1-0.4-0.2c-1-0.7-2.2-1.1-3.5-1
			c-2,0-3.8,1-4.9,2.7c-0.5,0.8-0.8,1.7-0.8,2.6c0,0.9,0.3,1.8,0.8,2.6c0.5,0.8,1.2,1.5,2.1,1.9c0.9,0.5,1.9,0.7,2.8,0.7
			c1.2,0,2.3-0.3,3.3-1v-3.3h-2.9c-0.1,0-0.3,0-0.4-0.1c-0.1-0.1-0.2-0.2-0.1-0.3c0-0.1,0.1-0.2,0.1-0.3c0.1-0.1,0.2-0.1,0.4-0.1
			h3.4C174.3,79.5,174.5,79.5,174.6,79.6z"/>
		<path class="st2" d="M186.2,73.4c0.1-0.1,0.2-0.1,0.4-0.1c0.1,0,0.3,0.1,0.4,0.1c0.1,0.1,0.2,0.2,0.1,0.3v11.1
			c0,0.1-0.1,0.2-0.1,0.3c-0.1,0.1-0.2,0.1-0.4,0.1c-0.1,0-0.3,0-0.4-0.1L177.5,75v9.9c0,0.1,0,0.2-0.1,0.3
			c-0.1,0.1-0.2,0.1-0.4,0.1c-0.1,0-0.3,0-0.4-0.1c-0.1-0.1-0.2-0.2-0.1-0.3V73.8c0-0.1,0.1-0.2,0.1-0.3c0.1-0.1,0.2-0.1,0.4-0.1
			c0.1,0,0.3,0.1,0.4,0.2l8.7,10.2v-9.9C186.1,73.6,186.1,73.5,186.2,73.4z"/>
	</g>
</g>
</svg>
