<svg id="Layer_1" data-name="Layer 1" xmlns="http://www.w3.org/2000/svg" width="234.72" height="105.12" viewBox="0 0 234.72 105.12">
  <title>hoeke-wdd-logo</title>
  <g>
    <rect x="0.21" y="-22" width="234.3" height="141.12" style="fill: none"/>
    <g>
      <g>
        <text transform="translate(27.02 94.41) scale(1.11 1)" style="isolation: isolate;font-size: 15.443049430847168px;fill: #6f7c8e;font-family: Comfortaa-Light, Comfortaa Light;font-weight: 300;letter-spacing: -0.057995163270887135em">WEB &amp; DIGI</text>
        <text transform="translate(113.58 94.41) scale(1.11 1)" style="isolation: isolate;font-size: 15.443049430847168px;fill: #6f7c8e;font-family: Comfortaa-Light, Comfortaa Light;font-weight: 300;letter-spacing: -0.13900608878287293em">T</text>
        <text transform="translate(122.33 94.41) scale(1.11 1)" style="isolation: isolate;font-size: 15.443049430847168px;fill: #6f7c8e;font-family: Comfortaa-Light, Comfortaa Light;font-weight: 300;letter-spacing: -0.057995163270887135em">AL DESIGN</text>
      </g>
      <g>
        <polygon points="207.69 73.45 189.94 73.45 189.94 69.19 202.81 69.19 202.81 18.35 189.94 18.35 189.94 14.09 207.69 14.09 207.69 73.45" style="fill: #f5bf25"/>
        <polygon points="26.23 73.17 42.79 73.17 42.79 68.91 31.45 68.91 31.45 18.06 44.31 18.06 44.31 13.8 26.23 13.8 26.23 73.17" style="fill: #f5bf25"/>
      </g>
      <g>
        <path d="M104.36,56a11.91,11.91,0,0,0-2.66-3.91,12.9,12.9,0,0,0-13.92-2.6,12.89,12.89,0,0,0-4,2.64A12.21,12.21,0,0,0,81.12,65.6a12.55,12.55,0,0,0,1.52,2.6H75V56.09A7,7,0,0,0,72.78,51,8.35,8.35,0,0,0,67,49a12.82,12.82,0,0,0-6.2,1.86,10.53,10.53,0,0,0-4,4.73l.2-2.76v-18h8.19V30.05h-13V68.18h-4v5H57V61.69a6.76,6.76,0,0,1,.68-3,8,8,0,0,1,1.82-2.38,8.24,8.24,0,0,1,2.58-1.61,8.7,8.7,0,0,1,3.11-.57,4.43,4.43,0,0,1,4.69,4.15.29.29,0,0,0,0,.13l-.11,9.76v5H92.7a12.61,12.61,0,0,0,5-1,12,12,0,0,0,4-2.66,12.44,12.44,0,0,0,2.66-3.91,12.2,12.2,0,0,0,0-9.56Zm-5,7.65A7.15,7.15,0,0,1,97.8,66a7.66,7.66,0,0,1-2.31,1.54A7.23,7.23,0,0,1,87.56,66,7.07,7.07,0,0,1,86,63.67,7.43,7.43,0,0,1,86,58a7.66,7.66,0,0,1,1.54-2.31,6.93,6.93,0,0,1,2.29-1.57,7.2,7.2,0,0,1,8,1.57A7.45,7.45,0,0,1,99.36,58,7.29,7.29,0,0,1,99.36,63.65Z" style="fill: #3e4e57"/>
        <path d="M171.21,67.59a6.61,6.61,0,0,1-2.48-2.09l8.49-3.14,8.49-3.13a16.9,16.9,0,0,0-1.63-4.16,14.22,14.22,0,0,0-2.48-3.29,10.55,10.55,0,0,0-3.19-2.17,9.41,9.41,0,0,0-3.73-.78,12.6,12.6,0,0,0-8.86,3.61,12.17,12.17,0,0,0-2.66,13.46,13,13,0,0,0,1.51,2.6h-9.56c-1-1.42-2.08-2.83-3.11-4.23s-2-2.81-3-4.22c.92-.84,1.83-1.7,2.7-2.58s1.77-1.72,2.69-2.56h2.25v-5h-3.45l-11,10.32V30.05H129.06v4.82h8V68.5H131.7s-10-.12-12-.12a7.48,7.48,0,0,1-3.47-.79,6.61,6.61,0,0,1-2.48-2.09l8.48-3.14,8.49-3.13a16.87,16.87,0,0,0-1.62-4.16,14.22,14.22,0,0,0-2.48-3.29,10.55,10.55,0,0,0-3.19-2.17,9.41,9.41,0,0,0-3.73-.78,12.62,12.62,0,0,0-4.92,1,12.89,12.89,0,0,0-4,2.64,12.24,12.24,0,0,0-2.65,13.46,12.45,12.45,0,0,0,6.63,6.58,12.62,12.62,0,0,0,4.92,1h22.49V66.3l3.07-2.87c.59.83,1.19,1.68,1.82,2.53s1.25,1.71,1.88,2.54l3.22,5h32.68v-5c-4.15-.06-9.13-.11-10.22-.11A7.5,7.5,0,0,1,171.21,67.59ZM114.54,55.82a7.2,7.2,0,0,1,5.2-1.92,4.56,4.56,0,0,1,2.41.66,7.7,7.7,0,0,1,2,1.73q-3,1.07-5.86,2.15t-5.86,2.17A6.84,6.84,0,0,1,114.54,55.82Zm54.94,0a7.2,7.2,0,0,1,5.2-1.92,4.59,4.59,0,0,1,2.42.66,7.7,7.7,0,0,1,2,1.73c-2,.71-4,1.43-5.86,2.15s-3.86,1.45-5.85,2.17A6.78,6.78,0,0,1,169.48,55.82Z" style="fill: #3e4e57"/>
      </g>
    </g>
  </g>
</svg>
