<svg id="Layer_1" data-name="Layer 1" xmlns="http://www.w3.org/2000/svg" width="194.3" height="90.5" viewBox="0 0 194.3 90.5">
  <title>hoeke-wdd-logo-FIX</title>
  <g id="Layer_1-2" data-name="Layer 1">
    <g>
      <g>
        <polygon points="188.2 64.5 170.4 64.5 170.4 60.2 183.3 60.2 183.3 9.2 170.4 9.2 170.4 5 188.2 5 188.2 64.5" style="fill: #f5bf25"/>
        <polygon points="6.2 64.2 22.8 64.2 22.8 60 11.4 60 11.4 8.9 24.3 8.9 24.3 4.7 6.2 4.7 6.2 64.2" style="fill: #f5bf25"/>
      </g>
      <g>
        <path d="M84.5,47a10.54,10.54,0,0,0-2.7-3.9,12.91,12.91,0,0,0-14-2.6,11.79,11.79,0,0,0-4,2.7,12.32,12.32,0,0,0-2.7,13.5,13.5,13.5,0,0,0,1.5,2.6H55V47.1A7,7,0,0,0,52.8,42,8.23,8.23,0,0,0,47,40a12.51,12.51,0,0,0-6.2,1.9,10.16,10.16,0,0,0-4,4.7l.2-2.8v-18h8.2V21h-13V59.2h-4v5H37V52.7a6.3,6.3,0,0,1,.7-3,10.77,10.77,0,0,1,1.8-2.4,8.69,8.69,0,0,1,2.6-1.6,8.53,8.53,0,0,1,3.1-.6A4.47,4.47,0,0,1,50,49.2v.2l-.1,9.8v5h23a12.41,12.41,0,0,0,5-1,10.9,10.9,0,0,0,4-2.7,15.1,15.1,0,0,0,2.7-3.9,11.89,11.89,0,0,0-.1-9.6Zm-5,7.7A6.13,6.13,0,0,1,78,57a6.51,6.51,0,0,1-2.3,1.5,7.21,7.21,0,0,1-8-1.5,8.68,8.68,0,0,1-1.6-2.3,8,8,0,0,1,0-5.7,9.13,9.13,0,0,1,1.5-2.3,6.51,6.51,0,0,1,2.3-1.5,7.07,7.07,0,0,1,8,1.6,6.89,6.89,0,0,1,1.6,7.9Z" style="fill: #3e4e57"/>
        <path d="M151.6,58.6a7.21,7.21,0,0,1-2.5-2.1l8.5-3.2,8.5-3.1a19.22,19.22,0,0,0-1.6-4.2,15.94,15.94,0,0,0-2.5-3.3,10.16,10.16,0,0,0-3.2-2.2,9.86,9.86,0,0,0-3.7-.8,12.9,12.9,0,0,0-8.9,3.6,12.14,12.14,0,0,0-2.7,13.5,13.5,13.5,0,0,0,1.5,2.6h-9.6c-1-1.4-2.1-2.8-3.1-4.2l-3-4.2c.9-.8,1.8-1.7,2.7-2.6s1.8-1.7,2.7-2.6H137v-5h-3.5l-11,10.3V21H109.3v4.8h8V59.5H112s-10-.1-12-.1a8.53,8.53,0,0,1-3.5-.8A6.41,6.41,0,0,1,94,56.5l8.5-3.2,8.5-3.1a19.22,19.22,0,0,0-1.6-4.2,15.94,15.94,0,0,0-2.5-3.3,10.16,10.16,0,0,0-3.2-2.2,9.86,9.86,0,0,0-3.7-.8,11.62,11.62,0,0,0-4.9,1,13.13,13.13,0,0,0-4,2.6,12.14,12.14,0,0,0-2.7,13.5,12.71,12.71,0,0,0,6.7,6.6,11.94,11.94,0,0,0,4.9,1h22.6V57.2l3.1-2.9c.6.8,1.2,1.7,1.8,2.5s1.2,1.7,1.9,2.5l3.2,5h32.8v-5c-4.2-.1-9.1-.1-10.2-.1A5.45,5.45,0,0,1,151.6,58.6ZM94.7,46.8a7.23,7.23,0,0,1,5.3-1.9,4,4,0,0,1,2.4.7,8.2,8.2,0,0,1,2,1.7c-2,.7-4,1.4-5.9,2.2s-3.9,1.4-5.9,2.2A7.32,7.32,0,0,1,94.7,46.8Zm55.2,0a7.15,7.15,0,0,1,5.2-1.9,4,4,0,0,1,2.4.7,8.2,8.2,0,0,1,2,1.7c-2,.7-4,1.4-5.9,2.2s-3.9,1.5-5.9,2.2A7,7,0,0,1,149.9,46.8Z" style="fill: #3e4e57"/>
      </g>
    </g>
  </g>
  <g>
    <g>
      <path d="M21.63,73.34a.6.6,0,0,1,.15.42.93.93,0,0,1-.05.3L18.3,85a.73.73,0,0,1-.26.39.63.63,0,0,1-.41.13.66.66,0,0,1-.41-.14A.81.81,0,0,1,17,85l-2.72-9.31L11.54,85a.79.79,0,0,1-.26.38.67.67,0,0,1-.82,0,.81.81,0,0,1-.25-.36L6.77,74.06a.88.88,0,0,1,0-.29.59.59,0,0,1,.16-.43.61.61,0,0,1,.44-.16.62.62,0,0,1,.64.47l2.91,9.5,2.76-9.23a.5.5,0,0,1,.23-.29.75.75,0,0,1,.78,0,.61.61,0,0,1,.23.3l2.78,9.24,2.92-9.58a.59.59,0,0,1,.64-.41A.54.54,0,0,1,21.63,73.34Z" style="fill: #6f7c8e"/>
      <path d="M23.25,85.3a.56.56,0,0,1-.19-.43v-11a.55.55,0,0,1,.19-.44.67.67,0,0,1,.47-.17h7.91a.67.67,0,0,1,.48.17.58.58,0,0,1,0,.84.77.77,0,0,1-.48.16H24.37v4.32h5.29a.68.68,0,0,1,.47.17.59.59,0,0,1,.19.42.57.57,0,0,1-.2.43.69.69,0,0,1-.46.17H24.37v4.37h7.26a.71.71,0,0,1,.48.16.54.54,0,0,1,.18.42.58.58,0,0,1-.18.42.72.72,0,0,1-.48.17H23.72A.67.67,0,0,1,23.25,85.3Z" style="fill: #6f7c8e"/>
      <path d="M34.15,85.31a.56.56,0,0,1-.2-.45V73.72a.59.59,0,0,1,.18-.44.63.63,0,0,1,.46-.17h4a3.85,3.85,0,0,1,1.78.4,3.18,3.18,0,0,1,1.26,1.12,2.86,2.86,0,0,1,.47,1.6,2.55,2.55,0,0,1-.47,1.5,3,3,0,0,1-1.25,1,3.38,3.38,0,0,1,1.78,1.09,3,3,0,0,1,.66,2,3.52,3.52,0,0,1-.51,1.89,3.45,3.45,0,0,1-1.4,1.3,4.23,4.23,0,0,1-2,.47H34.68A.75.75,0,0,1,34.15,85.31Zm4.42-7a2.41,2.41,0,0,0,1.63-.54,1.9,1.9,0,0,0,.63-1.5,1.73,1.73,0,0,0-.62-1.43,2.49,2.49,0,0,0-1.64-.51H35.23v4Zm.28,6a2.78,2.78,0,0,0,1.94-.67,2.3,2.3,0,0,0,.75-1.8,2.15,2.15,0,0,0-.75-1.72,2.86,2.86,0,0,0-1.94-.64H35.23v4.83Z" style="fill: #6f7c8e"/>
    </g>
    <path d="M58.35,84.66a.44.44,0,0,1-.19.32.61.61,0,0,1-.45.19.62.62,0,0,1-.43-.19l-1.92-1.73-.35.33A7.9,7.9,0,0,1,53.09,85a4.55,4.55,0,0,1-2.08.48,4.09,4.09,0,0,1-2.66-.79,2.57,2.57,0,0,1-1-2.11A2.84,2.84,0,0,1,48,80.77a9.57,9.57,0,0,1,2.12-1.86l.2-.16-.93-.84a3.14,3.14,0,0,1-1.2-2.36,2.22,2.22,0,0,1,.4-1.27,2.83,2.83,0,0,1,1.09-.89,3.44,3.44,0,0,1,1.53-.33,3.61,3.61,0,0,1,1.56.34,2.68,2.68,0,0,1,1.1.94,2.28,2.28,0,0,1,.4,1.32,2.61,2.61,0,0,1-.53,1.55,7.12,7.12,0,0,1-1.58,1.45l-.17.12,3.32,3,1.47-1.4a.69.69,0,0,1,.45-.23.61.61,0,0,1,.37.15.5.5,0,0,1,.22.39.59.59,0,0,1-.21.39l-1.48,1.42,1.93,1.74A.62.62,0,0,1,58.35,84.66Zm-3.8-2.14-3.45-3.1-.35.23a7,7,0,0,0-1.61,1.5,2.46,2.46,0,0,0-.5,1.43,1.65,1.65,0,0,0,.63,1.35,2.77,2.77,0,0,0,1.78.51,3.37,3.37,0,0,0,1.57-.38,7.11,7.11,0,0,0,1.56-1.18Zm-3.28-4.41.33-.23a2.9,2.9,0,0,0,1.49-2.23,1.48,1.48,0,0,0-.49-1.13,1.92,1.92,0,0,0-1.36-.46A1.86,1.86,0,0,0,50,74.5a1.3,1.3,0,0,0-.52,1,1.91,1.91,0,0,0,.21.89,3.41,3.41,0,0,0,.67.82Z" style="fill: #6f7c8e"/>
    <path d="M63.61,85.31a.57.57,0,0,1-.19-.43V74a.57.57,0,0,1,.19-.43.72.72,0,0,1,.48-.17h3.08a7.49,7.49,0,0,1,3.45.78,5.75,5.75,0,0,1,3.21,5.27,5.78,5.78,0,0,1-3.21,5.3,7.61,7.61,0,0,1-3.45.77H64.09A.72.72,0,0,1,63.61,85.31Zm3.56-.92a5.79,5.79,0,0,0,2.76-.64,4.89,4.89,0,0,0,0-8.67,5.91,5.91,0,0,0-2.76-.63H64.76v9.94Z" style="fill: #6f7c8e"/>
    <path d="M129.16,85.31a.57.57,0,0,1-.19-.43V74a.57.57,0,0,1,.19-.43.72.72,0,0,1,.48-.17h3.08a7.46,7.46,0,0,1,3.45.78,5.71,5.71,0,0,1,3.21,5.27,5.74,5.74,0,0,1-3.21,5.3,7.58,7.58,0,0,1-3.45.77h-3.08A.72.72,0,0,1,129.16,85.31Zm3.56-.92a5.83,5.83,0,0,0,2.77-.64,4.81,4.81,0,0,0,2.58-4.34,4.78,4.78,0,0,0-2.58-4.33,6,6,0,0,0-2.77-.63h-2.41v9.94Z" style="fill: #6f7c8e"/>
    <path d="M75.69,85.3a.61.61,0,0,1-.17-.43v-11a.62.62,0,0,1,.17-.44.57.57,0,0,1,.41-.17.57.57,0,0,1,.42.17.61.61,0,0,1,.16.44v11a.6.6,0,0,1-.16.43.54.54,0,0,1-.42.18A.54.54,0,0,1,75.69,85.3Z" style="fill: #6f7c8e"/>
    <path d="M161.21,85.3a.61.61,0,0,1-.17-.43v-11a.62.62,0,0,1,.17-.44.57.57,0,0,1,.41-.17.57.57,0,0,1,.42.17.61.61,0,0,1,.16.44v11a.6.6,0,0,1-.16.43.54.54,0,0,1-.42.18A.54.54,0,0,1,161.21,85.3Z" style="fill: #6f7c8e"/>
    <path d="M91.27,85.3a.61.61,0,0,1-.17-.43v-11a.62.62,0,0,1,.17-.44.58.58,0,0,1,.41-.17.57.57,0,0,1,.42.17.61.61,0,0,1,.16.44v11a.6.6,0,0,1-.16.43.54.54,0,0,1-.42.18A.55.55,0,0,1,91.27,85.3Z" style="fill: #6f7c8e"/>
    <path d="M103.68,73.48a.52.52,0,0,0-.39-.17H98.7a.56.56,0,0,0-.23,0,.52.52,0,0,0-.21,0h-4.6a.5.5,0,0,0-.38.17.57.57,0,0,0-.16.41.57.57,0,0,0,.16.42.49.49,0,0,0,.38.16h4.23v10.4a.58.58,0,0,0,.18.43.53.53,0,0,0,.4.18.54.54,0,0,0,.42-.18.6.6,0,0,0,.16-.43V74.47h4.24a.51.51,0,0,0,.39-.16.6.6,0,0,0,.15-.42A.61.61,0,0,0,103.68,73.48Z" style="fill: #6f7c8e"/>
    <path d="M89.18,79.41a.53.53,0,0,1,.18.42V83.7a.57.57,0,0,1-.18.44A6.28,6.28,0,0,1,85,85.48a6.75,6.75,0,0,1-3.33-.84,6.52,6.52,0,0,1-2.41-2.28,5.9,5.9,0,0,1,0-6.25,6.37,6.37,0,0,1,2.41-2.28A6.76,6.76,0,0,1,85,73a7.41,7.41,0,0,1,2.23.32,6.64,6.64,0,0,1,2,1,.41.41,0,0,1-.07.73.33.33,0,0,1-.15.18.48.48,0,0,1-.26.07.68.68,0,0,1-.43-.15,4.22,4.22,0,0,0-1.45-.8A5.89,5.89,0,0,0,85,74.14a5.33,5.33,0,0,0-2.66.69,5.5,5.5,0,0,0-2,1.87,4.84,4.84,0,0,0,0,5.08,5.18,5.18,0,0,0,1.94,1.86,5.38,5.38,0,0,0,2.68.69,5.71,5.71,0,0,0,3.07-.89V80.32H85.41a.7.7,0,0,1-.48-.16.47.47,0,0,1-.19-.39.46.46,0,0,1,.19-.38.74.74,0,0,1,.48-.15H88.7A.72.72,0,0,1,89.18,79.41Z" style="fill: #6f7c8e"/>
    <path d="M174.36,79.41a.53.53,0,0,1,.18.42V83.7a.57.57,0,0,1-.18.44,6.28,6.28,0,0,1-4.18,1.34,6.75,6.75,0,0,1-3.33-.84,6.52,6.52,0,0,1-2.41-2.28,5.9,5.9,0,0,1,0-6.25,6.41,6.41,0,0,1,2.4-2.28,6.83,6.83,0,0,1,3.35-.84,7.41,7.41,0,0,1,2.23.32,6.64,6.64,0,0,1,2,1,.41.41,0,0,1-.07.73.31.31,0,0,1-.16.18.43.43,0,0,1-.25.07.68.68,0,0,1-.43-.15,4.22,4.22,0,0,0-1.45-.8,5.89,5.89,0,0,0-1.82-.25,5.33,5.33,0,0,0-2.66.69,5.5,5.5,0,0,0-2,1.87,4.84,4.84,0,0,0,0,5.08,5.18,5.18,0,0,0,1.94,1.86,5.38,5.38,0,0,0,2.68.69,5.71,5.71,0,0,0,3.07-.89V80.32h-2.66a.68.68,0,0,1-.48-.16.47.47,0,0,1-.19-.39.46.46,0,0,1,.19-.38.73.73,0,0,1,.48-.15h3.29A.72.72,0,0,1,174.36,79.41Z" style="fill: #6f7c8e"/>
    <path d="M112.93,84.87a.58.58,0,0,1-.2.43.68.68,0,0,1-.48.18.67.67,0,0,1-.64-.38l-1.16-2.56h-6.72l-1.16,2.56a.59.59,0,0,1-.62.38.65.65,0,0,1-.48-.18.6.6,0,0,1-.18-.43.54.54,0,0,1,0-.27l5.1-11a.68.68,0,0,1,.66-.42.63.63,0,0,1,.64.42l5.12,11A.46.46,0,0,1,112.93,84.87Zm-8.71-3.38H110l-2.88-6.34Z" style="fill: #6f7c8e"/>
    <path d="M114.46,85.3a.59.59,0,0,1-.2-.44V73.72a.59.59,0,0,1,.2-.44.68.68,0,0,1,.48-.18.73.73,0,0,1,.49.17.58.58,0,0,1,.19.45V84.31h6.81a.7.7,0,0,1,.48.16.56.56,0,0,1,.2.42.53.53,0,0,1-.2.42.66.66,0,0,1-.48.17h-7.49A.68.68,0,0,1,114.46,85.3Z" style="fill: #6f7c8e"/>
    <path d="M152,84.85a3.75,3.75,0,0,1-1.75-1.7.41.41,0,0,1-.07-.25.48.48,0,0,1,.17-.36.73.73,0,0,1,.48-.15.71.71,0,0,1,.37.1.61.61,0,0,1,.26.29,2.67,2.67,0,0,0,1.27,1.12,4.63,4.63,0,0,0,2.06.43,3.58,3.58,0,0,0,2.19-.61,2,2,0,0,0,.83-1.72,2.12,2.12,0,0,0-.77-1.65,4.31,4.31,0,0,0-2.32-.85,5.64,5.64,0,0,1-3-1.13,2.76,2.76,0,0,1-1.1-2.23,2.62,2.62,0,0,1,.53-1.64,3.39,3.39,0,0,1,1.5-1.08,5.62,5.62,0,0,1,2.16-.39,4.81,4.81,0,0,1,2.31.55A4.15,4.15,0,0,1,158.67,75a.66.66,0,0,1,.12.38.51.51,0,0,1-.3.46.73.73,0,0,1-.3.06.68.68,0,0,1-.34-.08.72.72,0,0,1-.25-.24,3.24,3.24,0,0,0-2.81-1.39,3.76,3.76,0,0,0-2.12.53,1.73,1.73,0,0,0-.78,1.51c0,1.21,1.05,2,3.14,2.21a5.62,5.62,0,0,1,3.06,1.18,3,3,0,0,1,1,2.37,3.16,3.16,0,0,1-.57,1.89,3.51,3.51,0,0,1-1.54,1.2,5.66,5.66,0,0,1-2.19.41A6,6,0,0,1,152,84.85Z" style="fill: #6f7c8e"/>
    <path d="M176.72,85.31a.59.59,0,0,1-.18-.44v-11a.57.57,0,0,1,.18-.44.65.65,0,0,1,.47-.17.66.66,0,0,1,.51.21l8.08,9.84V73.87a.55.55,0,0,1,.19-.44.67.67,0,0,1,.47-.17.63.63,0,0,1,.47.17.58.58,0,0,1,.19.44v11a.59.59,0,0,1-.19.43.64.64,0,0,1-.47.18.58.58,0,0,1-.49-.2l-8.1-9.83v9.42a.58.58,0,0,1-.18.43.66.66,0,0,1-.48.18A.7.7,0,0,1,176.72,85.31Z" style="fill: #6f7c8e"/>
    <path d="M140.86,85.3a.56.56,0,0,1-.19-.43v-11a.55.55,0,0,1,.19-.44.67.67,0,0,1,.47-.17h7.91a.67.67,0,0,1,.48.17.58.58,0,0,1,0,.84.77.77,0,0,1-.48.16H142v4.32h5.28a.68.68,0,0,1,.47.17.55.55,0,0,1,.19.42.57.57,0,0,1-.2.43.69.69,0,0,1-.46.17H142v4.37h7.25a.71.71,0,0,1,.48.16.54.54,0,0,1,.18.42.58.58,0,0,1-.18.42.72.72,0,0,1-.48.17h-7.91A.67.67,0,0,1,140.86,85.3Z" style="fill: #6f7c8e"/>
  </g>
</svg>
