<svg id="Layer_1" data-name="Layer 1" xmlns="http://www.w3.org/2000/svg" width="194.32" height="90.46" viewBox="0 0 194.32 90.46">
  <title>hoeke-wdd-logo</title>
  <g>
    <g>
      <text transform="translate(6.16 85.3) scale(1.11 1)" style="isolation: isolate;font-size: 15.456526756286621px;fill: #6f7c8e;font-family: Comfortaa-Light, Comfortaa Light;font-weight: 300;letter-spacing: -0.057005413805302475em">WEB &amp; DIGI</text>
      <text transform="translate(92.8 85.3) scale(1.11 1)" style="isolation: isolate;font-size: 15.456526756286621px;fill: #6f7c8e;font-family: Comfortaa-Light, Comfortaa Light;font-weight: 300;letter-spacing: -0.1389987224289053em">T</text>
      <text transform="translate(101.55 85.3) scale(1.11 1)" style="isolation: isolate;font-size: 15.456526756286621px;fill: #6f7c8e;font-family: Comfortaa-Light, Comfortaa Light;font-weight: 300;letter-spacing: -0.05697695378842514em">AL DESIGN</text>
    </g>
    <g>
      <g>
        <polygon points="188.16 64.5 170.36 64.5 170.36 60.23 183.27 60.23 183.27 9.24 170.36 9.24 170.36 4.97 188.16 4.97 188.16 64.5" style="fill: #f5bf25"/>
        <polygon points="6.16 64.22 22.77 64.22 22.77 59.95 11.4 59.95 11.4 8.95 24.3 8.95 24.3 4.68 6.16 4.68 6.16 64.22" style="fill: #f5bf25"/>
      </g>
      <g>
        <path d="M84.53,47a11.9,11.9,0,0,0-2.66-3.92,13,13,0,0,0-14-2.61,13.15,13.15,0,0,0-4,2.65,12.27,12.27,0,0,0-2.67,13.51,13.13,13.13,0,0,0,1.53,2.61H55.09V47.09A7,7,0,0,0,52.86,42a8.36,8.36,0,0,0-5.8-2,12.8,12.8,0,0,0-6.22,1.87,10.53,10.53,0,0,0-4,4.74l.2-2.77v-18h8.22V21h-13V59.22h-4v5H37V52.71a7,7,0,0,1,.68-3,8.37,8.37,0,0,1,1.83-2.39,8.17,8.17,0,0,1,2.59-1.61,8.71,8.71,0,0,1,3.12-.57A4.44,4.44,0,0,1,50,49.29a.29.29,0,0,0,0,.13l-.11,9.79v5h23a12.49,12.49,0,0,0,5-1,12.08,12.08,0,0,0,4-2.67,12.37,12.37,0,0,0,2.66-3.92,12.19,12.19,0,0,0,0-9.59Zm-5,7.68A7,7,0,0,1,78,57a7.69,7.69,0,0,1-2.31,1.55,7.26,7.26,0,0,1-8-1.55,7.07,7.07,0,0,1-1.56-2.33,7.48,7.48,0,0,1,0-5.69,7.7,7.7,0,0,1,1.54-2.32A7,7,0,0,1,70,45.12a7.21,7.21,0,0,1,8,1.57,7.36,7.36,0,0,1,1.54,8Z" style="fill: #3e4e57"/>
        <path d="M151.58,58.63a6.65,6.65,0,0,1-2.49-2.1l8.52-3.15,8.52-3.14a17,17,0,0,0-1.64-4.17,14,14,0,0,0-2.49-3.3,10.62,10.62,0,0,0-3.2-2.18,9.42,9.42,0,0,0-3.74-.78,12.61,12.61,0,0,0-8.88,3.62,12.18,12.18,0,0,0-2.67,13.5A13,13,0,0,0,145,59.54h-9.59c-1-1.42-2.08-2.84-3.11-4.24s-2-2.82-3-4.23c.92-.85,1.83-1.71,2.7-2.59s1.78-1.73,2.7-2.57H137v-5h-3.46l-11,10.35V21H109.31v4.83h8V59.54H112s-10-.12-12-.12a7.49,7.49,0,0,1-3.48-.79A6.57,6.57,0,0,1,94,56.53l8.51-3.15L111,50.24a16.94,16.94,0,0,0-1.62-4.17,14.61,14.61,0,0,0-2.49-3.3,10.62,10.62,0,0,0-3.2-2.18,9.42,9.42,0,0,0-3.74-.78,12.55,12.55,0,0,0-4.94,1,12.94,12.94,0,0,0-4,2.64A12.29,12.29,0,0,0,88.31,57,12.52,12.52,0,0,0,95,63.56a12.72,12.72,0,0,0,4.94,1h22.56V57.33l3.07-2.87c.6.83,1.2,1.68,1.83,2.53s1.25,1.72,1.89,2.55l3.23,5h32.77v-5c-4.16-.06-9.15-.11-10.25-.11A7.54,7.54,0,0,1,151.58,58.63ZM94.74,46.82A7.24,7.24,0,0,1,100,44.9a4.59,4.59,0,0,1,2.42.66,7.7,7.7,0,0,1,2,1.73q-3,1.08-5.88,2.16t-5.87,2.18A6.89,6.89,0,0,1,94.74,46.82Zm55.11,0a7.22,7.22,0,0,1,5.21-1.92,4.6,4.6,0,0,1,2.43.66,7.92,7.92,0,0,1,2,1.73c-2,.72-4,1.44-5.88,2.16s-3.87,1.46-5.87,2.18A6.79,6.79,0,0,1,149.85,46.82Z" style="fill: #3e4e57"/>
      </g>
    </g>
  </g>
</svg>
