<?xml version="1.0" encoding="utf-8"?>
<!-- Generator: Adobe Illustrator 24.0.1, SVG Export Plug-In . SVG Version: 6.00 Build 0)  -->
<svg version="1.1" id="Layer_1" xmlns="http://www.w3.org/2000/svg" xmlns:xlink="http://www.w3.org/1999/xlink" x="0px" y="0px"
	 viewBox="0 0 194.3 90.5" style="enable-background:new 0 0 194.3 90.5;" xml:space="preserve">
<style type="text/css">
	.st0{fill:#6F7C8E;}
	.st1{font-family:'Comfortaa-Light';}
	.st2{font-size:15.4565px;}
	.st3{letter-spacing:-1.8;}
	.st4{fill:#F5BF25;}
	.st5{fill:#3E4E57;}
</style>
<title>hoeke-wdd-logo</title>
<g>
	<g>
		<text transform="matrix(1.11 0 0 1 6.1605 85.3007)" class="st0 st1 st2">WEB &amp; DIGI</text>
		<text transform="matrix(1.11 0 0 1 92.7963 85.3007)" class="st0 st1 st2 st3">T</text>
		<text transform="matrix(1.11 0 0 1 101.5546 85.3007)" class="st0 st1 st2">AL DESIGN</text>
	</g>
	<g>
		<g>
			<polygon class="st4" points="188.2,64.5 170.4,64.5 170.4,60.2 183.3,60.2 183.3,9.2 170.4,9.2 170.4,5 188.2,5 			"/>
			<polygon class="st4" points="6.2,64.2 22.8,64.2 22.8,60 11.4,60 11.4,9 24.3,9 24.3,4.7 6.2,4.7 			"/>
		</g>
		<g>
			<path class="st5" d="M84.5,47c-0.6-1.5-1.5-2.8-2.7-3.9c-3.7-3.6-9.2-4.6-14-2.6c-1.5,0.6-2.9,1.5-4,2.6
				c-3.6,3.5-4.6,8.9-2.7,13.5c0.4,0.9,0.9,1.8,1.5,2.6h-7.7V47.1c0-1.9-0.8-3.8-2.2-5.1c-1.6-1.4-3.7-2.1-5.8-2
				c-2.2,0.1-4.3,0.7-6.2,1.9c-1.8,1.1-3.2,2.8-4,4.7l0.2-2.8V25.8h8.2V21h-13v38.2h-4v5H37V52.7c0-1,0.2-2.1,0.7-3
				c0.5-0.9,1.1-1.7,1.8-2.4c0.8-0.7,1.6-1.2,2.6-1.6c1-0.4,2.1-0.6,3.1-0.6c2.4-0.1,4.6,1.7,4.7,4.2c0,0,0,0.1,0,0.1l-0.1,9.8v5h23
				c1.7,0,3.4-0.3,5-1c1.5-0.6,2.9-1.5,4-2.7c1.1-1.1,2-2.5,2.7-3.9C85.8,53.6,85.8,50.1,84.5,47L84.5,47z M79.5,54.7
				c-0.4,0.9-0.9,1.7-1.6,2.4c-0.7,0.7-1.5,1.2-2.3,1.5c-2.7,1.2-5.9,0.5-8-1.5c-0.7-0.7-1.2-1.5-1.6-2.3c-0.8-1.8-0.8-3.9,0-5.7
				c0.4-0.9,0.9-1.6,1.5-2.3c0.7-0.7,1.4-1.2,2.3-1.6c2.7-1.2,5.9-0.6,8,1.6c0.7,0.7,1.2,1.5,1.5,2.3C80.3,50.8,80.3,52.9,79.5,54.7
				z"/>
			<path class="st5" d="M151.6,58.6c-1-0.5-1.8-1.2-2.5-2.1l8.5-3.1l8.5-3.1c-0.4-1.5-0.9-2.9-1.6-4.2c-0.7-1.2-1.5-2.3-2.5-3.3
				c-0.9-0.9-2-1.7-3.2-2.2c-1.2-0.5-2.5-0.8-3.7-0.8c-3.3,0-6.5,1.3-8.9,3.6c-3.6,3.5-4.6,8.9-2.7,13.5c0.4,0.9,0.9,1.8,1.5,2.6
				h-9.6c-1-1.4-2.1-2.8-3.1-4.2s-2-2.8-3-4.2c0.9-0.8,1.8-1.7,2.7-2.6c0.9-0.9,1.8-1.7,2.7-2.6h2.3v-5h-3.5l-11,10.4V21h-13.2v4.8
				h8v33.7H112c0,0-10-0.1-12-0.1c-1.2,0-2.4-0.3-3.5-0.8c-1-0.5-1.8-1.2-2.5-2.1l8.5-3.1l8.5-3.1c-0.4-1.5-0.9-2.9-1.6-4.2
				c-0.7-1.2-1.5-2.3-2.5-3.3c-0.9-0.9-2-1.7-3.2-2.2c-1.2-0.5-2.5-0.8-3.7-0.8c-1.7,0-3.4,0.3-4.9,1c-1.5,0.6-2.9,1.5-4,2.6
				c-3.6,3.5-4.6,8.9-2.7,13.5c1.3,3,3.7,5.3,6.6,6.6c1.6,0.7,3.2,1,4.9,1h22.6v-7.2l3.1-2.9c0.6,0.8,1.2,1.7,1.8,2.5
				s1.3,1.7,1.9,2.5l3.2,5h32.8v-5c-4.2-0.1-9.2-0.1-10.3-0.1C153.8,59.4,152.6,59.2,151.6,58.6z M94.7,46.8c1.4-1.3,3.3-2,5.2-1.9
				c0.9,0,1.7,0.2,2.4,0.7c0.8,0.5,1.4,1,2,1.7c-2,0.7-4,1.4-5.9,2.2c-1.9,0.7-3.9,1.4-5.9,2.2C92.7,49.8,93.4,48.1,94.7,46.8z
				 M149.8,46.8c1.4-1.3,3.3-2,5.2-1.9c0.9,0,1.7,0.2,2.4,0.7c0.8,0.5,1.4,1,2,1.7c-2,0.7-4,1.4-5.9,2.2c-1.9,0.7-3.9,1.5-5.9,2.2
				C147.8,49.8,148.5,48.1,149.8,46.8z"/>
		</g>
	</g>
</g>
</svg>
