<?xml version="1.0" encoding="utf-8"?>
<!-- Generator: Adobe Illustrator 24.0.3, SVG Export Plug-In . SVG Version: 6.00 Build 0)  -->
<svg version="1.1" id="Layer_1" xmlns="http://www.w3.org/2000/svg" xmlns:xlink="http://www.w3.org/1999/xlink" x="0px" y="0px"
	 viewBox="0 0 194.3 90.5" style="enable-background:new 0 0 194.3 90.5;" xml:space="preserve">
<style type="text/css">
	.st0{enable-background:new    ;}
	.st1{fill:#6F7C8E;}
	.st2{fill:#F5BF25;}
	.st3{fill:#3E4E57;}
</style>
<title>hoeke-wdd-logo</title>
<g>
	<g>
		<g class="st0">
			<path class="st1" d="M21.6,73.4c0.1,0.1,0.1,0.2,0.1,0.3c0,0,0,0.1,0,0.2l-3.5,11c0,0.1-0.1,0.2-0.2,0.3
				c-0.1,0.1-0.2,0.1-0.3,0.1c-0.1,0-0.3,0-0.3-0.1c-0.1-0.1-0.2-0.2-0.2-0.3l-2.9-9.3l-2.9,9.3c-0.1,0.3-0.3,0.4-0.5,0.4
				c-0.1,0-0.2,0-0.3-0.1c-0.1-0.1-0.2-0.2-0.2-0.3l-3.6-11c0-0.1,0-0.2,0-0.2c0-0.1,0-0.3,0.1-0.4c0.1-0.1,0.2-0.1,0.4-0.1
				c0.3,0,0.4,0.1,0.5,0.4l3.1,9.7l3-9.3c0-0.1,0.1-0.2,0.2-0.2s0.2-0.1,0.3-0.1c0.1,0,0.2,0,0.3,0.1c0.1,0.1,0.2,0.1,0.2,0.2l3,9.3
				l3.1-9.7c0-0.1,0.1-0.2,0.2-0.2c0.1-0.1,0.2-0.1,0.3-0.1C21.4,73.2,21.5,73.3,21.6,73.4z"/>
			<path class="st1" d="M32.1,84.5c0.1,0.1,0.2,0.2,0.2,0.3c0,0.1-0.1,0.2-0.2,0.3c-0.1,0.1-0.2,0.1-0.4,0.1h-8.3
				c-0.1,0-0.3,0-0.4-0.1C23,85.1,23,85,23,84.8V73.7c0-0.1,0-0.2,0.1-0.3s0.2-0.1,0.4-0.1h8.3c0.1,0,0.3,0,0.4,0.1
				c0.1,0.1,0.2,0.2,0.2,0.3c0,0.1-0.1,0.2-0.2,0.3c-0.1,0.1-0.2,0.1-0.4,0.1H24v4.6h5.7c0.1,0,0.3,0,0.4,0.1
				c0.1,0.1,0.1,0.2,0.1,0.3c0,0.1,0,0.2-0.1,0.3c-0.1,0.1-0.2,0.1-0.4,0.1H24v4.6h7.7C31.9,84.4,32,84.4,32.1,84.5z"/>
			<path class="st1" d="M40.2,73.6c0.5,0.3,1,0.6,1.3,1s0.5,0.9,0.5,1.5c0,0.6-0.2,1.1-0.5,1.6s-0.8,0.8-1.4,1
				c0.8,0.2,1.4,0.6,1.9,1.1c0.5,0.5,0.7,1.2,0.7,2c0,0.7-0.2,1.3-0.5,1.8s-0.8,0.9-1.4,1.2s-1.3,0.4-2,0.4h-4.3
				c-0.2,0-0.4,0-0.5-0.1c-0.1-0.1-0.2-0.2-0.2-0.3V73.7c0-0.1,0-0.3,0.1-0.3c0.1-0.1,0.2-0.1,0.4-0.1h4.2
				C39.1,73.2,39.7,73.4,40.2,73.6z M40.3,77.7c0.5-0.4,0.7-0.9,0.7-1.6c0-0.6-0.2-1.1-0.7-1.5c-0.5-0.4-1-0.5-1.8-0.5h-3.7v4.2h3.7
				C39.2,78.3,39.8,78.1,40.3,77.7z M40.3,84c0.4-0.2,0.8-0.5,1-0.9c0.3-0.4,0.4-0.8,0.4-1.3c0-0.5-0.1-0.9-0.4-1.3
				c-0.3-0.4-0.6-0.7-1-0.9c-0.4-0.2-0.9-0.3-1.5-0.3h-3.9v5.1h3.9C39.3,84.4,39.8,84.3,40.3,84z"/>
			<path class="st1" d="M58.1,84.5c0,0.1-0.1,0.2-0.2,0.3c-0.1,0.1-0.2,0.2-0.4,0.2c-0.1,0-0.2-0.1-0.4-0.2l-1.9-1.7l-0.5,0.5
				c-0.6,0.6-1.2,1-1.8,1.3c-0.6,0.3-1.2,0.4-1.9,0.4c-0.7,0-1.4-0.1-1.9-0.4c-0.5-0.2-1-0.6-1.3-1c-0.3-0.4-0.4-0.9-0.4-1.4
				c0-0.6,0.2-1.2,0.6-1.8s1.1-1.2,2.1-1.9l0.3-0.2l-0.9-0.8c-0.4-0.3-0.7-0.7-0.9-1.1c-0.2-0.4-0.3-0.8-0.3-1.2
				c0-0.4,0.1-0.8,0.4-1.2c0.3-0.4,0.6-0.7,1-0.9s0.9-0.3,1.5-0.3c0.5,0,1,0.1,1.5,0.3c0.4,0.2,0.8,0.5,1.1,0.9s0.4,0.8,0.4,1.3
				c0,0.6-0.2,1.1-0.5,1.5c-0.3,0.5-0.8,0.9-1.5,1.4l-0.3,0.2l3.5,3.1l1.5-1.4c0.1-0.1,0.3-0.2,0.4-0.2s0.2,0,0.3,0.1
				c0.1,0.1,0.2,0.2,0.2,0.3c0,0.1-0.1,0.2-0.2,0.3l-1.5,1.5l1.9,1.7C58,84.3,58.1,84.4,58.1,84.5z M54.6,82.5l-3.6-3.2l-0.4,0.3
				c-0.8,0.6-1.4,1.1-1.7,1.6c-0.3,0.5-0.5,1-0.5,1.5c0,0.5,0.2,1,0.7,1.4c0.5,0.4,1.1,0.5,1.9,0.5c0.5,0,1-0.1,1.4-0.4
				c0.5-0.2,1-0.6,1.5-1.1L54.6,82.5z M51.2,78.2l0.4-0.3c0.5-0.3,0.8-0.7,1.1-1.1c0.3-0.4,0.4-0.8,0.4-1.2c0-0.5-0.2-0.9-0.5-1.2
				c-0.3-0.3-0.8-0.5-1.4-0.5c-0.5,0-0.9,0.2-1.3,0.5c-0.4,0.3-0.5,0.7-0.5,1.1c0,0.3,0.1,0.7,0.2,1c0.1,0.3,0.4,0.6,0.7,0.8
				L51.2,78.2z"/>
			<path class="st1" d="M70.8,74c1,0.5,1.8,1.2,2.4,2.1c0.6,0.9,0.9,2,0.9,3.1c0,1.2-0.3,2.2-0.9,3.1c-0.6,0.9-1.4,1.6-2.4,2.1
				s-2.2,0.8-3.5,0.8h-3.1c-0.1,0-0.3,0-0.4-0.1c-0.1-0.1-0.1-0.2-0.1-0.3V73.7c0-0.1,0-0.3,0.1-0.3c0.1-0.1,0.2-0.1,0.4-0.1h3.1
				C68.6,73.2,69.8,73.5,70.8,74z M70.3,83.8c0.9-0.4,1.5-1.1,2-1.9c0.5-0.8,0.7-1.7,0.7-2.7c0-1-0.2-1.9-0.7-2.7
				c-0.5-0.8-1.2-1.4-2-1.9s-1.8-0.7-2.9-0.7h-2.6v10.4h2.6C68.4,84.5,69.4,84.2,70.3,83.8z"/>
			<path class="st1" d="M75.9,73.4c0.1-0.1,0.2-0.1,0.4-0.1c0.1,0,0.3,0,0.4,0.1s0.1,0.2,0.1,0.3v11.1c0,0.1,0,0.2-0.1,0.3
				c-0.1,0.1-0.2,0.1-0.4,0.1c-0.1,0-0.3,0-0.4-0.1c-0.1-0.1-0.1-0.2-0.1-0.3V73.7C75.8,73.6,75.8,73.4,75.9,73.4z"/>
			<path class="st1" d="M89.5,79.5c0.1,0.1,0.1,0.2,0.1,0.3v3.9c0,0.1,0,0.1,0,0.2c0,0,0,0.1-0.1,0.1c-1,0.9-2.4,1.3-4.2,1.3
				c-1.2,0-2.3-0.3-3.3-0.8c-1-0.6-1.8-1.3-2.5-2.3c-0.6-1-0.9-2-0.9-3.1c0-1.1,0.3-2.1,0.9-3.1s1.4-1.7,2.4-2.3
				c1-0.6,2.1-0.8,3.4-0.8c1.6,0,3,0.5,4.2,1.4c0.1,0.1,0.2,0.2,0.2,0.3c0,0.1,0,0.2-0.1,0.3c-0.1,0.1-0.2,0.1-0.4,0.1
				c-0.1,0-0.3-0.1-0.4-0.2c-0.9-0.7-2-1.1-3.4-1.1c-1,0-1.9,0.2-2.8,0.7s-1.6,1.1-2.1,1.9c-0.5,0.8-0.8,1.7-0.8,2.6
				c0,0.9,0.3,1.8,0.8,2.6c0.5,0.8,1.2,1.5,2.1,1.9c0.9,0.5,1.8,0.7,2.8,0.7c1.2,0,2.4-0.3,3.3-1v-3.3h-2.9c-0.1,0-0.3,0-0.4-0.1
				c-0.1-0.1-0.1-0.2-0.1-0.3c0-0.1,0-0.2,0.1-0.3c0.1-0.1,0.2-0.1,0.4-0.1h3.4C89.3,79.4,89.4,79.5,89.5,79.5z"/>
			<path class="st1" d="M91.6,73.4c0.1-0.1,0.2-0.1,0.4-0.1c0.1,0,0.3,0,0.4,0.1s0.1,0.2,0.1,0.3v11.1c0,0.1,0,0.2-0.1,0.3
				c-0.1,0.1-0.2,0.1-0.4,0.1c-0.1,0-0.3,0-0.4-0.1c-0.1-0.1-0.1-0.2-0.1-0.3V73.7C91.5,73.6,91.5,73.4,91.6,73.4z"/>
		</g>
		<g class="st0">
			<path class="st1" d="M103.6,73.3c0.1,0.1,0.1,0.2,0.1,0.3s0,0.2-0.1,0.3c-0.1,0.1-0.2,0.1-0.3,0.1h-4.3v10.8c0,0.1,0,0.2-0.1,0.3
				c-0.1,0.1-0.2,0.1-0.4,0.1c-0.1,0-0.3,0-0.4-0.1c-0.1-0.1-0.1-0.2-0.1-0.3V74.1h-4.3c-0.1,0-0.2,0-0.3-0.1
				c-0.1-0.1-0.1-0.2-0.1-0.3s0-0.2,0.1-0.3c0.1-0.1,0.2-0.1,0.3-0.1h9.7C103.4,73.2,103.5,73.3,103.6,73.3z"/>
		</g>
		<g class="st0">
			<path class="st1" d="M113.4,84.8c0,0.1-0.1,0.2-0.2,0.3c-0.1,0.1-0.2,0.1-0.4,0.1c-0.2,0-0.4-0.1-0.5-0.3l-1.3-2.7h-7l-1.3,2.7
				c-0.1,0.2-0.2,0.3-0.5,0.3c-0.2,0-0.3,0-0.4-0.1c-0.1-0.1-0.1-0.2-0.1-0.3c0-0.1,0-0.1,0.1-0.2l5.2-11.1c0.1-0.2,0.3-0.3,0.5-0.3
				c0.2,0,0.4,0.1,0.5,0.3l5.2,11.1C113.4,84.7,113.4,84.8,113.4,84.8z M110.7,81.4l-3.1-6.7l-3.1,6.7H110.7z"/>
			<path class="st1" d="M122.8,84.6c0.1,0.1,0.1,0.2,0.1,0.3c0,0.1,0,0.2-0.1,0.3c-0.1,0.1-0.2,0.1-0.4,0.1h-7.6
				c-0.1,0-0.3,0-0.4-0.1c-0.1-0.1-0.2-0.2-0.2-0.3V73.7c0-0.1,0.1-0.2,0.2-0.3c0.1-0.1,0.2-0.1,0.4-0.1c0.1,0,0.3,0,0.4,0.1
				s0.1,0.2,0.1,0.3v10.8h7.1C122.6,84.5,122.7,84.5,122.8,84.6z"/>
			<path class="st1" d="M135.3,74c1,0.5,1.8,1.2,2.4,2.1c0.6,0.9,0.9,2,0.9,3.1c0,1.2-0.3,2.2-0.9,3.1c-0.6,0.9-1.4,1.6-2.4,2.1
				s-2.2,0.8-3.5,0.8h-3.1c-0.1,0-0.3,0-0.4-0.1c-0.1-0.1-0.1-0.2-0.1-0.3V73.7c0-0.1,0-0.3,0.1-0.3c0.1-0.1,0.2-0.1,0.4-0.1h3.1
				C133.1,73.2,134.3,73.5,135.3,74z M134.7,83.8c0.9-0.4,1.5-1.1,2-1.9c0.5-0.8,0.7-1.7,0.7-2.7c0-1-0.2-1.9-0.7-2.7
				c-0.5-0.8-1.2-1.4-2-1.9c-0.9-0.4-1.8-0.7-2.9-0.7h-2.6v10.4h2.6C132.9,84.5,133.9,84.2,134.7,83.8z"/>
			<path class="st1" d="M149.4,84.5c0.1,0.1,0.2,0.2,0.2,0.3c0,0.1-0.1,0.2-0.2,0.3c-0.1,0.1-0.2,0.1-0.4,0.1h-8.3
				c-0.1,0-0.3,0-0.4-0.1c-0.1-0.1-0.1-0.2-0.1-0.3V73.7c0-0.1,0-0.2,0.1-0.3s0.2-0.1,0.4-0.1h8.3c0.1,0,0.3,0,0.4,0.1
				c0.1,0.1,0.2,0.2,0.2,0.3c0,0.1-0.1,0.2-0.2,0.3c-0.1,0.1-0.2,0.1-0.4,0.1h-7.7v4.6h5.7c0.1,0,0.3,0,0.4,0.1
				c0.1,0.1,0.1,0.2,0.1,0.3c0,0.1,0,0.2-0.1,0.3c-0.1,0.1-0.2,0.1-0.4,0.1h-5.7v4.6h7.7C149.2,84.4,149.3,84.4,149.4,84.5z"/>
			<path class="st1" d="M157.3,73.6c0.7,0.4,1.2,0.8,1.5,1.3c0,0.1,0.1,0.2,0.1,0.2c0,0.1,0,0.2-0.1,0.2c-0.1,0.1-0.1,0.1-0.2,0.2
				c0,0-0.1,0-0.2,0c-0.2,0-0.4-0.1-0.5-0.2c-0.7-0.9-1.7-1.3-2.9-1.3c-0.9,0-1.7,0.2-2.2,0.6c-0.5,0.4-0.8,0.9-0.8,1.6
				c0,0.6,0.3,1.1,0.8,1.5c0.5,0.4,1.3,0.7,2.4,0.8c1.4,0.2,2.5,0.6,3.2,1.2c0.7,0.6,1,1.3,1,2.3c0,0.7-0.2,1.3-0.5,1.9
				s-0.8,0.9-1.5,1.2s-1.4,0.4-2.2,0.4c-1.1,0-2-0.2-2.8-0.6c-0.8-0.4-1.4-0.9-1.8-1.6c0-0.1-0.1-0.1-0.1-0.2c0-0.1,0-0.2,0.1-0.3
				c0.1-0.1,0.2-0.1,0.4-0.1c0.2,0,0.4,0.1,0.5,0.3c0.3,0.5,0.8,0.9,1.4,1.2s1.3,0.4,2.2,0.4c1,0,1.8-0.2,2.3-0.7
				c0.6-0.4,0.8-1.1,0.8-1.9c0-0.7-0.3-1.3-0.8-1.7c-0.6-0.5-1.4-0.8-2.5-0.9c-1.3-0.2-2.3-0.5-3-1.1s-1.1-1.3-1.1-2.1
				c0-0.6,0.2-1.1,0.5-1.6c0.3-0.5,0.8-0.8,1.4-1.1c0.6-0.3,1.3-0.4,2.1-0.4C155.8,73.1,156.6,73.3,157.3,73.6z"/>
			<path class="st1" d="M161.3,73.4c0.1-0.1,0.2-0.1,0.4-0.1c0.1,0,0.3,0,0.4,0.1c0.1,0.1,0.1,0.2,0.1,0.3v11.1c0,0.1,0,0.2-0.1,0.3
				c-0.1,0.1-0.2,0.1-0.4,0.1c-0.1,0-0.3,0-0.4-0.1c-0.1-0.1-0.1-0.2-0.1-0.3V73.7C161.2,73.6,161.3,73.4,161.3,73.4z"/>
			<path class="st1" d="M174.9,79.5c0.1,0.1,0.1,0.2,0.1,0.3v3.9c0,0.1,0,0.1,0,0.2c0,0,0,0.1-0.1,0.1c-1,0.9-2.4,1.3-4.2,1.3
				c-1.2,0-2.3-0.3-3.3-0.8c-1-0.6-1.8-1.3-2.5-2.3c-0.6-1-0.9-2-0.9-3.1c0-1.1,0.3-2.1,0.9-3.1c0.6-0.9,1.4-1.7,2.4-2.3
				c1-0.6,2.1-0.8,3.4-0.8c1.6,0,3,0.5,4.2,1.4c0.1,0.1,0.2,0.2,0.2,0.3c0,0.1,0,0.2-0.1,0.3c-0.1,0.1-0.2,0.1-0.4,0.1
				c-0.1,0-0.3-0.1-0.4-0.2c-0.9-0.7-2-1.1-3.4-1.1c-1,0-1.9,0.2-2.8,0.7s-1.6,1.1-2.1,1.9c-0.5,0.8-0.8,1.7-0.8,2.6
				c0,0.9,0.3,1.8,0.8,2.6c0.5,0.8,1.2,1.5,2.1,1.9c0.9,0.5,1.8,0.7,2.8,0.7c1.2,0,2.4-0.3,3.3-1v-3.3h-2.9c-0.1,0-0.3,0-0.4-0.1
				c-0.1-0.1-0.1-0.2-0.1-0.3c0-0.1,0-0.2,0.1-0.3c0.1-0.1,0.2-0.1,0.4-0.1h3.4C174.7,79.4,174.8,79.5,174.9,79.5z"/>
			<path class="st1" d="M186.7,73.4c0.1-0.1,0.2-0.1,0.4-0.1c0.1,0,0.3,0,0.4,0.1s0.2,0.2,0.2,0.3v11.1c0,0.1-0.1,0.2-0.2,0.3
				c-0.1,0.1-0.2,0.1-0.4,0.1c-0.2,0-0.3,0-0.4-0.1l-8.7-10.2v9.9c0,0.1,0,0.2-0.1,0.3c-0.1,0.1-0.2,0.1-0.4,0.1s-0.3,0-0.4-0.1
				c-0.1-0.1-0.1-0.2-0.1-0.3V73.7c0-0.1,0-0.2,0.1-0.3s0.2-0.1,0.4-0.1c0.2,0,0.3,0.1,0.4,0.2l8.7,10.2v-9.9
				C186.5,73.6,186.6,73.4,186.7,73.4z"/>
		</g>
	</g>
	<g>
		<g>
			<polygon class="st2" points="188.2,64.5 170.4,64.5 170.4,60.2 183.3,60.2 183.3,9.2 170.4,9.2 170.4,5 188.2,5 			"/>
			<polygon class="st2" points="6.2,64.2 22.8,64.2 22.8,60 11.4,60 11.4,8.9 24.3,8.9 24.3,4.7 6.2,4.7 			"/>
		</g>
		<g>
			<path class="st3" d="M84.5,47c-0.6-1.5-1.5-2.8-2.7-3.9c-3.7-3.6-9.2-4.6-14-2.6c-1.5,0.6-2.8,1.5-4,2.7
				c-3.6,3.5-4.6,8.9-2.7,13.5c0.4,0.9,0.9,1.8,1.5,2.6h-7.6V47.1c0-1.9-0.8-3.8-2.2-5.1c-1.6-1.4-3.7-2.1-5.8-2
				c-2.2,0.1-4.3,0.7-6.2,1.9c-1.8,1.1-3.2,2.8-4,4.7l0.2-2.8v-18h8.2V21h-13v38.2h-4v5H37V52.7c0-1,0.2-2.1,0.7-3
				c0.5-0.9,1.1-1.7,1.8-2.4c0.8-0.7,1.6-1.2,2.6-1.6c1-0.4,2.1-0.6,3.1-0.6c2.4-0.2,4.6,1.6,4.8,4.1c0,0,0,0,0,0.1c0,0,0,0.1,0,0.1
				l-0.1,9.8v5h23c1.7,0,3.4-0.3,5-1c1.5-0.6,2.9-1.5,4-2.7c1.1-1.1,2-2.5,2.7-3.9C85.9,53.6,85.9,50.1,84.5,47L84.5,47z M79.5,54.7
				c-0.3,0.9-0.9,1.7-1.5,2.3c-0.7,0.7-1.5,1.2-2.3,1.5c-2.7,1.2-5.9,0.6-8-1.5c-0.7-0.7-1.2-1.5-1.6-2.3c-0.7-1.8-0.7-3.9,0-5.7
				c0.4-0.9,0.9-1.6,1.5-2.3c0.7-0.7,1.5-1.2,2.3-1.5c2.7-1.2,5.9-0.6,8,1.6C80.1,48.8,80.7,52,79.5,54.7L79.5,54.7z"/>
			<path class="st3" d="M151.6,58.6c-1-0.5-1.8-1.2-2.5-2.1l8.5-3.2l8.5-3.1c-0.4-1.5-0.9-2.9-1.6-4.2c-0.7-1.2-1.5-2.3-2.5-3.3
				c-0.9-0.9-2-1.7-3.2-2.2c-1.2-0.5-2.5-0.8-3.7-0.8c-3.3,0-6.5,1.3-8.9,3.6c-3.6,3.5-4.7,8.9-2.7,13.5c0.4,0.9,0.9,1.8,1.5,2.6
				h-9.6c-1-1.4-2.1-2.8-3.1-4.2s-2-2.8-3-4.2c0.9-0.8,1.8-1.7,2.7-2.6s1.8-1.7,2.7-2.6h2.3v-5h-3.5l-11,10.3V21h-13.2v4.8h8v33.7
				H112c0,0-10-0.1-12-0.1c-1.2,0-2.4-0.3-3.5-0.8c-1-0.5-1.9-1.2-2.5-2.1l8.5-3.2l8.5-3.1c-0.4-1.5-0.9-2.9-1.6-4.2
				c-0.7-1.2-1.5-2.3-2.5-3.3c-0.9-0.9-2-1.7-3.2-2.2c-1.2-0.5-2.5-0.8-3.7-0.8c-1.7,0-3.4,0.3-4.9,1c-1.5,0.6-2.8,1.5-4,2.6
				c-3.6,3.5-4.7,8.9-2.7,13.5c1.3,3,3.7,5.3,6.7,6.6c1.6,0.7,3.2,1,4.9,1h22.6v-7.2l3.1-2.9c0.6,0.8,1.2,1.7,1.8,2.5
				c0.6,0.8,1.2,1.7,1.9,2.5l3.2,5h32.8v-5c-4.2-0.1-9.1-0.1-10.2-0.1C153.8,59.4,152.7,59.2,151.6,58.6z M94.7,46.8
				c1.4-1.3,3.3-2,5.3-1.9c0.9,0,1.7,0.2,2.4,0.7c0.8,0.5,1.4,1,2,1.7c-2,0.7-4,1.4-5.9,2.2c-1.9,0.7-3.9,1.4-5.9,2.2
				C92.7,49.8,93.4,48.1,94.7,46.8z M149.9,46.8c1.4-1.3,3.3-2,5.2-1.9c0.9,0,1.7,0.2,2.4,0.7c0.8,0.5,1.4,1,2,1.7
				c-2,0.7-4,1.4-5.9,2.2s-3.9,1.5-5.9,2.2C147.8,49.8,148.5,48.1,149.9,46.8z"/>
		</g>
	</g>
</g>
</svg>
