<?xml version="1.0" encoding="utf-8"?>
<!-- Generator: Adobe Illustrator 24.0.1, SVG Export Plug-In . SVG Version: 6.00 Build 0)  -->
<svg version="1.1" id="Layer_1" xmlns="http://www.w3.org/2000/svg" xmlns:xlink="http://www.w3.org/1999/xlink" x="0px" y="0px"
	 viewBox="0 0 234.7 105.1" style="enable-background:new 0 0 234.7 105.1;" xml:space="preserve">
<style type="text/css">
	.st0{fill:none;}
	.st1{fill:#6F7C8E;}
	.st2{font-family:'Comfortaa-Light';}
	.st3{font-size:15.443px;}
	.st4{letter-spacing:-0.9;}
	.st5{letter-spacing:-1.8;}
	.st6{fill:#F5BF25;}
	.st7{fill:#3E4E57;}
</style>
<title>hoeke-wdd-logo</title>
<g>
	<rect x="0.2" y="-22" class="st0" width="234.3" height="141.1"/>
	<g>
		<text transform="matrix(1.1111 0 0 1 27.0161 94.4077)" class="st1 st2 st3 st4">WEB &amp; DIGI</text>
		<text transform="matrix(1.1111 0 0 1 113.584 94.4077)" class="st1 st2 st3 st5">T</text>
		<text transform="matrix(1.1111 0 0 1 122.3335 94.4077)" class="st1 st2 st3 st4">AL DESIGN</text>
		<g>
			<polygon class="st6" points="207.7,73.4 189.9,73.4 189.9,69.2 202.8,69.2 202.8,18.3 189.9,18.3 189.9,14.1 207.7,14.1 			"/>
			<polygon class="st6" points="26.2,73.2 42.8,73.2 42.8,68.9 31.4,68.9 31.4,18.1 44.3,18.1 44.3,13.8 26.2,13.8 			"/>
		</g>
		<g>
			<path class="st7" d="M104.4,56c-0.6-1.5-1.5-2.8-2.7-3.9c-2.4-2.3-5.6-3.6-9-3.6c-1.7,0-3.4,0.3-4.9,1c-1.5,0.6-2.8,1.5-4,2.6
				c-1.1,1.1-2,2.4-2.7,3.9c-1.3,3.1-1.3,6.5,0,9.6c0.4,0.9,0.9,1.8,1.5,2.6H75V56.1c0-1.9-0.8-3.8-2.3-5.1c-1.6-1.4-3.7-2.1-5.8-2
				c-2.2,0.1-4.3,0.7-6.2,1.9c-1.8,1.1-3.2,2.8-4,4.7l0.2-2.8v-18h8.2V30h-13v38.1h-4v5H57v-5v-6.5c0-1,0.2-2.1,0.7-3
				c0.4-0.9,1.1-1.7,1.8-2.4c0.8-0.7,1.6-1.2,2.6-1.6c1-0.4,2-0.6,3.1-0.6c2.4-0.2,4.5,1.7,4.7,4.1c0,0,0,0.1,0,0.1l-0.1,9.8v5h22.9
				c1.7,0,3.4-0.3,5-1c1.5-0.6,2.9-1.5,4-2.7c1.1-1.1,2-2.4,2.7-3.9C105.6,62.5,105.6,59.1,104.4,56L104.4,56z M99.4,63.7
				c-0.4,0.9-0.9,1.6-1.6,2.3c-0.7,0.6-1.5,1.2-2.3,1.5c-2.7,1.1-5.8,0.5-7.9-1.5c-0.7-0.7-1.2-1.4-1.6-2.3c-0.7-1.8-0.7-3.8,0-5.6
				c0.4-0.9,0.9-1.6,1.5-2.3c0.6-0.7,1.4-1.2,2.3-1.6c1.8-0.8,3.8-0.8,5.6,0c0.9,0.4,1.7,0.9,2.3,1.6c0.7,0.7,1.2,1.5,1.6,2.3
				C100.1,59.8,100.1,61.9,99.4,63.7L99.4,63.7z"/>
			<path class="st7" d="M171.2,67.6c-1-0.5-1.8-1.2-2.5-2.1l8.5-3.1l8.5-3.1c-0.4-1.5-0.9-2.9-1.6-4.2c-0.7-1.2-1.5-2.3-2.5-3.3
				c-0.9-0.9-2-1.6-3.2-2.2c-1.2-0.5-2.4-0.8-3.7-0.8c-3.3,0-6.5,1.3-8.9,3.6c-3.6,3.5-4.6,8.9-2.7,13.5c0.4,0.9,0.9,1.8,1.5,2.6
				h-9.6c-1-1.4-2.1-2.8-3.1-4.2c-1-1.4-2-2.8-3-4.2c0.9-0.8,1.8-1.7,2.7-2.6c0.9-0.9,1.8-1.7,2.7-2.6h2.3v-5h-3.5l-10.9,10.3V30
				h-13.2v4.8h8v33.6h-5.4c0,0-10-0.1-12-0.1c-1.2,0-2.4-0.2-3.5-0.8c-1-0.5-1.8-1.2-2.5-2.1l8.5-3.1l8.5-3.1
				c-0.4-1.5-0.9-2.9-1.6-4.2c-0.7-1.2-1.5-2.3-2.5-3.3c-0.9-0.9-2-1.6-3.2-2.2c-1.2-0.5-2.4-0.8-3.7-0.8c-1.7,0-3.4,0.3-4.9,1
				c-1.5,0.6-2.8,1.5-4,2.6c-1.1,1.1-2,2.4-2.7,3.9c-1.3,3.1-1.3,6.5,0,9.6c1.3,3,3.7,5.3,6.6,6.6c1.6,0.7,3.2,1,4.9,1h22.5v-7.2
				l3.1-2.9c0.6,0.8,1.2,1.7,1.8,2.5s1.3,1.7,1.9,2.5l3.2,5h32.7v-5c-4.2-0.1-9.1-0.1-10.2-0.1C173.4,68.4,172.3,68.1,171.2,67.6z
				 M114.5,55.8c1.4-1.3,3.3-2,5.2-1.9c0.9,0,1.7,0.2,2.4,0.7c0.8,0.5,1.4,1,2,1.7c-2,0.7-3.9,1.4-5.9,2.2c-1.9,0.7-3.9,1.4-5.9,2.2
				C112.5,58.8,113.2,57.1,114.5,55.8z M169.5,55.8c1.4-1.3,3.3-2,5.2-1.9c0.9,0,1.7,0.2,2.4,0.7c0.8,0.5,1.4,1,2,1.7
				c-2,0.7-3.9,1.4-5.9,2.2c-1.9,0.7-3.9,1.4-5.9,2.2C167.4,58.8,168.2,57.1,169.5,55.8z"/>
		</g>
	</g>
</g>
</svg>
