<svg id="Layer_1" data-name="Layer 1" xmlns="http://www.w3.org/2000/svg" width="1in" height="1.65in" viewBox="0 0 72 118.8">
  <title>hoeke-wdd-pattern-tile</title>
  <g>
    <rect width="72" height="118.8" style="fill: none"/>
    <path d="M44.43,80.13c-3.12,0-6,1.57-6.91,4.88-.64,2.33-.35,4.8-.37,7.22a27.65,27.65,0,0,1-1,7.23,5.58,5.58,0,0,1-2.31,3.61,3.1,3.1,0,0,1-1.51.37,5.45,5.45,0,0,1-3.78-1.84,10.84,10.84,0,0,1-2.59-7.45c0-3.21,1.33-6.32,2.37-9.31,0,0-4.61,2.56-8.73,9.56A14.92,14.92,0,0,0,18,98.23a16.11,16.11,0,0,1,7.57,9,19.48,19.48,0,0,1,.63,2.14,19.79,19.79,0,0,1,.06,8.53c0,.22-.11.44-.16.66a12.14,12.14,0,0,0,2.75,1,9.58,9.58,0,0,0,2.3.28c3.12,0,6-1.56,6.91-4.87.64-2.34.35-4.81.38-7.22a27.23,27.23,0,0,1,1-7.23A5.62,5.62,0,0,1,41.75,97a3.13,3.13,0,0,1,1.52-.37,5.47,5.47,0,0,1,3.78,1.84,10.94,10.94,0,0,1,2.59,7.45,21,21,0,0,1-.92,5.61,35.27,35.27,0,0,1-1.47,4.23A21.14,21.14,0,0,0,46,119a16.14,16.14,0,0,1,7.48,9,19.67,19.67,0,0,1,.5,11.32,12.94,12.94,0,0,0,2.78,1.05,10,10,0,0,0,2.3.28c3.12,0,6-1.57,6.91-4.88.06-.21.1-.41.14-.62a16.25,16.25,0,0,1-7-8.69,21.48,21.48,0,0,1-.75-2.72,6,6,0,0,1-1.9-1.39,10.9,10.9,0,0,1-2.6-7.45,20.9,20.9,0,0,1,.92-5.61,34.67,34.67,0,0,1,1.47-4.23,20.69,20.69,0,0,0,1.39-4,19.85,19.85,0,0,0,.43-4.61,16.32,16.32,0,0,1-7-8.69,17.62,17.62,0,0,1-.62-2.15A19.83,19.83,0,0,1,50,81.72a12.72,12.72,0,0,0-3.27-1.31,10,10,0,0,0-2.3-.28" style="fill: #f3bd23"/>
    <path d="M72.42,100.88a8.12,8.12,0,0,0-3.58.79c-1,3-2.36,6.1-2.37,9.31V111A10.85,10.85,0,0,0,69,118.29h0a3.27,3.27,0,0,1,.78-.59,3.1,3.1,0,0,1,1.51-.37A5.45,5.45,0,0,1,75,119.17l.11.14h0a7,7,0,0,0,1.53-3,27.65,27.65,0,0,0,1-7.23,34.54,34.54,0,0,1,.23-6.6,12.45,12.45,0,0,0-3.23-1.31,10,10,0,0,0-2.29-.27" style="fill: #f3bd23"/>
    <path d="M69,118.29a7,7,0,0,0-1.53,3,27.65,27.65,0,0,0-1,7.23v.31c0,1,0,2,0,3h0a16.27,16.27,0,0,1-.28,3.28,12.45,12.45,0,0,0,3.23,1.31,10.12,10.12,0,0,0,2.3.28,7.44,7.44,0,0,0,5.07-1.81,14.14,14.14,0,0,1-1.28.85c1-3,2.14-5.94,2.16-9.15a10.91,10.91,0,0,0-2.49-7.31h0a3.42,3.42,0,0,1-.77.59,3.16,3.16,0,0,1-1.52.37,5.45,5.45,0,0,1-3.78-1.84l-.11-.14h0" style="fill: #cecfe8"/>
    <path d="M67.22,102.81a30.33,30.33,0,0,0-7.11,8.42,17.63,17.63,0,0,0-1.73,12.5h0l0,0h0a4.49,4.49,0,0,0,1.78.41h0a3.07,3.07,0,0,0,1.36-.3h0l.08,0,.05,0h0a5.62,5.62,0,0,0,2.31-3.61,27.23,27.23,0,0,0,1-7.23v-.28c0-1,0-2.07,0-3.11h0a14.11,14.11,0,0,1,.42-3.83,6.34,6.34,0,0,1,1.72-2.94" style="fill: #cecfe8"/>
    <path d="M68.84,101.67l-.06,0h0a14.65,14.65,0,0,0-1.56,1.11h0a6.34,6.34,0,0,0-1.72,2.94,14.11,14.11,0,0,0-.42,3.83c0,1,0,2.08,0,3.11h0V113a27.23,27.23,0,0,1-1,7.23,5.62,5.62,0,0,1-2.31,3.61h0l-.05,0-.08,0h0a3.07,3.07,0,0,1-1.36.3h0a4.49,4.49,0,0,1-1.78-.41h0l0,0a21.48,21.48,0,0,0,.75,2.72,16.25,16.25,0,0,0,7,8.69,16.27,16.27,0,0,0,.28-3.28c0-1,0-2,0-3h0v-.31a27.65,27.65,0,0,1,1-7.23,7,7,0,0,1,1.53-3A10.85,10.85,0,0,1,66.47,111h0V111c0-3.21,1.33-6.31,2.37-9.31" style="fill: #d0a132"/>
    <path d="M.42,100.88a8.12,8.12,0,0,0-3.58.79c-1,3-2.36,6.1-2.37,9.31A10.86,10.86,0,0,0-3,118.29h0a3.27,3.27,0,0,1,.78-.59,3.12,3.12,0,0,1,1.51-.37A5.45,5.45,0,0,1,3,119.17l.11.14h0a7,7,0,0,0,1.53-3,27.65,27.65,0,0,0,1-7.23v-.31c0-1,0-2,0-3h0a16.27,16.27,0,0,1,.27-3.28,12.45,12.45,0,0,0-3.23-1.31,10,10,0,0,0-2.29-.27" style="fill: #f3bd23"/>
    <path d="M11.81,113.42h0a3.1,3.1,0,0,0-1.43.34h0l0,0A5.62,5.62,0,0,0,8,117.4a27.23,27.23,0,0,0-1,7.23v.28c0,1,0,2.07,0,3.11H7a14.11,14.11,0,0,1-.42,3.83,6.38,6.38,0,0,1-1.84,3.07A25.07,25.07,0,0,0,12,126.37a19.35,19.35,0,0,0,1.68-12.52h0l-.06,0a4.36,4.36,0,0,0-1.78-.41h0" style="fill: #f3bd23"/>
    <path d="M13,97c-3.11,0-6,1.57-6.91,4.88,0,.21-.09.41-.14.62a16.25,16.25,0,0,1,7,8.69,19.51,19.51,0,0,1,.71,2.7h0a6.37,6.37,0,0,1,1.95,1.41,10.94,10.94,0,0,1,2.59,7.45,20.51,20.51,0,0,1-.92,5.61,34.09,34.09,0,0,1-1.47,4.23,20,20,0,0,0-1.38,4,19.64,19.64,0,0,0,.06,8.53,17.62,17.62,0,0,0,.62,2.15c1.65,4.69,5.41,8.83,10.24,10a10.12,10.12,0,0,0,2.3.28c3.12,0,6-1.57,6.91-4.88.64-2.33.35-4.8.38-7.22a27.23,27.23,0,0,1,1-7.23,5.58,5.58,0,0,1,2.31-3.61,3.12,3.12,0,0,1,1.51-.37A5.45,5.45,0,0,1,43.58,136a10.9,10.9,0,0,1,2.6,7.45c0,3.21-1.12,6.15-2.16,9.15a23.88,23.88,0,0,0,8.52-9.4A18.3,18.3,0,0,0,54,139.31a16.16,16.16,0,0,1-7.46-9,17.47,17.47,0,0,1-.62-2.14,19.49,19.49,0,0,1-.06-8.53c.05-.22.1-.44.16-.66a12.22,12.22,0,0,0-2.76-1,9.58,9.58,0,0,0-2.3-.28c-3.12,0-6,1.56-6.91,4.87-.64,2.34-.35,4.8-.38,7.22a27.23,27.23,0,0,1-1,7.23,5.58,5.58,0,0,1-2.31,3.61,3.12,3.12,0,0,1-1.51.37A5.45,5.45,0,0,1,25,139.17a10.9,10.9,0,0,1-2.6-7.45,21,21,0,0,1,.92-5.61,35.27,35.27,0,0,1,1.47-4.23,22.25,22.25,0,0,0,1.23-3.3,16.12,16.12,0,0,1-7.49-9A19.65,19.65,0,0,1,18,98.23a12.94,12.94,0,0,0-2.67-1A10,10,0,0,0,13,97" style="fill: #cecfe8"/>
    <path d="M46,119c-.06.22-.11.44-.16.66a19.49,19.49,0,0,0,.06,8.53,17.47,17.47,0,0,0,.62,2.14,16.16,16.16,0,0,0,7.46,9,19.67,19.67,0,0,0-.5-11.32A16.14,16.14,0,0,0,46,119M18,98.23a19.65,19.65,0,0,0,.61,11.38,16.12,16.12,0,0,0,7.49,9c.05-.22.11-.44.16-.66a19.79,19.79,0,0,0-.06-8.53,19.48,19.48,0,0,0-.63-2.14,16.11,16.11,0,0,0-7.57-9" style="fill: #f4be23"/>
    <path d="M-3,118.29a7,7,0,0,0-1.53,3,27.65,27.65,0,0,0-1,7.23,34.54,34.54,0,0,1-.23,6.6,12.45,12.45,0,0,0,3.23,1.31,10.12,10.12,0,0,0,2.3.28,7.44,7.44,0,0,0,5.07-1.81,14.14,14.14,0,0,1-1.28.85h0c1-3,2.14-5.94,2.16-9.15v-.06a10.91,10.91,0,0,0-2.49-7.25h0a3.42,3.42,0,0,1-.77.59,3.16,3.16,0,0,1-1.52.37,5.45,5.45,0,0,1-3.78-1.84l-.11-.14h0" style="fill: #cecfe8"/>
    <path d="M5.94,102.46h0a16.27,16.27,0,0,0-.27,3.28c0,1,0,2,0,3h0v.31a27.65,27.65,0,0,1-1,7.23,7,7,0,0,1-1.53,3,10.91,10.91,0,0,1,2.49,7.25h0v.06c0,3.21-1.13,6.15-2.16,9.15a14.14,14.14,0,0,0,1.28-.85,6.38,6.38,0,0,0,1.84-3.07A14.11,14.11,0,0,0,7,128c0-1,0-2.08,0-3.11H7v-.28a27.23,27.23,0,0,1,1-7.23,5.62,5.62,0,0,1,2.31-3.61l0,0h0a3.1,3.1,0,0,1,1.43-.34h0a4.36,4.36,0,0,1,1.78.41l.06,0h0a19.51,19.51,0,0,0-.71-2.7,16.25,16.25,0,0,0-7-8.69h0" style="fill: #d0a132"/>
    <path d="M80.43,20.73c-3.12,0-6,1.57-6.91,4.88-.64,2.33-.35,4.8-.37,7.22a27.65,27.65,0,0,1-1.05,7.23,5.58,5.58,0,0,1-2.31,3.61,3.1,3.1,0,0,1-1.51.37A5.45,5.45,0,0,1,64.5,42.2a10.84,10.84,0,0,1-2.59-7.45c0-3.21,1.33-6.32,2.37-9.31,0,0-4.61,2.56-8.73,9.56A14.92,14.92,0,0,0,54,38.83a16.11,16.11,0,0,1,7.57,9A19.48,19.48,0,0,1,62.16,50a19.79,19.79,0,0,1,.06,8.53c0,.22-.11.44-.16.66a12.14,12.14,0,0,0,2.75,1,9.58,9.58,0,0,0,2.3.28c3.12,0,6-1.56,6.91-4.87.64-2.34.35-4.8.38-7.22a27.23,27.23,0,0,1,1-7.23c.4-1.41,1-2.92,2.31-3.61a3.13,3.13,0,0,1,1.52-.37A5.47,5.47,0,0,1,83.05,39a10.94,10.94,0,0,1,2.59,7.45,21,21,0,0,1-.92,5.61,35.27,35.27,0,0,1-1.47,4.23A21.14,21.14,0,0,0,82,59.62a16.14,16.14,0,0,1,7.48,9A19.67,19.67,0,0,1,90,79.91a12.94,12.94,0,0,0,2.78,1,10,10,0,0,0,2.3.27c3.12,0,6-1.56,6.91-4.87.06-.21.1-.41.14-.62a16.25,16.25,0,0,1-7-8.69,21.48,21.48,0,0,1-.75-2.72,6,6,0,0,1-1.9-1.39,10.9,10.9,0,0,1-2.6-7.45,20.9,20.9,0,0,1,.92-5.61,34.09,34.09,0,0,1,1.47-4.23,20.69,20.69,0,0,0,1.39-4,19.64,19.64,0,0,0-.07-8.53A17.62,17.62,0,0,0,93,31c-1.65-4.69-5.4-8.83-10.24-10a10,10,0,0,0-2.3-.28" style="fill: #f3bd23"/>
    <path d="M32.78,42.3a6.33,6.33,0,0,0-1.56,1.11,14.65,14.65,0,0,1,1.56-1.11" style="fill: #f3bd23"/>
    <path d="M8.43,20.73c-3.12,0-6,1.57-6.91,4.88-.64,2.33-.35,4.8-.37,7.22a27.65,27.65,0,0,1-1,7.23,5.58,5.58,0,0,1-2.31,3.61A3.1,3.1,0,0,1-3.72,44,5.45,5.45,0,0,1-7.5,42.2a10.84,10.84,0,0,1-2.59-7.45c0-3.21,1.33-6.32,2.37-9.31,0,0-4.61,2.56-8.73,9.56A14.92,14.92,0,0,0-18,38.83a16.11,16.11,0,0,1,7.57,9A19.48,19.48,0,0,1-9.84,50a19.79,19.79,0,0,1,.06,8.53c-.05.22-.11.44-.16.66a12.14,12.14,0,0,0,2.75,1,9.58,9.58,0,0,0,2.3.28c3.12,0,6-1.56,6.91-4.87.64-2.34.35-4.8.38-7.22a27.23,27.23,0,0,1,1-7.23c.4-1.41,1-2.92,2.31-3.61a3.13,3.13,0,0,1,1.52-.37A5.47,5.47,0,0,1,11.05,39a10.94,10.94,0,0,1,2.59,7.45,21,21,0,0,1-.92,5.61,35.27,35.27,0,0,1-1.47,4.23A21.14,21.14,0,0,0,10,59.62a16.14,16.14,0,0,1,7.48,9A19.67,19.67,0,0,1,18,79.91a12.94,12.94,0,0,0,2.78,1,10,10,0,0,0,2.3.27c3.12,0,6-1.56,6.91-4.87.06-.21.1-.41.14-.62a16.25,16.25,0,0,1-7-8.69,21.48,21.48,0,0,1-.75-2.72,6,6,0,0,1-1.9-1.39,10.9,10.9,0,0,1-2.6-7.45,20.9,20.9,0,0,1,.92-5.61,34.09,34.09,0,0,1,1.47-4.23,20.69,20.69,0,0,0,1.39-4,19.9,19.9,0,0,0,.43-4.61,16.32,16.32,0,0,1-7-8.69,17.62,17.62,0,0,1-.62-2.15A19.83,19.83,0,0,1,14,22.32,12.72,12.72,0,0,0,10.73,21a10,10,0,0,0-2.3-.28" style="fill: #f3bd23"/>
    <path d="M36.42,41.48a8.09,8.09,0,0,0-3.58.79c-1,3-2.36,6.1-2.37,9.31v.06A10.85,10.85,0,0,0,33,58.89h0a3.27,3.27,0,0,1,.78-.59,3.1,3.1,0,0,1,1.51-.37A5.45,5.45,0,0,1,39,59.77l.11.14h0a7,7,0,0,0,1.53-3,27.65,27.65,0,0,0,1.05-7.23v-.31c0-1,0-2,0-3h0a16.27,16.27,0,0,1,.27-3.28,12.45,12.45,0,0,0-3.23-1.31,10,10,0,0,0-2.29-.27" style="fill: #f3bd23"/>
    <path d="M47.81,54h0a3.16,3.16,0,0,0-1.38.31h0l-.1,0h0A5.62,5.62,0,0,0,44,58a27.23,27.23,0,0,0-1,7.23v.28c0,1,0,2.07,0,3.11h0a14.11,14.11,0,0,1-.42,3.83,6.38,6.38,0,0,1-1.84,3.07A25.07,25.07,0,0,0,48,67a19.35,19.35,0,0,0,1.68-12.52h0l-.06,0h0A4.38,4.38,0,0,0,47.82,54h0" style="fill: #f3bd23"/>
    <polyline points="32.84 42.27 32.78 42.3 32.84 42.27 32.84 42.27 32.84 42.27 32.84 42.27 32.84 42.27 32.84 42.27" style="fill: #cecfe8"/>
    <path d="M49,37.57c-3.11,0-6,1.56-6.91,4.87,0,.21-.09.41-.14.62a16.25,16.25,0,0,1,7,8.69,19.51,19.51,0,0,1,.71,2.7h0a6.37,6.37,0,0,1,2,1.41,10.94,10.94,0,0,1,2.59,7.45,20.51,20.51,0,0,1-.92,5.61,34.09,34.09,0,0,1-1.47,4.23,20,20,0,0,0-1.38,4A19.37,19.37,0,0,0,50,81.72a16.35,16.35,0,0,1,7,8.69,17.62,17.62,0,0,1,.62,2.15,19.84,19.84,0,0,1,.5,3.92,12.51,12.51,0,0,0,3.26,1.31,10.12,10.12,0,0,0,2.3.28c3.12,0,6-1.57,6.91-4.88.64-2.33.35-4.8.38-7.22a27.23,27.23,0,0,1,1-7.23,5.58,5.58,0,0,1,2.31-3.61,3.13,3.13,0,0,1,1.52-.37,5.45,5.45,0,0,1,3.77,1.84,10.9,10.9,0,0,1,2.6,7.45c0,3.21-1.12,6.15-2.16,9.15a23.88,23.88,0,0,0,8.52-9.4A18.3,18.3,0,0,0,90,79.91a16.17,16.17,0,0,1-7.46-9,18.15,18.15,0,0,1-.62-2.15,19.49,19.49,0,0,1-.06-8.53c0-.22.1-.44.16-.66a12.22,12.22,0,0,0-2.76-1,9.58,9.58,0,0,0-2.3-.28c-3.12,0-6,1.56-6.91,4.87-.64,2.34-.35,4.8-.38,7.22a27.23,27.23,0,0,1-1,7.23c-.4,1.41-1,2.92-2.31,3.61a3.12,3.12,0,0,1-1.51.37A5.45,5.45,0,0,1,61,79.77a10.88,10.88,0,0,1-2.6-7.45,21,21,0,0,1,.92-5.61,35.27,35.27,0,0,1,1.47-4.23,22.25,22.25,0,0,0,1.23-3.3,16.12,16.12,0,0,1-7.49-9A19.65,19.65,0,0,1,54,38.83a12.94,12.94,0,0,0-2.67-1,10,10,0,0,0-2.3-.27" style="fill: #cecfe8"/>
    <path d="M50,81.72a19.83,19.83,0,0,0,.49,3.92,17.62,17.62,0,0,0,.62,2.15,16.32,16.32,0,0,0,7,8.69,19.84,19.84,0,0,0-.5-3.92A17.62,17.62,0,0,0,57,90.41a16.35,16.35,0,0,0-7-8.69" style="fill: #d0a132"/>
    <path d="M82,59.62c-.06.22-.11.44-.16.66a19.49,19.49,0,0,0,.06,8.53A18.15,18.15,0,0,0,82.55,71a16.17,16.17,0,0,0,7.46,9,19.67,19.67,0,0,0-.5-11.32,16.14,16.14,0,0,0-7.48-9M54,38.83a19.65,19.65,0,0,0,.61,11.38,16.12,16.12,0,0,0,7.49,9c0-.22.11-.44.16-.66A19.79,19.79,0,0,0,62.16,50a19.48,19.48,0,0,0-.63-2.14,16.11,16.11,0,0,0-7.57-9" style="fill: #cfd0e9"/>
    <path d="M33,58.89a7,7,0,0,0-1.53,3,27.65,27.65,0,0,0-1.05,7.23v.31c0,1,.05,2,.05,3h0a16.27,16.27,0,0,1-.28,3.28,12.45,12.45,0,0,0,3.23,1.31,10.12,10.12,0,0,0,2.3.28,7.44,7.44,0,0,0,5.07-1.81,14.14,14.14,0,0,1-1.28.85h0c1-3,2.14-5.94,2.16-9.15v-.06a10.91,10.91,0,0,0-2.49-7.25h0a3.42,3.42,0,0,1-.77.59,3.16,3.16,0,0,1-1.52.37A5.45,5.45,0,0,1,33.06,59L33,58.89h0" style="fill: #cecfe8"/>
    <path d="M31.22,43.41a30.33,30.33,0,0,0-7.11,8.42,17.63,17.63,0,0,0-1.73,12.5h0l.07,0a4.5,4.5,0,0,0,1.8.42h0a3.1,3.1,0,0,0,1.47-.36h0a5.62,5.62,0,0,0,2.31-3.61,27.23,27.23,0,0,0,1-7.23v-.28c0-1,0-2.07,0-3.11h0a14.11,14.11,0,0,1,.42-3.83,6.34,6.34,0,0,1,1.72-2.94" style="fill: #cecfe8"/>
    <path d="M41.94,43.06h0a16.27,16.27,0,0,0-.27,3.28c0,1,0,2,0,3h0v.31a27.65,27.65,0,0,1-1.05,7.23,7,7,0,0,1-1.53,3,10.91,10.91,0,0,1,2.49,7.25h0v.06c0,3.21-1.13,6.15-2.16,9.15a14.14,14.14,0,0,0,1.28-.85,6.38,6.38,0,0,0,1.84-3.07A14.11,14.11,0,0,0,43,68.62c0-1,0-2.08,0-3.11h0v-.28A27.23,27.23,0,0,1,44,58a5.62,5.62,0,0,1,2.31-3.61h0l.1,0h0A3.16,3.16,0,0,1,47.81,54h0a4.38,4.38,0,0,1,1.72.38h0l.06,0h0a19.51,19.51,0,0,0-.71-2.7,16.25,16.25,0,0,0-7-8.69h0" style="fill: #d0a132"/>
    <path d="M32.84,42.27l-.06,0h0a14.65,14.65,0,0,0-1.56,1.11h0a6.34,6.34,0,0,0-1.72,2.94,14.11,14.11,0,0,0-.42,3.83c0,1,.05,2.08,0,3.11h0v.28a27.23,27.23,0,0,1-1,7.23,5.62,5.62,0,0,1-2.31,3.61h0a3.1,3.1,0,0,1-1.47.36h0a4.5,4.5,0,0,1-1.8-.42l-.07,0a21.48,21.48,0,0,0,.75,2.72,16.25,16.25,0,0,0,7,8.69,16.27,16.27,0,0,0,.28-3.28c0-1-.05-2-.05-3h0v-.31a27.65,27.65,0,0,1,1.05-7.23,7,7,0,0,1,1.53-3,10.85,10.85,0,0,1-2.48-7.25h0v-.06c0-3.21,1.33-6.31,2.37-9.31" style="fill: #d0a132"/>
    <path d="M-23,37.57c-3.11,0-6,1.56-6.91,4.87,0,.21-.09.41-.14.62a16.25,16.25,0,0,1,7,8.69,19.51,19.51,0,0,1,.71,2.7,6.37,6.37,0,0,1,1.95,1.41,10.94,10.94,0,0,1,2.59,7.45,20.51,20.51,0,0,1-.92,5.61,34.09,34.09,0,0,1-1.47,4.23,20,20,0,0,0-1.38,4,19.64,19.64,0,0,0,.06,8.53,17.62,17.62,0,0,0,.62,2.15c1.65,4.69,5.41,8.83,10.24,10a10.12,10.12,0,0,0,2.3.28c3.12,0,6-1.57,6.91-4.88.64-2.33.35-4.8.38-7.22a27.23,27.23,0,0,1,1-7.23,5.58,5.58,0,0,1,2.31-3.61,3.13,3.13,0,0,1,1.52-.37A5.45,5.45,0,0,1,7.58,76.6a10.9,10.9,0,0,1,2.6,7.45c0,3.21-1.12,6.15-2.16,9.15a23.88,23.88,0,0,0,8.52-9.4A18.3,18.3,0,0,0,18,79.91a16.17,16.17,0,0,1-7.46-9,18.15,18.15,0,0,1-.62-2.15,19.49,19.49,0,0,1-.06-8.53c.05-.22.1-.44.16-.66a12.22,12.22,0,0,0-2.76-1A9.58,9.58,0,0,0,5,58.31c-3.12,0-6,1.56-6.91,4.87-.64,2.34-.35,4.8-.38,7.22a27.23,27.23,0,0,1-1,7.23c-.4,1.41-1,2.92-2.31,3.61a3.12,3.12,0,0,1-1.51.37A5.45,5.45,0,0,1-11,79.77a10.88,10.88,0,0,1-2.6-7.45,21,21,0,0,1,.92-5.61,35.27,35.27,0,0,1,1.47-4.23,22.25,22.25,0,0,0,1.23-3.3,16.12,16.12,0,0,1-7.49-9A19.65,19.65,0,0,1-18,38.83a13.16,13.16,0,0,0-2.67-1,10,10,0,0,0-2.3-.27" style="fill: #cecfe8"/>
    <path d="M10,59.62c-.06.22-.11.44-.16.66a19.49,19.49,0,0,0,.06,8.53A18.15,18.15,0,0,0,10.55,71a16.17,16.17,0,0,0,7.46,9,19.67,19.67,0,0,0-.5-11.32,16.14,16.14,0,0,0-7.48-9M-18,38.83a19.65,19.65,0,0,0,.61,11.38,16.12,16.12,0,0,0,7.49,9c0-.22.11-.44.16-.66A19.79,19.79,0,0,0-9.84,50a19.48,19.48,0,0,0-.63-2.14,16.11,16.11,0,0,0-7.57-9" style="fill: #d0a132"/>
    <path d="M44.43-38.67c-3.12,0-6,1.57-6.91,4.88-.64,2.33-.35,4.8-.37,7.22a27.65,27.65,0,0,1-1,7.23,5.58,5.58,0,0,1-2.31,3.61,3.1,3.1,0,0,1-1.51.37A5.45,5.45,0,0,1,28.5-17.2a10.84,10.84,0,0,1-2.59-7.45c0-3.21,1.33-6.32,2.37-9.31,0,0-4.61,2.56-8.73,9.56A14.92,14.92,0,0,0,18-20.57a16.11,16.11,0,0,1,7.57,9,19.48,19.48,0,0,1,.63,2.14,19.79,19.79,0,0,1,.06,8.53c0,.22-.11.44-.16.66a12.14,12.14,0,0,0,2.75,1,9.58,9.58,0,0,0,2.3.28c3.12,0,6-1.56,6.91-4.87.64-2.34.35-4.8.38-7.22a27.23,27.23,0,0,1,1-7.23c.4-1.41,1-2.92,2.31-3.61a3.13,3.13,0,0,1,1.52-.37,5.47,5.47,0,0,1,3.78,1.84,10.94,10.94,0,0,1,2.59,7.45,21,21,0,0,1-.92,5.61,35.27,35.27,0,0,1-1.47,4.23A21.14,21.14,0,0,0,46,.22a16.14,16.14,0,0,1,7.48,9A19.67,19.67,0,0,1,54,20.51a12.94,12.94,0,0,0,2.78,1,10,10,0,0,0,2.3.28c3.12,0,6-1.57,6.91-4.88.06-.21.1-.41.14-.62a16.25,16.25,0,0,1-7-8.69,21.48,21.48,0,0,1-.75-2.72,6,6,0,0,1-1.9-1.39,10.9,10.9,0,0,1-2.6-7.45,20.9,20.9,0,0,1,.92-5.61,34.09,34.09,0,0,1,1.47-4.23,20.69,20.69,0,0,0,1.39-4,19.64,19.64,0,0,0-.07-8.53A17.62,17.62,0,0,0,57-28.39c-1.65-4.69-5.4-8.83-10.24-10a10,10,0,0,0-2.3-.28" style="fill: #f3bd23"/>
    <path d="M72.42-17.92a8.09,8.09,0,0,0-3.58.79c-1,3-2.36,6.1-2.37,9.31v.06A10.85,10.85,0,0,0,69-.51h0a3.27,3.27,0,0,1,.78-.59,3.1,3.1,0,0,1,1.51-.37A5.45,5.45,0,0,1,75,.37l.11.14h0a7,7,0,0,0,1.53-3,27.65,27.65,0,0,0,1-7.23,34.54,34.54,0,0,1,.23-6.6,12.45,12.45,0,0,0-3.23-1.31,10,10,0,0,0-2.29-.27" style="fill: #f3bd23"/>
    <path d="M69-.51a7,7,0,0,0-1.53,3,27.65,27.65,0,0,0-1,7.23v.31c0,1,0,2,0,3h0a16.27,16.27,0,0,1-.28,3.28,12.45,12.45,0,0,0,3.23,1.31,10.12,10.12,0,0,0,2.3.28,7.44,7.44,0,0,0,5.07-1.81,14.14,14.14,0,0,1-1.28.85c1-3,2.14-5.94,2.16-9.15A10.91,10.91,0,0,0,75.13.51h0a3.42,3.42,0,0,1-.77.59,3.16,3.16,0,0,1-1.52.37A5.45,5.45,0,0,1,69.06-.37L69-.51h0" style="fill: #cecfe8"/>
    <path d="M67.22-16a30.33,30.33,0,0,0-7.11,8.42,17.63,17.63,0,0,0-1.73,12.5h0l.11.05a4.42,4.42,0,0,0,1.76.4h0A3.1,3.1,0,0,0,61.75,5h0A5.62,5.62,0,0,0,64.08,1.4a27.23,27.23,0,0,0,1-7.23v-.28c0-1,0-2.07,0-3.11h0A14.11,14.11,0,0,1,65.5-13,6.34,6.34,0,0,1,67.22-16" style="fill: #cecfe8"/>
    <path d="M68.84-17.13l-.06,0A14.65,14.65,0,0,0,67.22-16h0A6.34,6.34,0,0,0,65.5-13a14.11,14.11,0,0,0-.42,3.83c0,1,0,2.08,0,3.11h0v.28a27.23,27.23,0,0,1-1,7.23A5.62,5.62,0,0,1,61.77,5h0a3.1,3.1,0,0,1-1.47.36h0A4.42,4.42,0,0,1,58.49,5l-.11-.05a21.48,21.48,0,0,0,.75,2.72,16.25,16.25,0,0,0,7,8.69,16.27,16.27,0,0,0,.28-3.28c0-1,0-2,0-3h0V9.74a27.65,27.65,0,0,1,1-7.23A7,7,0,0,1,69-.51a10.85,10.85,0,0,1-2.48-7.25h0v-.06c0-3.21,1.33-6.31,2.37-9.31" style="fill: #d0a132"/>
    <path d="M.42-17.92a8.09,8.09,0,0,0-3.58.79c-1,3-2.36,6.1-2.37,9.31A10.86,10.86,0,0,0-3-.51h0a3.27,3.27,0,0,1,.78-.59A3.1,3.1,0,0,1-.76-1.47,5.45,5.45,0,0,1,3,.37l.11.14h0a7,7,0,0,0,1.53-3,27.65,27.65,0,0,0,1-7.23V-10c0-1,0-2,0-3h0a16.27,16.27,0,0,1,.27-3.28,12.45,12.45,0,0,0-3.23-1.31,10,10,0,0,0-2.29-.27" style="fill: #f3bd23"/>
    <path d="M11.81-5.38h0a3.12,3.12,0,0,0-1.4.32l0,0h0l0,0A5.62,5.62,0,0,0,8-1.4,27.23,27.23,0,0,0,7,5.83v.28c0,1,0,2.07,0,3.11H7a14.11,14.11,0,0,1-.42,3.83,6.38,6.38,0,0,1-1.84,3.07A25.07,25.07,0,0,0,12,7.57,19.35,19.35,0,0,0,13.66-4.95h0l-.09,0a4.53,4.53,0,0,0-1.75-.39h0" style="fill: #f3bd23"/>
    <path d="M13-21.83c-3.11,0-6,1.56-6.91,4.87,0,.21-.09.41-.14.62a16.25,16.25,0,0,1,7,8.69,19.51,19.51,0,0,1,.71,2.7h0a6.37,6.37,0,0,1,1.95,1.41A10.94,10.94,0,0,1,18.2,3.91a20.51,20.51,0,0,1-.92,5.61,34.09,34.09,0,0,1-1.47,4.23,20,20,0,0,0-1.38,4A19.37,19.37,0,0,0,14,22.32,16.35,16.35,0,0,1,21,31a17.62,17.62,0,0,1,.62,2.15,19.84,19.84,0,0,1,.5,3.92,12.51,12.51,0,0,0,3.26,1.31,10.12,10.12,0,0,0,2.3.28c3.12,0,6-1.57,6.91-4.88.64-2.33.35-4.8.38-7.22a27.23,27.23,0,0,1,1-7.23,5.58,5.58,0,0,1,2.31-3.61,3.12,3.12,0,0,1,1.51-.37,5.45,5.45,0,0,1,3.78,1.84,10.9,10.9,0,0,1,2.6,7.45c0,3.21-1.12,6.15-2.16,9.15a23.88,23.88,0,0,0,8.52-9.4A18.3,18.3,0,0,0,54,20.51a16.16,16.16,0,0,1-7.46-9,17.47,17.47,0,0,1-.62-2.14A19.49,19.49,0,0,1,45.87.88c.05-.22.1-.44.16-.66a12.22,12.22,0,0,0-2.76-1A9.58,9.58,0,0,0,41-1.09c-3.12,0-6,1.56-6.91,4.87-.64,2.34-.35,4.8-.38,7.22a27.23,27.23,0,0,1-1,7.23c-.4,1.41-1,2.92-2.31,3.61a3.12,3.12,0,0,1-1.51.37A5.45,5.45,0,0,1,25,20.37a10.9,10.9,0,0,1-2.6-7.45,21,21,0,0,1,.92-5.61,35.27,35.27,0,0,1,1.47-4.23,22.25,22.25,0,0,0,1.23-3.3,16.12,16.12,0,0,1-7.49-9A19.65,19.65,0,0,1,18-20.57a12.94,12.94,0,0,0-2.67-1,10,10,0,0,0-2.3-.27" style="fill: #cecfe8"/>
    <path d="M14,22.32a19.83,19.83,0,0,0,.49,3.92,17.62,17.62,0,0,0,.62,2.15,16.32,16.32,0,0,0,7,8.69,19.84,19.84,0,0,0-.5-3.92A17.62,17.62,0,0,0,21,31a16.35,16.35,0,0,0-7-8.69" style="fill: #d0a132"/>
    <path d="M46,.22c-.06.22-.11.44-.16.66a19.49,19.49,0,0,0,.06,8.53,17.47,17.47,0,0,0,.62,2.14,16.16,16.16,0,0,0,7.46,9,19.67,19.67,0,0,0-.5-11.32A16.14,16.14,0,0,0,46,.22M18-20.57a19.65,19.65,0,0,0,.61,11.38,16.12,16.12,0,0,0,7.49,9c.05-.22.11-.44.16-.66a19.79,19.79,0,0,0-.06-8.53,19.48,19.48,0,0,0-.63-2.14,16.11,16.11,0,0,0-7.57-9" style="fill: #f4be23"/>
    <path d="M-3-.51a7,7,0,0,0-1.53,3,27.65,27.65,0,0,0-1,7.23,34.54,34.54,0,0,1-.23,6.6,12.45,12.45,0,0,0,3.23,1.31,10.12,10.12,0,0,0,2.3.28,7.44,7.44,0,0,0,5.07-1.81A14.14,14.14,0,0,1,3.46,17h0c1-3,2.14-5.94,2.16-9.15V7.76A10.91,10.91,0,0,0,3.13.51h0a3.42,3.42,0,0,1-.77.59,3.16,3.16,0,0,1-1.52.37A5.45,5.45,0,0,1-2.94-.37L-3-.51h0" style="fill: #cecfe8"/>
    <path d="M5.94-16.34h0a16.27,16.27,0,0,0-.27,3.28c0,1,0,2,0,3h0v.31a27.65,27.65,0,0,1-1,7.23,7,7,0,0,1-1.53,3A10.91,10.91,0,0,1,5.62,7.76h0v.06C5.6,11,4.49,14,3.46,17a14.14,14.14,0,0,0,1.28-.85,6.38,6.38,0,0,0,1.84-3.07A14.11,14.11,0,0,0,7,9.22c0-1,0-2.08,0-3.11H7V5.83A27.23,27.23,0,0,1,8-1.4,5.62,5.62,0,0,1,10.31-5l0,0h0l0,0a3.12,3.12,0,0,1,1.4-.32h0A4.53,4.53,0,0,1,13.57-5l.09,0h0A19.51,19.51,0,0,0,13-7.65a16.25,16.25,0,0,0-7-8.69h0" style="fill: #d0a132"/>
  </g>
</svg>
