<svg xmlns="http://www.w3.org/2000/svg" xmlns:xlink="http://www.w3.org/1999/xlink" width="374.25" height="292.74" viewBox="0 0 374.25 292.74">
  <defs>
    <linearGradient id="linear-gradient" x1="103.84" y1="257.57" x2="374.28" y2="257.57" gradientUnits="userSpaceOnUse">
      <stop offset="0" stop-color="#abc3d6"/>
      <stop offset="0.2" stop-color="#b0c6d8"/>
      <stop offset="0.43" stop-color="#bed1df"/>
      <stop offset="0.68" stop-color="#d5e1eb"/>
      <stop offset="0.94" stop-color="#f6f8fb"/>
      <stop offset="1" stop-color="#fff"/>
    </linearGradient>
    <linearGradient id="linear-gradient-2" x1="26.85" y1="287.53" x2="160.86" y2="287.53" xlink:href="#linear-gradient"/>
    <linearGradient id="linear-gradient-3" x1="45.82" y1="106.98" x2="125.84" y2="106.98" gradientTransform="translate(1.53 0.95) rotate(1.07)" xlink:href="#linear-gradient"/>
    <linearGradient id="linear-gradient-4" x1="59.28" y1="145.66" x2="66.05" y2="145.66" xlink:href="#linear-gradient"/>
    <linearGradient id="linear-gradient-5" x1="47.86" y1="166.36" x2="109.77" y2="166.36" xlink:href="#linear-gradient"/>
  </defs>
  <title>wwwVectorStock</title>
  <g style="isolation: isolate">
    <g id="Layer_4" data-name="Layer 4">
      <g>
        <path d="M108.52,261.75c11.81.41,71.93,4.71,85.3,4.18,92.08-3.65,180.46.82,180.46-6.46,0-6.41-160.85-15.32-227.66-6.84C119.47,256.08,92.8,261.21,108.52,261.75Z" style="mix-blend-mode: multiply;fill: url(#linear-gradient)"/>
        <path d="M29.4,288.92c5.74.77,35.58,1.57,42.2,1.39,45.54-1.21,89.26.28,89.26-2.15,0-2.13-79.57-5.1-112.61-2.28C34.82,287,21,287.79,29.4,288.92Z" style="mix-blend-mode: multiply;fill: url(#linear-gradient-2)"/>
        <rect x="8.99" width="365.93" height="224.1" style="fill: #3e4e57"/>
        <rect x="8.99" width="365.93" height="224.1" style="fill: #3e4e57"/>
        <rect width="365.93" height="224.1" style="fill: #657c8e"/>
        <rect x="16.68" y="6.62" width="332.56" height="203.67" style="fill: #fff"/>
        <polygon points="196.26 253.31 151.69 253.31 160.68 224.1 205.25 224.1 196.26 253.31" style="fill: #657c8e"/>
        <path d="M201.91,224.1H160.68l-8.55,27.78C167.6,242,186.84,234.24,201.91,224.1Z" style="fill: #3e4e57"/>
        <path d="M171.65,253.31h24.61l4.8-15.61C191.32,243,181,247.89,171.65,253.31Z" style="fill: #657c8e"/>
        <path d="M246.38,261.6C244,252,212.9,244.33,174.87,244.33S105.74,252,103.36,261.6Z" style="fill: #657c8e"/>
        <g>
          <path d="M115.35,138l-14.29,1.08L90.71,108.57q-.57-1.62-2-6.74c-1-3.42-1.57-5.71-1.76-6.89q-.09,2.2-.69,7.11c-.41,3.27-.73,5.61-1,7l-5.64,31.6-14.25,1.07-19.55-58,12.35-.93,10,31.73q2.66,8.81,4,15.29.06-2.32.57-7.23t1.08-7.63L80,81.13l11.86-.89L103,112.74q.73,2.19,1.93,6.69c.8,3,1.42,5.6,1.88,7.76.12-2.13.35-4.78.71-8s.7-5.77,1-7.75l5.1-32.87L126,77.67Z" style="fill: url(#linear-gradient-3)"/>
          <path d="M112.49,137.38,97,138.84l-11.89-33c-.44-1.17-1.22-3.61-2.35-7.3s-1.82-6.19-2.06-7.47q0,2.4-.6,7.76t-.92,7.65L73.64,141l-15.49,1.46L35.69,79.71l13.42-1.26,11.53,34.33q3.07,9.52,4.71,16.56,0-2.53.48-7.88t1-8.33l6-36.91L85.72,75l12.76,35.16c.56,1.57,1.3,4,2.23,7.24s1.67,6.06,2.21,8.4c.08-2.31.28-5.21.61-8.68s.65-6.3,1-8.46l4.88-35.88,13.41-1.26Z" style="fill: #f7c100"/>
          <path d="M206.13,140.91h-15.6L181.78,107c-.32-1.21-.88-3.7-1.65-7.49s-1.24-6.32-1.35-7.62q-.27,2.39-1.33,7.67t-1.63,7.53l-8.71,33.85H151.55L135.07,76.3h13.48l8.26,35.27q2.17,9.77,3.14,16.92c.18-1.68.58-4.28,1.22-7.8s1.23-6.25,1.79-8.19l9.41-36.2h12.95l9.41,36.2q.61,2.43,1.55,7.42c.61,3.33,1.09,6.19,1.41,8.57.29-2.29.77-5.16,1.41-8.59s1.24-6.21,1.77-8.33l8.22-35.27h13.48Z" style="fill: #f7c100"/>
          <path d="M302.68,140.91h-15.6L278.33,107c-.33-1.21-.88-3.7-1.66-7.49s-1.23-6.32-1.35-7.62q-.26,2.39-1.32,7.67c-.71,3.52-1.25,6-1.64,7.53l-8.7,33.85H248.1L231.62,76.3H245.1l8.26,35.27q2.16,9.77,3.14,16.92.27-2.52,1.21-7.8c.64-3.52,1.23-6.25,1.79-8.19l9.42-36.2h12.94l9.42,36.2q.62,2.43,1.54,7.42t1.42,8.57c.29-2.29.76-5.16,1.41-8.59s1.24-6.21,1.77-8.33l8.22-35.27h13.48Z" style="fill: #f7c100"/>
        </g>
        <g style="mix-blend-mode: multiply">
          <path d="M65.74,151.9l.31-3.82a12.44,12.44,0,0,1-1.86-1.83c-1.67-.85-3.54-3.6-4.53-6.83-.12.24-.25.44-.38.65,2.9,5.47,5.32,9.94,6.31,11.78Z" style="fill: url(#linear-gradient-4)"/>
          <path d="M51.86,133.39c-.26.91.11,2.25-.27,3.7h0c-2.45,4.52.43,19.7,2.17,29.13,1.44,13.15,2,34.09,2,34.09.23,1.33-1.9,5.66-1.33,7a11.9,11.9,0,0,0,2.4,4l-.29,5.09h.06l-.34,6.89H69.37l1.22-5.82,1.16,5.82h13l-.24-8.49c1.12-.1,1.86-.47,2.11-1.24,1.14-3.55-.49-11.33-1.5-24.2-.67-8.6-.57-12.75.76-18.18,6.27-3,15-6.43,19.06-8.35a4.15,4.15,0,0,0,1.63-.81,2.17,2.17,0,0,0,.69-.49c0-.1.08-.19.12-.29,1.16-1.32,1.76-2.59,1.2-5.66-1.15-6.36-4.47-11.46-3.23-15.56a3.15,3.15,0,0,0,1.12-.17c1-.27,1-3,0-3.2l.75-2a3.1,3.1,0,0,0,.42-.4c1.74-1.92,3.38-6.49.53-7.66-1.57-.65-3.8,2.85-4.67,4.3L103.4,133,102,136.25c-.87-.19-1.32-.36-1.72-.1a2.36,2.36,0,0,0-.16,2.75l.51,15c-.16.4-.3,1.65-.44,2.08a83.6,83.6,0,0,1-13.1-1c-2-.23-4.54-.6-7.24-.84A2.17,2.17,0,0,0,76.5,152h0l-.07-3.1a15.6,15.6,0,0,0,3.33-4.25c.48-1.28.14-7.3-.44-11.46A6.05,6.05,0,0,0,81.12,128c-.24-1.82-3.26-4.18-4.45-4.31-7,2.16-7.1,1-12.88,3.82-.67.33-6.31,7.42-6.89,7.91.6-4.14-3.86-13.5-3.6-14.74a1.35,1.35,0,0,0,1,.16c.68-.25,1.24-2.17.61-2.83a2.43,2.43,0,0,0-1.31-1.11l.87,0c1.38-1,.79-3,0-5.38-.54-1.62-1.72-2.64-3.1-1.64s-2.84,4.51-2.17,6.07c-.07,0,.7,0,.61,0a2.71,2.71,0,0,0-1.94,2.51Zm7.8,6c1,3.23,2.86,6,4.53,6.83a12.44,12.44,0,0,0,1.86,1.83l-.31,3.82-.15-.05c-1-1.84-3.41-6.31-6.31-11.78C59.41,139.86,59.54,139.66,59.66,139.42Z" style="fill: url(#linear-gradient-5)"/>
        </g>
        <g>
          <path d="M56.21,181.85l-.37-.54h0l-.09-.13h0L54.87,180h0c0-.05-.08-.1-.12-.16l0-.07h0l-.26-.34v0l-.14-.18-.06-.07c-.26-.33-.52-.66-.8-1l-.08-.09-.17,0c-3.46-.43-7.17-1.15-5.64-.34.74.39-1.4,3.13-.82,3.09,3.13-.23,6.36,2,6.62,1.83a7.84,7.84,0,0,0,3-.35Z" style="fill: #fdc8a8"/>
          <path d="M53.66,119.44a130.61,130.61,0,0,0-2.26,13.88c-1.13,9.31-6.65,11.67-10.34,7.61,0-2.71,1.28-6.14,1.8-7.94l5.79-16.73c.21-.69,2.12-1.63,4.13-.54C54.12,116.44,53.66,119.44,53.66,119.44Z" style="fill: #cfd0e9"/>
          <path d="M53.82,116.46c1.38-1,1.62-3,.82-5.38-.54-1.62-1.71-2.64-3.09-1.64s-3,5-2,6.33A3.07,3.07,0,0,0,53.82,116.46Z" style="fill: #fdc8a8"/>
          <path d="M49.15,115.52c1,0,.4-.09,3.36.58,2.28.52,2.2,1.07,2.59,1.49.63.66.06,2.58-.62,2.83s-1.12-.32-2.69-.88a9.59,9.59,0,0,0-3-.84C47.45,118.82,48,115.57,49.15,115.52Z" style="fill: #cfd0e9"/>
          <path d="M48.79,118.7a2.43,2.43,0,0,1,.27,0,2,2,0,0,1,2.83-2.08c.09,0,.18.08.27.12s.33.1.46.13a11.34,11.34,0,0,1,1.51.44A2,2,0,0,1,55.31,119a1.72,1.72,0,0,0-.21-1.45c-.39-.42-.31-1-2.59-1.49-3-.67-2.39-.62-3.36-.58C48,115.57,47.45,118.82,48.79,118.7Z" style="fill: #f49bf1;mix-blend-mode: multiply"/>
          <polygon points="77.5 284.49 74.08 284.83 73.44 279.51 76.86 279.17 77.5 284.49" style="fill: #fdc8a8"/>
          <path d="M73.43,279.51l.23,1.85a1.24,1.24,0,0,1,.64-.11c.9.06,1.7.12,2.07,1a2.8,2.8,0,0,1-.14,1.64c0,.24-.11.48-.16.72l1.44-.14-.65-5.32Z" style="fill: #fdc8a8"/>
          <path d="M55.06,244.35c-.09,3.07-1.94-.08-4.46-.14l-1.14,0c-2.52-.06-3.94-2.6-3.86-5.67l1.55-31.4c.09-3.06.65-8.55,3.17-8.49l3.84,3.09c2.52.06,8.68,2.68,8.59,5.75Z" style="fill: #3e4e57"/>
          <polygon points="47.3 283.63 43.85 283.6 43.85 278.25 47.3 278.28 47.3 283.63" style="fill: #fdc8a8"/>
          <path d="M43.85,278.25v1.85a1.29,1.29,0,0,1,.65,0c.89.16,1.68.3,2,1.23a2.88,2.88,0,0,1-.34,1.62c-.09.23-.18.46-.25.7H47.3v-5.35Z" style="fill: #fdc8a8"/>
          <path d="M51.09,236.78,50,236.59c-2.49-.41-4.1,1-4.45,4.33l-1.94,35.81.07,3,5,0,6.66-37A5.11,5.11,0,0,0,51.09,236.78Z" style="fill: #3e4e57"/>
          <path d="M61.34,214.45a69.06,69.06,0,0,0-3.44,11.13c-.41,3.66-9.39,48.35-10.54,54.14h1.25l6.45-35.36c.12-.52-.38-1.06-.37-1.63l4.87-20.94Z" style="fill: #f49bf1;mix-blend-mode: multiply"/>
          <path d="M75.48,243.36c.44,3-1.92.25-4.41.63l-1.13.17c-2.49.38-4.33-1.88-4.77-4.92L59,208.43c-.44-3-.82-8.53,1.67-8.91L65,201.91c2.49-.37,9,1.16,9.45,4.2Z" style="fill: #3e4e57"/>
          <path d="M70.28,236.58H69.13c-2.52,0-3.87,1.67-3.64,5l5.93,35.31.58,2.95,4.9-.87-1.49-37.29A5.1,5.1,0,0,0,70.28,236.58Z" style="fill: #3e4e57"/>
          <path d="M67.17,216.09c6,.85,3.52,1.57,8.12,63.21L76.9,279l-1.38-34.75a3.23,3.23,0,0,0,0-.9l-1-37.25c-.44-3-7-4.57-9.45-4.2l-4.31-2.39c-1.27.19-1.79,1.73-1.94,3.59a12.54,12.54,0,0,0-4.6-1.39l-3.84-3.09c-2.52-.06-3.08,5.43-3.17,8.49L46.66,216C52.94,217.62,54.35,214.26,67.17,216.09Z" style="fill: #3e4e57"/>
          <path d="M63,228.42c-.06-.55-.14-1.09-.23-1.64a19.87,19.87,0,0,0-.87-3.87Z" style="fill: #f49bf1;mix-blend-mode: multiply"/>
          <polygon points="67.68 153.56 68.59 167.88 61.14 180 54.54 167.88 54.54 153.14 67.68 153.56" style="fill: #fff"/>
          <path d="M55.84,152.16c0,1.81,2.39,3.29,5.38,3.3h0c3,0,5.42-1.44,5.44-3.25l-.34-13.69c0-1.81-1.9-3.28-4.89-3.29h0c-3,0-4.45,1.45-4.47,3.27Z" style="fill: #fdc8a8"/>
          <path d="M54.06,138.71l-1.19-.47c-1-.37-1.72.21-1.78,1.32-.08,1.89,1.42,1.86,1.58,3.54l2.31-.56Z" style="fill: #fdc8a8"/>
          <path d="M69.9,144.28c-.71,1.93-5.37,6.72-7.22,6.89s-7.69-4-8.62-5.76c-2.56-4.91-3.33-18.66,6.39-19,2.6-.09,7-1.55,8.41,3.22C69.73,132.64,70.53,142.59,69.9,144.28Z" style="fill: #fdc8a8"/>
          <path d="M59.88,153.1a7.65,7.65,0,0,0,.35-2.41c-.06-.41-.41-.83-.5-1.26a3,3,0,0,1,.19-2c.78-1.55,2.43-1.53,3.76-2.29,2.58-1.48,2-4.57,2.66-7,.53-1.89,2-3.23,3.21-4.68a30.57,30.57,0,0,0-.69-3.85c-1.38-4.77-5.81-3.31-8.41-3.22-9.72.36-9,14.11-6.39,19a5.4,5.4,0,0,0,2.15,2.27l-.37,5.5c.13,1,2.75.3,4.1.72A1.4,1.4,0,0,1,59.88,153.1Z" style="fill: #fdc8a8;mix-blend-mode: multiply"/>
          <path d="M75.29,189c-.91-11.63-.41-15.12,2.64-24.63h-.21v-5.81a1.09,1.09,0,0,1-.17-.13c-1-1-2.45-3.77-9.83-4.21-.77,3.56-13.57,1-12.59-1.27-4.1,0-11.39,3.85-11.39,3.85a21.81,21.81,0,0,0-.11,6.61c1.66,12.79,2.24,36.55,2.24,36.55.23,1.33-1.9,5.66-1.33,7,1.74,3.93,2.76,6,9.63,5.49,10.18-.77,21.48,4.32,22.62.77S76.3,201.82,75.29,189Z" style="fill: #cfd0e9"/>
          <path d="M77.93,164.32h-.21v-5.81a1.09,1.09,0,0,1-.17-.13c-.39-.41-.88,1.8-1.84,1.07-2.63,10.51-2.3,18.48-2.22,29.3a92.5,92.5,0,0,0,1.73,15.31c.58,3.36,1,7.53-2.82,8.28-2.74.53-8-.79-10.86-.55s-5.63.46-8.46.48c-1,0-2.22,0-3.55-.09a15.7,15.7,0,0,0,4.64.19c10.18-.77,21.48,4.32,22.62.77s-.49-11.32-1.5-24.19C74.38,177.32,74.88,173.83,77.93,164.32Z" style="fill: #f49bf1;mix-blend-mode: multiply"/>
          <g id="rt.hand">
            <polygon points="104.13 140.15 98.97 140.61 102.64 132.12 107.12 132.2 104.13 140.15" style="fill: #fdc8a8"/>
            <path d="M106.94,133.4c1.74-1.92,3.38-6.49.53-7.67-1.57-.65-3.8,2.86-4.67,4.31l-.16,2.08C103.47,133.61,105.13,135.4,106.94,133.4Z" style="fill: #fdc8a8"/>
          </g>
          <path d="M90.13,160a23.58,23.58,0,0,1,1.48-6.44l8-15.92c.8.08,4.84-1.25,6-1.7-1.08,3.66-3.6,11.56-5.17,18.45C98.34,163.48,93.39,164.36,90.13,160Z" style="fill: #cfd0e9"/>
          <g style="mix-blend-mode: multiply">
            <path d="M95.2,149.25c.87-4.05,4.76-11.47,4.76-11.47a1.46,1.46,0,0,1,0-.22,1.65,1.65,0,0,1-.41,0l-8,15.92A23.58,23.58,0,0,0,90.13,160c2.79,3.78,6.29,1.93,7.4-1.71C95.24,154.36,94.57,152.24,95.2,149.25Z" style="fill: #f49bf1"/>
          </g>
          <g id="rt.arm1">
            <path d="M96.59,154.77s2.44,3.23.84,6.35c-.5,1-16.18,6.91-24.12,11l-8.9-10.32c-3.32-3.13-8.93-5-8.93-5,3.61-5,15.6-2.83,21.76-2.12C77.24,154.63,86.17,154.77,96.59,154.77Z" style="fill: #cfd0e9"/>
          </g>
          <path d="M47.12,135.28s-3.7-1.67-5.37,1.41c-2.45,4.52.43,19.7,2.17,29.14l12,1.2c4.31,1.48,8.61,5.56,8.61,5.56,2.74-5.51-4.74-15.12-8.25-20.24C56.24,152.35,52,144.5,47.12,135.28Z" style="fill: #cfd0e9"/>
          <g style="mix-blend-mode: multiply">
            <path d="M71,155a87.21,87.21,0,0,0,14.59-.29,64.61,64.61,0,0,0-8.34-.05c-6.16-.71-20.52-2.29-23.36.14,0,0,.58,1.69,3.9,2.88C61.74,158.19,67.24,157.77,71,155Z" style="fill: #f49bf1"/>
          </g>
          <path d="M59.92,204a.45.45,0,0,0,0,.08A.28.28,0,0,0,59.92,204Z" style="fill: #fdc8a8"/>
          <path d="M69.41,154.66c-1.61,1-2.63,2.49-8.74,2.35s-7.57-2.64-7.57-2.64-.9-2.82,1.62-3.11c1.15-.13,2.34,1.21,5.68,1.42a15.58,15.58,0,0,0,6.26-1.06C69.31,150.14,71,153.65,69.41,154.66Z" style="fill: #cfd0e9"/>
          <path d="M105.72,139c-.94.24-.36.17-3.4.13-2.34,0-2.38-.6-2.84-.92-.75-.52-.6-2.52,0-2.9s1.16.08,2.81.3a9.31,9.31,0,0,0,3.11.2C106.71,135.41,106.88,138.7,105.72,139Z" style="fill: #cfd0e9"/>
          <path d="M106.31,138.4l0,0a4.75,4.75,0,0,1-2.36.29l-.31-.06a4.94,4.94,0,0,1-.94,0,4.35,4.35,0,0,1-2.88-1.22,1.65,1.65,0,0,1-.43-.77,2.12,2.12,0,0,1-.13-1c-.35.7-.35,2.12.27,2.55.46.32.5.88,2.84.92,3,0,2.46.11,3.4-.13A.91.91,0,0,0,106.31,138.4Z" style="fill: #f49bf1;mix-blend-mode: multiply"/>
          <path d="M49.1,286.21v-.09a3.29,3.29,0,0,0-3.52-3,3.29,3.29,0,0,0-3.53,3v.09Z" style="fill: #657c8e"/>
          <path d="M49.83,286.84a.69.69,0,0,1-.69.69h-7a.69.69,0,0,1-.69-.69h0a.69.69,0,0,1,.69-.69h7a.69.69,0,0,1,.69.69Z" style="fill: #3e4e57"/>
          <path d="M79.41,286.21s2-.06,2-.09c0-1.64-3.59-3-5.54-3a3.29,3.29,0,0,0-3.52,3v.09Z" style="fill: #657c8e"/>
          <path d="M82.15,286.84a.69.69,0,0,1-.7.69h-9a.69.69,0,0,1-.69-.69h0a.69.69,0,0,1,.69-.69h9a.69.69,0,0,1,.7.69Z" style="fill: #3e4e57"/>
          <path d="M71.28,127.58c-.24-1.82-3.26-4.18-4.45-4.31-7,2.16-7.1,1-12.88,3.82a8.4,8.4,0,0,0-4.85,7.52c0,5.67,3.94,11.87,6.45,11.5,2-.29,5-.65,5-.65,2-.06,4.88-2.54,4.92-7.23C65.5,134.46,72.05,133.27,71.28,127.58Z" style="fill: #472d02"/>
          <g style="mix-blend-mode: multiply">
            <path d="M69.28,125.15c2.34,3.41-4.87,7.12-6.34,9.48-1.69,2.75-1.26,6.19-4,8.36-2.47,1.95-4.57,1.55-6.87.66,1.15,1.62,2.45,2.62,3.5,2.46,2-.29,5-.65,5-.65,2-.06,4.88-2.54,4.92-7.23,0-3.77,6.58-5,5.81-10.65A3.06,3.06,0,0,0,69.28,125.15Z" style="fill: #ffaa21"/>
          </g>
        </g>
      </g>
    </g>
  </g>
</svg>
